<?xml version="1.0" encoding="UTF-8"?>
<svg xmlns="http://www.w3.org/2000/svg" width="780" height="430" viewBox="0 0 780 430"><g><path d="M5.654610671858757 7.210832855249702 L775.1981317553805 7.432266165460722 L772.3482050919919 425.57748897576823 L4.707360684816835 422.4021119178262" stroke="none" stroke-width="0" fill="#fff"></path><path d="M6.211138438544285 5.709170375073051 C311.2699701835161 3.743161186191597, 615.9162827523533 4.342902709538654, 774.6175422902071 5.3179140437531425 M5.627085388002954 5.854734460108123 C267.68781492463813 8.163303902781381, 529.5220147468211 7.903087412523589, 773.8343378696574 6.103398077072374 M774.3054310916714 5.3967954178354045 C773.823082329478 167.33826864593564, 774.8398085828928 328.6377760340974, 773.9047947516505 423.7810940453365 M773.8845425030802 6.322280499531268 C774.7593252324233 150.53460829362183, 775.4808472708768 295.6642775737228, 773.5593245248218 424.20906664547294 M774.1832389186008 424.5970134254073 C578.3021045343639 426.5236672909041, 382.0788860172021 426.4280094646948, 6.083849922652823 424.4794285539182 M773.819599665294 423.62455790457324 C497.2109940045246 420.9137046097343, 220.34943897797712 421.3193425502577, 6.082437544115978 423.64475605713915 M5.206994812175485 423.5078321572613 C6.091136557452391 321.0019636073138, 5.807464464690765 218.6302798984385, 5.969162768629487 6.3146393839994825 M6.529633775933883 424.05766462839523 C6.089081182782953 273.4106171361392, 5.869718884537524 122.96789795552235, 5.808702892471772 5.664032714644167" stroke="#d0d7de" stroke-width="1.5" fill="none"></path></g><text x="28" y="42" font-family="Marker Felt, Comic Sans MS, sans-serif" font-size="24" font-weight="bold" fill="#24292f" text-anchor="start">Benchmarks — measured, not asserted</text><text x="28" y="70" font-family="Marker Felt, Comic Sans MS, sans-serif" font-size="13" font-weight="normal" fill="#57606a" text-anchor="start">Efficiency · same task, with vs without Marrow · 5-run A/B</text><text x="28" y="112" font-family="Marker Felt, Comic Sans MS, sans-serif" font-size="15" font-weight="bold" fill="#24292f" text-anchor="start">Tokens</text><g><path d="M376.6419452600261 96.17462581404493 C434.93022286959507 94.35377485041657, 492.7908825145719 93.84206929072873, 564.3298043820542 96.11232200362345 M375.10905282529313 95.63382121414693 C416.7182270687188 94.75598942532284, 456.779796353296 95.87787537497285, 563.88541277578 96.99001720356718" stroke="#6b7075" stroke-width="1.6" fill="none"></path></g><g><path d="M375.93811160995574 91.84417394515121 C375.2033770085528 93.60550498600952, 375.27514490375444 95.81886702461725, 375.72285403161794 99.93232825018949 M375.99659504844806 91.78144856451442 C376.0322548092881 94.75461257788533, 375.6641217607064 97.76978978907923, 375.84841433605845 100.12877369068302" stroke="#6b7075" stroke-width="1.6" fill="none"></path></g><g><path d="M563.1395116797951 92.5502980951056 C563.6814338753062 94.78819410959484, 563.2967600468075 97.73206150976122, 563.186233290762 100.77718903171693 M564.1064053334815 92.10319644658513 C563.8750451786201 94.20952937095305, 563.7475435842467 95.86925526321619, 563.6954945522481 99.73208313145483" stroke="#6b7075" stroke-width="1.6" fill="none"></path></g><text x="571.8888888888889" y="100" font-family="Marker Felt, Comic Sans MS, sans-serif" font-size="11" font-weight="normal" fill="#57606a" text-anchor="start">swings 98–170k</text><g><path d="M119.84432563216559 104.17908287457081 C119.84432563216559 104.17908287457081, 119.84432563216559 104.17908287457081, 119.84432563216559 104.17908287457081 M119.84432563216559 104.17908287457081 C119.84432563216559 104.17908287457081, 119.84432563216559 104.17908287457081, 119.84432563216559 104.17908287457081 M119.54329896331316 111.230899062865 C122.09452336211994 110.93712509041366, 123.09839521803332 105.71559898476463, 125.82404352959662 103.3107803410619 M120.16554464978648 111.49243081673102 C121.8826845354928 110.01808818497786, 124.05034053536163 106.68641391104214, 127.31643696674563 102.97438496059287 M117.7838546723862 117.46558210983277 C124.1036664358763 112.1618767453403, 128.49616527387292 110.13493299275072, 132.29863064966872 105.41482189470914 M119.43423924285814 120.37918336096556 C122.5915008028274 113.68053601259241, 127.02621666798856 109.43090799390124, 134.2713255426638 104.17000165922579 M122.61345179950132 128.77865344768884 C126.19181001863822 122.69729772936708, 129.9785399367166 117.07770134406988, 138.44498376187937 104.05506996756895 M119.47034969733342 126.09707970077667 C128.71854771309626 117.77728265436704, 134.6775561216925 109.2116002775506, 140.93054707714424 104.68186111862316 M127.27537979385426 126.11413539276364 C131.0146004968095 116.78475270345294, 141.2122800338553 110.70217417174376, 144.4779176773725 103.2571753089609 M125.31433098944446 126.72729772721323 C132.86938904655108 120.21773094367575, 140.63727335276434 109.18121523128922, 147.40845066460201 104.21500186541252 M133.58687687273968 127.61879882512052 C138.66679653271336 119.53198593086913, 149.3474684266146 108.75786034254665, 153.0803216623858 105.92910444261172 M132.59471894390782 129.16341618166675 C140.02902906459101 118.4194238298216, 145.60304486039087 112.0384014634048, 153.5584028661967 102.98689359714874 M136.81501633138583 129.16777568826353 C143.96979588127323 121.46982851089233, 151.40691797460966 115.78056376084369, 160.64818394512866 105.43852327657994 M139.7318766508736 128.13225768146938 C144.0638754237294 122.36891245933907, 149.06792952882245 115.66310680948028, 160.05761139255947 104.71083820821848 M144.183911398002 126.95060689025117 C150.7739935051969 121.88158815870912, 154.14749856056048 114.57118446189546, 168.70991462881028 103.88942584392402 M144.26394932097296 129.26118662100774 C149.45975351344015 122.11502710492037, 153.54570343003513 117.19814597274168, 167.44519801682145 103.15384853050831 M151.3819200888259 126.0572902048102 C160.0496452805502 117.44682188220828, 166.0300129712456 113.24029285152399, 175.74566860466837 105.19876304337075 M151.7728191403655 128.74540707283674 C160.0927983697312 120.06232528227461, 166.67104435051832 112.72472499927436, 173.7602714876422 103.69452707407315 M157.0854993820668 126.76252278999914 C166.15307487770335 123.21789030080764, 166.99678397404816 115.30913461727883, 177.71119972591217 104.18068515797863 M157.02670944468238 128.11345530634304 C165.31980590512487 120.69554294165184, 168.63308612988322 115.37547180255443, 179.48453170315292 103.08855854579964 M163.17852813093396 126.00232992887643 C173.18071271810365 121.96518299376105, 176.0291290753334 115.58338813181571, 187.85718372075104 102.0231705958061 M165.41825763205472 129.18507852841316 C173.66921594508713 120.56428647566678, 178.30043819746496 112.28164765358696, 185.18034262398473 102.62658859007435 M172.1716299766651 127.25069377016888 C180.50455667158997 120.75765722774383, 184.99664584228412 115.51843639967261, 192.14854110542257 102.16465463057999 M171.00258807614208 127.62911362410203 C177.48913975821395 121.90826427650639, 185.21730506897964 114.70752332482384, 193.3288051862972 103.09210252945219 M176.52602752246946 129.60379584693493 C184.03685334638374 123.26638365028352, 190.13144006680048 115.802151372901, 197.38829135813612 102.17827192035875 M178.23991630007566 129.12897967529628 C184.191657000277 121.71624716524794, 186.68304200520373 116.10200031522196, 197.87236147572148 105.52691788331977 M184.07286524655635 126.4566458172331 C190.33932441903704 123.76423713679073, 196.4438434332045 112.95847013673287, 209.03687583210092 106.44848524820087 M185.63362188948656 128.94055670138246 C190.01851238822647 120.93973783181528, 197.45983258014405 113.6707183097812, 205.6528676403887 103.3890631085637 M190.23253241516343 129.3797102047902 C202.37478060693292 117.2884833494942, 207.08479657910988 106.61936140414198, 211.8314806685547 102.44771426283314 M190.36832140553437 129.2500643999156 C199.11199488620696 118.97384980695429, 207.4861598684514 112.03044282781444, 211.6496668039585 104.11065634023889 M198.13851725650002 126.40315491766465 C207.13674860248835 118.95010548949732, 213.8880784396854 111.98874417366522, 220.70989097070674 105.82057799731405 M197.45247255885025 128.73955466528218 C205.98272121155367 121.00613694330828, 211.4841264166628 113.65605009675309, 217.922193239562 103.26339791023196 M207.65672987377542 128.29347398891497 C214.05899105727252 122.30974388178213, 218.38203981891695 109.51681805605268, 227.8298137167663 103.06052360970207 M204.7564471225654 128.7447903293689 C210.2817275129443 124.19487733709165, 214.17047127936874 116.54189570983823, 225.64804528283037 103.3164490879295 M212.80482515822726 128.03011831726798 C216.32536781807522 116.98200399957237, 228.21573367911884 109.34938714467285, 230.78820067297104 103.38645512372402 M211.8506038453393 129.61312390223065 C217.93628447830227 118.66477256464508, 226.73314380682328 111.52581056883147, 231.3610582449231 102.99431082088647 M219.07605696306481 129.0897381857821 C223.26377359920153 118.07292043753623, 231.5587330437548 113.75413867063843, 241.5451025675303 102.62697594743832 M216.54789262530312 127.26899009075399 C224.75763377674886 120.62500882256056, 229.68529873167589 113.87109464071209, 238.8939085864714 103.6423162534894 M224.0586010164974 127.3228120025158 C230.9639100913203 117.49441391914345, 240.6290610874253 107.92940928907703, 247.44299200365333 101.4970176139035 M223.74192742308804 129.17178453932556 C230.84446744916033 122.02699363040358, 237.20097873801018 114.64156117257467, 247.21618683060643 104.18450946762493 M228.8548778347627 129.23027504119594 C238.00877663890174 121.99936766197854, 242.4342286872136 112.71850006664475, 253.4260863725778 104.27446852184632 M230.4450591748536 129.67374257050025 C239.2849108747443 120.18380632929464, 245.66213385823963 112.35477849335692, 253.67247047598775 103.08152422334798 M235.80540689607002 127.04776195988094 C244.67021720567863 124.56075891935174, 247.20703627094605 117.70191062617519, 260.82026105650357 101.52970687410249 M237.73097996623105 127.58543170366471 C242.9732992476581 122.94696707086452, 246.76459333957322 118.3794734277892, 259.580987199737 102.54136689732238 M243.10812955362857 128.22223554162932 C250.45648605432174 123.00834810430258, 258.1048685757113 116.03845239170577, 267.07207719666826 106.17577731939885 M244.17279594535142 126.73363039570552 C251.34464741113914 118.5089385147187, 259.35538835776066 112.11013570281236, 264.5913926255139 103.05084312460305 M253.4377319486761 126.08861543516784 C254.87043271363464 123.23090714312474, 260.7948954007841 115.34155653669723, 272.52869489628125 102.59792389079381 M251.88110023587433 129.51920678167758 C257.15460487289096 120.99273800636317, 265.0231662400654 114.24660825893604, 272.28343352644936 104.78634073707659 M258.3255582134124 127.39931109333224 C260.17762673923085 121.97700161555483, 264.9124410086996 118.11924180379008, 277.8571961335517 101.33021874634592 M258.10263613992146 127.12790161324479 C266.2942225106997 118.1251531620823, 274.4846264299375 110.24898877070878, 279.4050207381747 103.97170850412964 M265.8986382390752 126.77439841484932 C272.4241027541341 119.7715242179788, 280.6479271565178 110.28991306152791, 284.2639076747174 101.3321909097819 M263.5780749061524 127.661754900462 C269.6367561616264 122.99974143421788, 273.1093774487748 118.17004925864275, 286.1103020718495 104.63613487331703 M268.4596008788737 128.6311526827775 C280.197879117146 119.25615456047915, 284.1878417364396 112.78326639948058, 291.2182552479876 104.27306878916026 M269.74067893269824 129.5498888502158 C277.59025183888156 123.26848053598235, 280.7593441172892 116.94720959092865, 291.1022664881048 105.37964048902543 M279.10599686101716 129.06067730517526 C279.9381842527938 124.20122112389029, 289.3304564435114 115.95603642393549, 296.6720864565715 104.8084089175395 M279.1543746801902 129.10638660689284 C284.8406941264933 118.93048666859279, 292.2800079166463 112.30040029727984, 299.0708170100719 102.73095693314143 M287.1496217017434 128.50453255576946 C288.9132855465483 123.20800519188221, 294.07198033029067 117.94339749875608, 305.6789936917069 106.0567246936464 M283.35182558478783 129.48817099304802 C290.6753152107576 123.86798601949437, 295.2614191634704 116.92097748974767, 304.33084363641024 104.30540546571996 M289.4403698792617 129.23897809261854 C297.9464593579688 120.03603780641805, 304.8463544445125 113.7709939200301, 314.11816830660314 103.08372890053941 M291.57703623212234 127.46049702806795 C297.66683503791506 120.35920383663317, 304.6595292038454 112.02248470287277, 312.56482751525107 102.9703895436476 M296.18555774678117 125.65160169878095 C304.088940780403 121.14191702991131, 308.40652624823633 115.14285448700146, 317.3137235294693 103.97896244627704 M299.0234252703247 127.95483066883921 C304.05533070798856 121.47343663748694, 309.22676288085484 115.05994034613931, 318.8609138572254 104.00327356131096 M305.9692464455396 130.91794802298358 C312.07914510977224 122.95786061528277, 311.18771799546755 119.46354788391183, 327.05401737654324 103.3324231045861 M304.07189832305465 129.2267275504168 C310.3791530025196 121.04996315826327, 315.4739160263373 112.59591485192286, 326.350984848493 103.249261591265 M311.87609607874634 126.88576109828479 C318.8610206391073 121.6189849266669, 327.4414374729049 113.59540679003625, 330.11550682603416 102.11880803352501 M310.4334521634433 127.8213255046872 C317.18022811992256 119.67638812087606, 324.62416026994373 111.20308968589049, 332.9532638246849 104.68688990289624 M315.71068862461055 129.95161308274314 C323.54327984965863 119.56242286317165, 331.9036449577288 115.12181376893065, 338.8820707311513 103.57414251615229 M319.1872476271218 128.93122330103708 C321.1648654916448 121.80608863924817, 325.51094289162114 116.41957651918182, 338.8103881839322 104.18590570309135 M322.61685084937 130.93753300008535 C327.6784407982502 120.9757171807586, 335.0784526210211 118.35426795880925, 343.96433273313244 106.27240870119472 M325.0186825252497 127.35435938702136 C331.37462724585777 117.6941857175347, 341.78655942885877 110.1378321492241, 343.92748229989456 102.66514587690521 M333.201508481234 126.17524925836997 C336.5015968610477 119.26963391422555, 342.5894966815934 114.15979040029237, 353.9235154351868 104.40978812171079 M330.9619958184582 127.85950440702663 C337.75901029362103 120.8483597887269, 346.84414994378363 109.79475993847215, 350.3147616957031 105.45802950622446 M338.1540091234117 130.18281839065546 C344.49178897709584 120.513775596289, 349.952078737894 116.10591719111487, 359.09076331552365 103.28129043575898 M339.0383405298783 128.94413994293953 C342.06398493638955 122.11674676555091, 346.73782970191945 116.16184272076998, 359.62560595698903 104.67043661043569 M343.66544516714083 129.5412537956686 C350.157451762146 124.75107433444326, 353.26510321959165 116.37907790162147, 365.3864656403807 103.95738216706604 M345.09385665816984 127.59233725481494 C349.02757310611696 123.6412887840703, 352.7214705209175 116.88707287796079, 363.7946316449118 104.93858688709379 M349.5525079656308 127.97876825646787 C358.16755631148993 123.36219305451377, 364.7517670643184 114.62823544052067, 369.6441106379674 106.36822922369053 M349.3422753514638 129.84024979953944 C356.45160189112784 121.49117049691074, 364.5642685122876 113.93203862283191, 370.98029647010276 104.59453223058541 M357.8768107470907 128.24740268111177 C361.94316738609086 117.8037518047923, 370.2637193138608 113.0577042647846, 376.62960841149265 105.18032563869085 M356.80299182039124 127.5339919714997 C365.3161731344979 120.43474901303729, 373.2035279305634 111.01186801819654, 379.4029722056928 104.62403547279712 M361.9642115277584 127.99965484332704 C373.3377070143989 117.81383573119543, 379.36720494650154 109.22147303673101, 385.2606138521946 105.27312231079385 M365.13913825111194 126.88751784325056 C371.4291971105461 120.07495247270666, 380.6343424222712 110.44385360128913, 386.18301760034177 105.02444912378385 M372.128667285843 128.4727219011722 C378.35072180553686 120.52769384596881, 382.56821238580534 113.86335398506644, 389.1303808132821 105.22326952305795 M371.0001879792569 129.6481136841787 C376.7630819725955 120.38010325563918, 382.78826536785726 114.236713611519, 392.28338255218057 104.1702078904322 M376.6915568745539 130.36512913770574 C383.6569291978178 121.1864149764187, 386.048622194123 116.24461484896682, 396.3270850229647 101.58124568354168 M377.4600284029574 128.0542767011707 C385.25426256830264 118.4860072689728, 390.770541840573 110.7456247010158, 397.3476810218405 103.57070741712877 M384.20100393512877 126.9133587016544 C389.97765134981285 120.54764387542498, 397.749021159259 113.47914558092968, 407.25314699748 101.5479860659718 M383.2550338958729 129.1935937792814 C389.9439044054045 122.54610064779042, 393.74646010977074 115.3712305950161, 404.33826394548106 102.82818302642848 M390.35573107077687 126.57609212607674 C395.8034218866089 123.5531504385676, 401.1020781290991 117.51040749952668, 412.34908621503735 103.65912532840682 M390.52666998113455 129.16823400039755 C394.37464016352317 122.50521241426682, 400.17334686734233 115.92606554674995, 411.8788234087335 103.20320223771793 M397.82438275970753 129.3108390690312 C404.93918542351093 116.58304015413401, 411.681790444147 108.5092464511959, 420.31284402884586 104.86162625390521 M396.8595662443736 129.05282738390568 C401.8062712293309 121.07088542467206, 406.9606940859725 114.42459593087789, 418.89246555972886 102.57254350788376 M405.26484826815835 128.05056605424454 C407.4345854736683 123.98701743258441, 414.15187422028487 117.4953839558876, 421.9191065801434 104.79040849119373 M402.7195892467495 127.05234362736066 C409.71163959082264 118.99429141084939, 418.0049562714274 112.64722002098583, 425.0397835221268 102.98707497198083 M410.6481158243387 128.5879389897752 C415.71346858481644 121.52667499528815, 418.2326913089787 119.61214131747133, 430.3992180011297 105.2978814931081 M409.3964466988935 127.6675846251491 C417.0021486597543 119.30038216231472, 425.98953050554064 111.66142146923454, 430.71752059804896 103.68253738167297 M417.07759553145786 128.6519519086818 C420.21803817446835 120.9678842790834, 427.06729278740295 116.84150627282844, 436.38020818304244 101.70412115837516 M418.04176037393677 128.25306320915772 C422.28985202503463 122.15045359785145, 430.7233789257173 113.90459672413131, 437.01634803615485 104.0109707470152 M424.60844228075337 127.78455570969106 C432.1763270596489 120.92171880304497, 440.8878082663325 113.78404484055181, 442.66470597909097 104.72640277005335 M424.5071390205387 129.37488188944133 C429.36705462626884 123.1962580420762, 433.88617184199154 115.1921067929323, 445.7195282345757 104.85149727489403 M431.42746895442525 126.87019109563863 C439.43725443891185 119.60654129543003, 445.86884652012833 110.7952652402221, 450.4502621174845 105.55582973620112 M430.5428415658213 127.82151579266375 C436.9689937334587 119.68871971167654, 442.1075552398556 112.24371731106851, 451.34098765394265 104.96820010969604 M439.19217419371114 130.5859652152514 C441.04300985304786 122.27491759655688, 443.90258350540205 119.58396870557033, 459.54867211446077 105.33396233054533 M438.15555488344387 127.93523930388 C443.1503423202101 120.3808719065603, 449.6480266795399 115.20779514271703, 456.9633897304154 104.36800207397624 M443.01065560182013 130.13118460158773 C449.8730518892018 118.25036102459143, 457.3128209521102 115.88869389545034, 466.10983044822893 101.43706021114437 M444.00705699653753 129.02290900497655 C447.02295830713365 121.94437807177628, 451.34190935658626 116.99820858734529, 463.78073904962474 105.06615818712113 M451.2609326569617 129.90398391270625 C456.8474520880298 120.36819979886559, 459.43838664425977 121.0887476164835, 473.384994443008 106.50742074127963 M451.0522899907336 127.31384241534013 C457.17105000144704 117.48265856223102, 465.6935932403279 109.63448194762327, 469.4803952307117 103.99884398624023 M457.8102696253735 126.57795467233362 C460.0822505017223 122.25187457302155, 467.51258871200287 119.64772241673995, 468.40975300811135 112.4582652114599 M456.3774329271916 127.71769673252555 C463.17100707651014 122.22726928641664, 467.4480054278587 115.6075831068378, 470.34479166541155 113.50929174817045 M462.6136219919039 128.70920801707157 C466.7523851450885 127.04990327785352, 468.7608925113415 123.3475692343321, 471.21496146022605 118.62560559928457 M463.16553394660673 128.05117347638668 C465.683766477843 125.13009655691107, 468.01654320914577 122.79805025927426, 470.59134884428494 120.1410215068147" stroke="#aeb4ba" stroke-width="2.4" fill="none"></path><path d="M121.30148577015309 102.72821393988221 C190.43443858775714 103.99350658977447, 261.66368086345506 104.15124463561732, 469.2248642042091 104.28733990110213 M120.7870262209395 104.82880953031842 C202.93776934296727 102.48040181355564, 285.2223461182479 102.23792702826225, 469.5392674241728 104.25574164868627 M471.15413424790734 105.05872517935931 C470.3214980547362 115.56658414639531, 469.77115076231297 125.57304044924676, 468.9033243042314 125.8119339954108 M468.8731256185928 102.89117953423411 C470.6356636023828 113.21066893655808, 469.59804818990915 121.33357268366963, 470.55479232062487 127.82455332521349 M469.5073513237747 129.50378605224483 C338.9856899989665 132.5165519341968, 210.64109348354123 130.71548423916195, 120.18296972840861 127.6006444920817 M469.54511536590536 128.38132422059127 C351.78286999542587 126.46132119608211, 236.1237880084923 125.56377060313186, 120.29895068631384 128.41895153536353 M120.1026965547353 129.2653936278075 C122.62149262186884 118.34527515359223, 118.34201858994363 113.73662022612989, 117.91372514255345 102.22635619752108 M120.55653648432344 129.37263477686793 C118.99545778769999 124.2950509564951, 118.38869602818042 118.46386243794113, 121.18740477021784 105.21566318515688" stroke="#6b7075" stroke-width="1.8" fill="none"></path></g><text x="479.8888888888889" y="122" font-family="Marker Felt, Comic Sans MS, sans-serif" font-size="14" font-weight="bold" fill="#6b7075" text-anchor="start">~134k</text><g><path d="M119.94319803625854 136.0653431845563 C119.94319803625854 136.0653431845563, 119.94319803625854 136.0653431845563, 119.94319803625854 136.0653431845563 M119.94319803625854 136.0653431845563 C119.94319803625854 136.0653431845563, 119.94319803625854 136.0653431845563, 119.94319803625854 136.0653431845563 M118.49785913927407 142.741595211181 C120.20506599973591 140.5996717781649, 122.75987119112798 140.29745120280722, 127.69391579022498 136.59121345257054 M120.45132593577654 144.33732918195722 C122.0710582852438 141.28625486903647, 125.09573032871357 138.5985843367878, 125.92852085186036 135.81214365375826 M118.42900730892354 148.4449427437188 C122.68183892252075 146.681710565695, 129.00092856397163 139.88868101741548, 136.12501923143085 134.6344944730799 M119.59306320398385 150.98705319950002 C123.81871911683092 145.90746911441596, 130.88358592099294 140.17375188642882, 134.58614093288 135.44014512527988 M121.1670047451245 158.54933396444463 C127.92123737587268 152.79166062923161, 131.08940297030625 146.95348525945195, 138.68487862501735 133.636450841285 M120.41089336094134 158.29670805872226 C124.04694047623802 154.5820743145617, 130.38156896148053 146.39717693367376, 139.23276587803358 134.70204118788962 M125.58380125651126 162.92309962981403 C130.01924459209764 155.8576288626196, 133.50851115211904 147.6440096014283, 144.98712540874055 136.62011649904093 M124.33538437897329 159.39200399466813 C130.36238499504083 156.40043102074264, 134.255733524056 149.26072416488984, 145.00225230390004 136.0104727424427 M131.01624037000624 161.2406177190659 C139.82368685858845 152.71634896125022, 150.33020771042453 143.29825049583275, 152.409644783466 135.70192444424984 M133.37024990218964 159.23474574438907 C139.02361773791714 154.52688290319813, 143.45059456071925 147.33040297565074, 152.29482427853242 137.20133079465387 M140.57441214152243 161.37936913121638 C145.18026399900904 156.0579171960851, 147.43916486709617 149.71147225301854, 157.0293323630877 136.67024891548232 M138.0291688536909 161.14062221471366 C143.11482507744287 154.04643249588182, 149.210267938859 147.67920281543817, 159.8214350330122 136.25822884090618 M147.31588927192536 159.2510993641676 C151.24574139820265 154.85701871446966, 154.68769642321502 149.7015423296856, 164.16450737746158 136.55243833041777 M144.98502155153002 161.13536816135658 C150.8212381489737 152.32800067245753, 158.79468696845487 145.7327624690096, 166.22118016438284 134.60453580669156 M153.7154319620805 159.02536641582182 C159.5900629028856 154.35133840253954, 165.98716098758806 147.5160725454546, 172.27644044048168 134.90249192762684 M151.21459456376004 160.3033120900326 C158.52278214051336 151.85531370957096, 166.71745452218306 143.45613909419356, 173.03782540372586 134.9160526883931 M158.84681082588185 158.2436695247496 C167.54511374517955 152.81121366030348, 173.42904892169565 144.25346734068788, 177.91176675301347 133.76809270501167 M158.65540362146245 161.62650499712478 C164.30954037464886 152.09207904818348, 171.99653294448333 144.90106665763616, 180.7372198190943 136.0130454917255 M163.3252200931854 158.9864821086304 C173.64337217936122 149.00145231074356, 183.62279608845145 143.98668992675277, 185.28430901592256 134.00473616047447 M164.62310682168078 159.276753308125 C171.25478017427324 154.27072493592198, 175.41689131334226 148.30884523856037, 186.56411872854113 135.29937397240346 M170.00880537788518 162.36092840603473 C182.75910936004666 153.6382501029017, 188.29560057867826 139.98724338679878, 193.4569003431028 137.18985903258584 M173.18803239549646 158.82829551941637 C177.82832254000965 151.8096625952111, 185.2408665153904 144.97249064792103, 193.59900661314785 136.80162037681006 M177.74107688084672 162.86781641486485 C185.5877255883222 152.5038942847143, 190.9634161534203 141.4465242887651, 200.62773843541976 135.144581819248 M177.19259191096256 160.94983513671357 C182.36929771615675 155.45183588893764, 186.74205105274797 151.6626960471163, 200.51945129096742 135.61583196066002 M185.33273230293548 161.515766633023 C195.0564243638414 153.77780438114823, 198.27920268444382 142.70874729560538, 208.112208493739 134.24783751836316 M184.10810318613207 161.0436694157314 C193.8854381683607 150.5362675260245, 200.85723191660682 140.15636381406654, 205.05692683005296 134.34664972966806 M189.9434797580454 162.13534079907967 C201.86903167706834 151.80462315617888, 210.3165440493452 142.57106127278115, 213.1247061319544 134.95050036850188 M191.49161320208643 160.08481810285284 C197.25669255543917 154.58143467197178, 200.6658725297192 150.44965176934937, 213.05363646148587 137.14643718021722 M196.96839194704205 160.90078441093715 C205.62120132228944 151.7302400491173, 212.2224298329661 141.2214565566776, 218.66499155093155 138.0971283675664 M199.14725227687867 160.26776595379266 C204.93293889566434 151.87457791541988, 212.33436073628695 142.65356123613918, 219.82386675331912 136.9620228180223 M207.21972907079098 159.44415546649765 C207.6232885288474 158.86351060456863, 214.0145858045895 149.49905792610258, 219.08336313264033 143.9418973959094 M204.18305697856184 159.04559147426556 C207.6180218158747 156.6662059651501, 212.3968920859862 152.84277444482223, 220.3941612047102 143.07563428124843 M210.48445367502984 160.75469523435618 C212.84449921207283 156.8225830984941, 216.43778434877748 155.28654630865688, 220.6630077889834 150.45915411621115 M212.3798724520486 160.03448070814994 C213.24235522500334 158.0050183348284, 215.34382275728305 156.29375501298009, 219.28160547244295 151.34793239071746 M218.1944105473935 160.43204965534312 C218.17685924491707 159.9815239706818, 218.77620862620887 159.52083188999651, 219.20927297011298 158.9758607853105 M218.16042898327404 160.34796804497643 C218.32329023690562 159.9886346683047, 218.9002929421726 159.44589712608033, 219.2636881721793 158.9720797277888" stroke="#2ea44f" stroke-width="2.4" fill="none"></path><path d="M120.40202592164277 138.19326361864805 C137.277932950399 136.73046287799627, 158.68951655386223 138.52241410518437, 219.88983199281824 134.19123644083737 M118.90241853818297 136.24525663033128 C145.80578861621518 136.81929253110872, 170.89736288736265 135.64879261026368, 219.2719342088534 136.04730667248367 M219.83885352296963 137.4095183774829 C217.90215949405567 142.1090008869767, 218.31996244777577 143.716044126451, 217.3834244935049 159.39483708590268 M220.0232077455355 135.17219585552812 C219.34961281876102 142.24800247624515, 219.74494145969882 145.65480656400322, 219.05775323866143 158.91769453659654 M217.30928928537503 159.21420544832944 C178.42827874004013 160.76718710666813, 144.72757367566226 162.83597244030156, 120.0524708583951 161.6208055898547 M218.77265592573417 158.98530222550033 C188.2927005628331 160.7510016110647, 158.28722868992222 161.79040006668453, 120.3743552647531 159.30298489704728 M121.89385078698396 158.07133850306272 C121.67871922385692 153.72211834937335, 120.57383846175671 148.62176751941442, 121.5422456100583 135.33784312456845 M119.46167616471648 161.37014702931046 C119.43868122294545 150.04914649799468, 119.54039566710591 142.74239538684486, 120.40444156751036 137.19890529289842" stroke="#1a7f37" stroke-width="1.8" fill="none"></path></g><text x="229.22222222222223" y="154" font-family="Marker Felt, Comic Sans MS, sans-serif" font-size="14" font-weight="bold" fill="#1a7f37" text-anchor="start">~38k · flat every run</text><text x="744" y="138" font-family="Marker Felt, Comic Sans MS, sans-serif" font-size="26" font-weight="bold" fill="#1a7f37" text-anchor="end">−72%</text><text x="28" y="196" font-family="Marker Felt, Comic Sans MS, sans-serif" font-size="15" font-weight="bold" fill="#24292f" text-anchor="start">Time</text><g><path d="M120.09150664239795 183.89473364953452 C120.09150664239795 183.89473364953452, 120.09150664239795 183.89473364953452, 120.09150664239795 183.89473364953452 M120.09150664239795 183.89473364953452 C120.09150664239795 183.89473364953452, 120.09150664239795 183.89473364953452, 120.09150664239795 183.89473364953452 M119.43426827729701 192.1717602264109 C122.37768804858521 190.65577544509296, 122.73647907554033 188.13630859866254, 126.4069246990323 184.26891400051335 M119.87783517117634 191.98929467526924 C122.92343420169591 189.63700543434095, 124.4984331907965 186.14771074357407, 125.94248355689422 184.8305418525919 M117.2377789780721 200.06694570402504 C123.71795278934724 194.47394106920916, 128.16913058202596 186.7553396421349, 136.22097343659277 180.86459535352574 M119.62487679442764 199.26563900164217 C122.20469837737545 195.28615045629098, 125.98881302020796 191.09532919990488, 133.87793641412878 183.32448399487572 M118.60743822503618 204.13850629035556 C127.87130222800515 197.5276572627793, 136.06332638780663 192.10704347666734, 140.10238936256223 183.1219263798386 M119.73424330271564 206.1464109553414 C125.4827936417977 201.01088121210694, 130.8161278605148 194.28350390655547, 140.01119205534064 182.53670948639663 M126.72258265064184 209.06443921637182 C131.7703581753637 201.7504425209481, 135.07779686986186 195.00675012728908, 149.13298322127093 185.34724866286538 M126.2878531149504 207.43502185486648 C131.34402298940432 202.29440397346895, 138.1579940224113 193.61498763243938, 145.30945528780003 184.6303720888185 M135.13896881470828 207.8900354396836 C139.1118356269084 197.09589147655979, 146.64977488569755 189.45189580386136, 151.23200984249075 181.31035213410198 M131.20848549602925 207.52975948399913 C139.7986023432127 198.35984234149382, 149.29611733673158 190.4735377966423, 154.18107395885696 183.584313247309 M140.0674314020547 206.53675779290077 C146.11281073287157 198.31276617438087, 150.76649835925446 192.4215581807273, 157.31812509402172 184.2088273407127 M138.76325564834949 207.86895068902103 C144.93670806568582 199.99716049987538, 152.45464973400962 193.87711454416836, 159.7543047663896 183.83779221020447 M147.0666783674529 209.61619308251932 C147.3163717940368 204.35531205266741, 155.53962891287696 197.84466982550111, 166.65824005563573 186.52730796419354 M145.4376598567611 207.66366347760007 C152.9348613537986 200.67986245539288, 160.22666472710205 192.28586804429744, 165.00741743274793 184.86847854767265 M151.5754957906746 205.3910999900352 C156.69215517814447 200.37574899732644, 165.43860459444966 193.05171038921, 173.9118439321045 185.4890995610405 M151.04903034361382 207.97750491990408 C158.51755455969848 200.918283890494, 164.46006454931162 194.1649402837221, 174.19426761778183 182.36283089238145 M157.15707078952005 208.02703781261275 C166.8770462474121 202.93748085787334, 170.52546057439125 192.5991014403282, 178.97532696622827 183.30780830341783 M158.57210818178612 207.29699988926927 C164.18415334856851 203.08957339252595, 170.63822366746993 196.35051367920676, 180.06986983186968 184.78647568016703 M163.24784569376098 206.2516089817479 C171.39813747715448 197.64345463932534, 181.16396263975346 189.11283243748008, 188.7308346127788 183.44658349782154 M164.46914746862785 208.50958358086345 C173.17846380823474 198.19526175664208, 180.11246385522068 191.76950761461572, 186.42050160986133 185.3621996686973 M172.2018409581692 205.60608780393665 C180.58964916718287 199.97371223820807, 184.33064767509447 191.53719778352303, 193.29059045152783 185.26974632574763 M172.51548823898892 208.87398025235447 C179.32174567933268 198.25412089218634, 188.09491985070977 191.11921129785446, 192.48927642410666 184.24032867814 M176.73497807554494 206.2970492013433 C187.56013894621285 202.1849616099776, 190.66943075682562 195.67977608720503, 201.0412191002756 181.4944185843603 M178.22512937824766 208.19058196457857 C184.24297778005806 199.9622683305985, 191.54560167270785 194.5388089357676, 198.40171659748404 184.06910633183134 M184.0739337506599 210.6556112304638 C189.28895131359675 203.6525743094494, 194.58095224995736 198.33447170824445, 203.99260038879393 185.2497652051556 M185.78083279625395 208.77944110020348 C190.22128163276602 202.6206132496468, 195.77467067473341 196.02359970892826, 206.69585747734337 182.9726865749392 M192.2004628132859 206.58906382279412 C198.1184295743123 196.7881268616217, 206.60340954748793 189.27460553581426, 212.8221922718545 182.7286229946295 M192.45969634035768 206.85064910439715 C196.51497439658561 201.90972714165932, 202.83195601242116 196.90171304713942, 213.7478203485345 184.12151241513138 M196.89572113122318 209.8324975254986 C204.4244983325821 202.3557782512055, 213.8784815479574 191.21061910957462, 221.91935374225756 183.83912937494628 M199.65872670843723 207.67471522549573 C206.52689837028274 200.20387696638474, 214.2309143594482 189.40477441942568, 219.3973853464358 184.3026946632441 M207.48911978424343 207.00804602007318 C211.4847376138131 202.14297760747098, 219.10313372394438 190.41576645847718, 227.93419900477488 184.86396490260194 M206.02494362284244 207.36055903366704 C208.41179026307177 202.76510778397252, 214.81890714202106 199.02411520113495, 227.07809563089717 185.0980044519452 M209.10264797711844 209.0765148630139 C219.24530843715857 199.7434963372766, 223.49310789302342 195.78061417872226, 234.02192038917823 185.51198200909243 M212.88095274342322 208.025889161579 C219.26171454789196 200.29497115395117, 225.11270860398992 192.50814451606757, 233.8428302992685 184.25425197640254 M217.29519595264847 206.789010226485 C224.4668168104016 201.11151889546852, 232.41373937366646 188.55225767154212, 240.08711126326784 186.36983374158208 M217.05051858055796 209.16758204506772 C224.8174569725299 201.3076409641447, 228.88136278287178 195.80858149349424, 238.58937729942812 185.2536652349523 M223.81140916560526 206.14618141698244 C232.84455321013343 199.6850611291346, 240.0979828782768 188.95934874580885, 247.33262020681542 182.36121628156684 M224.98866866909648 207.63967444180105 C230.3298298221717 202.87708449762144, 234.9575634842406 198.67326977825593, 246.39053760372593 184.6918825477623 M234.42601119576057 206.24984961600222 C240.3256972249979 202.6374299281999, 244.44857031745238 190.04868073601358, 254.1038739245928 182.5984976855427 M231.6072664813887 208.62374217194684 C235.93872971317958 201.43570239770384, 241.87962003917943 197.60694472989474, 251.5196981220118 184.64833129750042 M236.7881266609146 207.95463662070867 C241.30001362204956 201.58146567443453, 248.82038220689537 196.94033364249944, 260.13320015940013 182.6343466256739 M236.90058434031295 207.19927885884132 C244.46834866205447 201.1428453543036, 251.04652080076667 193.52652405954638, 258.27640461466405 184.0566066700028 M244.17013539083914 207.3272073625977 C249.47525975545756 199.37932223717246, 261.7869193094382 190.97328616169293, 262.68868186600923 183.12097490845656 M244.67540759321912 209.3216884476523 C251.15465692898576 200.15195946655132, 255.5046573079191 195.6999564864133, 264.31646586653267 184.28246417293732 M252.11199534030598 209.89789864816535 C257.1178864940255 206.13133426922033, 258.3751233320372 198.30546830008916, 272.01848012419197 184.46176621538646 M251.17660752495718 207.7926639460476 C257.8095103062535 200.3796758524027, 265.06933957239664 191.5418026710769, 273.0775265999675 183.29419837647177 M259.4655655021152 208.5123478995759 C264.6440182193944 199.76719423060084, 268.338865656072 198.8297812385279, 279.1951570517483 184.2629048436281 M257.5127142709053 207.23056616486346 C265.6271450491831 199.6134537501, 272.9929767589714 191.25286423765422, 279.6046403878468 185.23302165394244 M264.54346008103886 207.59073567332536 C272.59335732586334 202.7382264146885, 275.11053972299567 193.7925749560897, 283.7205890074407 181.23790864445454 M264.1860209909136 207.24841623676775 C271.7389308779348 199.67893370590107, 276.27801119068505 192.21461267374093, 286.7364328565111 184.2363471202943 M269.36337140684844 206.5794144009096 C276.6951553232241 200.92548053938918, 284.05981122008416 194.94474347217948, 291.68999435906943 182.03280566503008 M272.3181567823318 207.8242743569282 C277.04844131682216 198.6059298616557, 285.7722538419774 190.74452822299241, 293.2503794538387 183.3817152738636 M275.49239284734426 208.602537129493 C284.2876006289803 202.52750227190415, 289.491473798336 193.12492832232704, 298.596846686406 182.73066708685081 M277.8756595930383 207.67161852368108 C284.33596573706535 200.78402523525727, 289.6312011419295 194.50318249381104, 298.8489686521794 184.11007693481812 M283.65193201128864 207.56659046034872 C293.29559084959965 198.51390536506906, 302.1262707874573 187.67425115580127, 307.5771976942225 183.1032359664126 M285.05613942437344 207.66262747697144 C291.3315280410797 200.14298536567878, 298.051120431419 191.55150070712185, 306.7852748613833 184.59617198582578 M291.88173851648173 206.18557119064107 C298.9374929679727 202.53115291379183, 301.2939492308972 192.29540412660472, 311.25400012531884 181.26255597587976 M291.63355609921564 207.37210734013541 C297.8676886909651 199.5999603842337, 304.9831250145373 192.0273770338811, 311.0885313418285 185.11890811272266 M295.14481719269537 208.68551925186605 C303.00903638911956 201.83749259826766, 312.5246490485214 188.20839889151713, 315.8859619344671 186.7202139217483 M296.74438246491485 208.50077455834094 C306.35562661904993 200.14533059005265, 314.0652799556403 189.84235644903706, 319.0942343783651 185.23935332317672 M303.57175099470123 207.05614645051963 C315.1264582966312 196.55210660673907, 318.38861259144795 189.67118447778338, 323.2118692014388 181.4389684855142 M303.5131773063208 207.64563463925577 C308.6791378047168 201.16250262681805, 315.4801197270807 194.7786287990989, 324.6697161933429 183.57111468735573 M313.1050239152996 209.30246520876614 C315.26383159097776 203.32454148949245, 323.11968795583465 193.66434391791944, 331.8949090440342 184.48437896434174 M311.878158258812 207.2703608937162 C316.2114757847351 201.90022117019674, 324.82461896752943 193.8823372162846, 333.23971785964017 184.55071707859594 M318.44787515926225 207.70403108310148 C320.2769515684188 200.68307771593427, 328.7308910023415 199.3903664980142, 336.47152379202515 183.88404778972688 M318.7213059822382 207.28328695438995 C321.76998770214254 203.30257393287147, 325.2320142451454 199.56120495466376, 338.1164934746069 183.0155956920651 M322.9086220563609 207.06657150502167 C329.59677007045286 199.35807013879167, 336.59768152444155 188.7026789430162, 345.5957339001834 184.47924926816563 M324.69393707394937 207.60778551644495 C328.812831521514 201.26333314857197, 334.820429306374 195.1297322874786, 345.52538307309294 184.97447478543114 M328.6449829743958 205.373614521691 C337.62375819355753 200.37398326359346, 346.44766794209494 195.2390073177174, 352.6834608613091 185.77655832182225 M331.2422769818238 209.35264707821736 C336.2116388185892 203.3816921556127, 339.4315013654014 195.80241360836672, 350.63038554047665 184.97774641953018 M335.6129314931388 209.64573131460546 C344.8435408433693 203.18095448363857, 349.15997280248655 192.90792441567967, 360.0613813801741 183.8070930071928 M336.5375641782115 207.79007245987503 C346.94422719988 198.30304641244234, 354.9762237717517 189.15551517362658, 357.264262786608 182.89546297703018 M343.0110193173614 205.39216494026095 C349.17369901218285 202.35900045950174, 355.10737704145953 192.43438277024254, 366.41125028655006 182.57814325577309 M343.70162307296215 207.52605154408576 C351.27824357779457 200.29270028458248, 357.18577499969985 195.16840372026718, 365.15411265883665 183.6877159030988 M353.5246991898641 207.2624590708219 C358.0834188511178 200.2323905162846, 369.7633666456218 188.01949614600971, 373.8142234482373 185.92479961472762 M350.8324369264543 208.2707420166858 C356.15567868594917 201.44209701183195, 360.4454967681899 194.66034921965087, 372.54694185504127 184.5750144460724 M358.2751790654185 210.5057005127842 C363.6838495841967 201.61160811454144, 367.98905476481895 195.15396895470315, 375.4997119450077 185.36919576555215 M356.73425202353775 207.61646188534297 C363.176162479688 200.91099482332282, 367.54537515564385 193.60032282366012, 377.7397700975715 184.81627817611866 M363.4637450237965 208.02214794764384 C370.05139977924483 201.08135990045105, 373.0377645006699 198.20080683244115, 385.2897049816326 185.5721372647429 M364.94315058656235 209.20806822022513 C371.34125150591825 199.66586034518107, 377.0811248611678 195.05681093935155, 384.50520304627724 184.07921572590567 M369.4160841827982 210.21486067256512 C380.6147862155145 196.72855138209968, 388.5398641870476 189.62490157437514, 391.44309280091267 182.18473028446394 M369.5526236884066 207.1133358946684 C379.97219797373174 200.4912706335829, 387.5305884882377 189.26584989914278, 392.117005211537 185.01070353126931 M375.1311388721954 210.448941119044 C383.26032285848896 202.9091815784792, 386.300342812665 197.7258991316264, 397.60452085761943 186.10762413121142 M376.34367542642013 209.60095010384072 C383.2685363785148 199.35385449430953, 390.87400891802287 191.9269532010631, 398.2802041282005 184.81477834987768 M385.3254295467599 210.50316359357655 C394.9103947816322 200.37288343448245, 397.65673713877004 189.8122295832488, 404.6487127315247 184.54263998648122 M383.01039583545315 206.71088510540991 C392.1471883597704 199.0195296786824, 398.3893199513501 190.61669871496827, 405.9566632686177 183.4230160018985 M392.2773776992918 209.62160301832688 C398.1090008877078 200.105074699491, 406.5704052273147 187.34078581043815, 412.12479304042876 183.24439964743766 M391.5855338008837 209.22478296021205 C395.66785871267325 200.88285708526973, 401.13922806947403 194.75006880494277, 411.99065495566697 184.66491011066796 M394.37616003456304 206.37287744979116 C400.6760997398046 204.04694101034178, 405.66032546792616 196.48639613646628, 417.2051416141033 183.17956804557673 M397.3706012325619 209.44394605091514 C403.50167393738803 198.64637526729223, 412.197258981997 189.28627616041064, 417.03896453669813 183.64586462135398 M405.9660313823453 210.10177681946524 C411.33702662686466 196.06688787235328, 419.32480009121645 191.6792496556459, 427.3297164073201 183.57848198739435 M404.1614459778375 208.95971582268692 C409.29256116670393 202.9372106010333, 415.07326673264 196.3376425120931, 425.39646329656114 184.71757254162426 M408.39064761043886 210.3808916745135 C416.5857622151873 200.4885163356103, 419.60251023314333 194.03448116796875, 430.8503764128794 182.1867788950549 M410.0738247345889 208.62385152386364 C414.03414546273535 202.31328921829288, 419.0416279222423 197.2515953210388, 432.2216813706343 184.44839468231515 M416.1419197986153 209.6698556964318 C424.5779993786254 202.3439333996788, 425.94564706838105 197.47004179750166, 437.979735835553 182.72463932505428 M417.473507225166 207.12652272461307 C423.33810443439324 199.87481691949728, 430.2761709332902 190.67469886613236, 437.6669119187676 185.60135217609434 M422.3043371516466 209.56697444171627 C432.0053923355871 201.60489566346322, 434.893169574639 191.6695932140231, 445.8354870051126 183.93841570888856 M424.40184910941866 207.76668805760315 C429.49461860473025 203.25133898670714, 432.2692565103255 197.7963466942335, 445.3037840383108 182.90450521812986 M430.7992899123328 211.06085408253114 C433.5103265856835 201.32415606230933, 443.37297205924915 196.2692624643615, 451.0847232893584 182.65226109372196 M431.4013648977252 207.02247395867 C437.8690886262082 200.32910832779524, 444.88040300874144 190.36698517764435, 450.7488356771422 183.82133180675774 M436.3899825644364 210.03493434514954 C444.83476083707075 197.11489453830106, 451.4399569981382 191.6276927070657, 460.7488522970528 183.27266208082767 M436.70189115392617 207.77445760525865 C444.19393900029525 201.73740616473788, 448.2001646865113 193.1726212872153, 457.84967683660244 183.97401068192306 M442.4454616007574 206.89266515173588 C446.5906944365475 201.8829738891059, 456.3412333426302 196.18455503603997, 462.367623645996 182.21361546737006 M442.5658642633997 208.84959355820538 C451.5453905883193 198.99875151177838, 458.77270117626716 189.92518091666935, 464.0302673395697 183.28734796696207 M452.1455287260677 207.66203955878603 C452.9291228696358 200.76726205789572, 457.3706362877747 198.60106689456146, 468.4040421659596 183.00116118484502 M450.47448363599585 207.04449670017794 C458.11026190048386 200.28244943048847, 465.3334311319857 191.77410290905203, 470.8770800333939 183.81206010704256 M455.92506377013905 207.4472224977961 C462.11335833729066 201.45602765762854, 466.5355565113006 194.27250226092568, 478.48869081171546 182.52501103974865 M456.75328461906446 208.09582097634433 C462.6302467433764 201.398076963677, 466.90521791002607 196.99068040392987, 478.36467370292485 182.49515260983245 M460.91834760077154 210.28017951593023 C470.30972582225894 201.08592018044808, 482.3393115805268 187.17807454907143, 483.6640535760638 182.4901774542451 M463.5977114104838 208.2506381350405 C468.093468367874 203.7280233454202, 472.0509983590193 197.4175163114033, 483.281265983541 184.95029878616782 M467.50791629773715 205.77991929468456 C472.9093087155624 199.65121313963448, 479.7927335977063 197.39587047161803, 490.53336966377645 185.67621598483046 M469.4032212326039 209.64443024643452 C475.61684630937356 201.30623355044514, 483.4178354093137 192.87925278218543, 490.5588375350922 183.0358322687166 M476.36888406580744 205.80412239055494 C481.6948549444111 200.92136347517823, 488.36786181064883 193.6507468829617, 497.5049564046251 184.9888540630007 M476.99085724527447 207.4714684431941 C483.1163050261727 202.1930969971122, 486.3657569244193 194.2140925477161, 497.69870495492836 182.62512575264662 M481.5132661477828 205.5007699757057 C490.959223274558 201.6907163650606, 492.2123420062406 196.02043287877112, 501.83653216641 183.31161973591998 M483.63282145887405 209.3551916611555 C487.3748414854251 201.71120983527192, 492.092620178334 196.12098187501095, 502.99709369092784 185.176969736294 M488.8388329984349 207.56738635663285 C494.3493835619479 199.27296417212622, 503.5814354592629 191.89046749380816, 509.7840705289029 186.96508418508444 M489.5825789082524 207.3261991579865 C497.11483035583893 200.63947561399655, 504.2674916902271 192.2706264983759, 509.87524221544044 183.5135650398267 M497.97343319753554 205.70266771483233 C503.267174466607 199.8604273150855, 511.1310630940641 187.2794539208685, 515.6461231968756 186.35849046698996 M496.50043056575953 208.39262925385495 C505.43317829027046 199.98160393316377, 510.1274872562477 191.80597619168614, 518.3049749383161 182.5909015459124 M503.71931636288485 210.0581108474684 C512.5227943884605 196.85958387749082, 518.9593051175476 188.83506787070564, 522.8081429131282 184.24138225380085 M504.47908625427357 207.71053807209702 C511.10566808192715 198.41406187608916, 518.3370796754086 189.55638489787287, 523.2342751199333 185.2691369403874 M511.8019873242547 207.09725568603716 C516.8435564911707 202.87477203570273, 521.6951109340924 194.83472437655794, 526.0671015164706 189.38168467290427 M510.7737688211446 209.5618920578807 C516.9853099499139 200.18820636311779, 523.3054406807419 193.1877229783679, 528.8931529291797 186.9094275518107 M517.7160460951955 207.5172583366243 C517.6493160341871 205.52368149962257, 522.3955957335805 199.487478764582, 529.9643387379144 196.06974935007165 M515.4323154077803 208.7732461161876 C520.132617610277 204.94777138527832, 522.1902040897347 199.4029534262858, 528.0462334143856 193.96767728794248 M523.0495846617373 207.74657243752034 C524.4337989903472 207.02592862078737, 525.4242467311242 204.88217740728993, 526.7302419207765 202.89243765004028 M523.4472487424372 208.12941190267094 C524.9744186679056 206.05250979788048, 526.3138302129149 203.79210957392058, 527.8138413709083 202.8014949659356" stroke="#aeb4ba" stroke-width="2.4" fill="none"></path><path d="M118.4496712765605 184.1875012512681 C202.50260268106575 183.52243558173987, 283.19450327395896 182.93251645194303, 526.8168169042483 184.18553451599374 M120.29340159680666 183.65583369411567 C220.57862134820456 186.24466092319508, 322.2106544576754 186.27328142503995, 527.1875263223999 183.85185939200625 M527.7124381096413 182.96665716059505 C526.1432235590419 195.39075155220928, 529.674378728052 203.80307722128927, 529.015437308078 210.4409649003297 M527.6850579991316 182.9013427471742 C526.2542668772762 189.58400433342902, 528.3460919989174 196.14591148700566, 528.095512612102 207.15596543904394 M525.8655101562244 207.6257083372615 C394.5430709323616 210.40679869767192, 259.70886236320496 210.86160668091918, 118.8866857020341 207.63211168830705 M527.479281690498 208.7618875758146 C407.63047003003584 208.9192386553301, 288.2419946123779 209.15149918265732, 119.7810831107437 208.68202462905842 M121.21423887722194 205.32484238035977 C118.12175864174962 202.51370711140336, 117.58821730807423 196.98809315897523, 120.59892981760204 182.14122546799481 M120.80793328825385 209.3477573012933 C119.28369214015454 202.63600637149065, 120.16169241743535 195.24919192697854, 118.95777274314314 185.04808426257222" stroke="#6b7075" stroke-width="1.8" fill="none"></path></g><text x="537.3333333333334" y="202" font-family="Marker Felt, Comic Sans MS, sans-serif" font-size="14" font-weight="bold" fill="#6b7075" text-anchor="start">~26s</text><g><path d="M120.19037904649092 215.78099395952 C120.19037904649092 215.78099395952, 120.19037904649092 215.78099395952, 120.19037904649092 215.78099395952 M120.19037904649092 215.78099395952 C120.19037904649092 215.78099395952, 120.19037904649092 215.78099395952, 120.19037904649092 215.78099395952 M121.17626296271038 223.613662153091 C121.80839406197288 221.69709855411176, 125.12149756019801 216.51283388610454, 126.03520824786617 216.76054209749492 M120.20761875629825 223.38917443284737 C121.99979581857106 222.23554152285587, 123.31675242964327 220.5967902547729, 126.64865086086435 215.44891413300576 M117.88293161460946 231.0463063379111 C122.50963770809003 223.64143045793455, 128.67039926812123 222.60638127364652, 133.79130298936437 216.4389775121193 M119.78370075555335 232.67350884017665 C123.26266907706746 224.9113559362041, 129.50786469142778 219.43093821971289, 133.53669277535448 215.34933704115258 M122.1049321416689 240.2638963873341 C125.13680751404125 232.7464209142858, 128.91094445746745 231.47784916832012, 140.34228422570024 218.3033072535547 M120.01872793733308 239.10074889350975 C127.76092191604057 230.97765526495527, 134.83172960002832 222.6433983015731, 141.11341085623 215.35688955566312 M125.68706314228936 239.51869387319948 C130.70605886906117 230.2262966764418, 142.70386237207424 222.12142223987493, 144.69824998162957 217.9554802727227 M125.96496553346977 239.34501854209864 C133.01563596854427 232.8922531568874, 140.15384900989238 223.27950435896582, 146.3593159560886 215.67113338562595 M131.91227328298433 242.2665639138518 C139.61266692379294 230.4471351971882, 146.97645514051695 224.15916664739473, 155.5052739345804 217.43788171596287 M131.32795742532056 241.15579862694423 C137.4609122036687 232.42201099509313, 143.01138822418986 226.520248889111, 152.26143634220216 215.7534600250369 M138.22682721219127 238.74835123585362 C147.99949863448697 233.48868374954915, 153.07496503562058 226.94029556287762, 159.29927351198072 215.44055297961506 M139.86054785116679 240.8773152222653 C146.78765771939928 231.67468053641815, 152.59698814404618 223.0932105501263, 159.5181284068423 215.38518284289216 M145.25471527036675 241.16197597621297 C148.29799180727747 236.14799427154236, 156.44622413246535 226.35732819134074, 167.71283280428702 213.59032045068733 M144.01479111630863 241.58313543772613 C150.5457316076435 235.21487216396486, 154.51885365529424 227.41125121303318, 166.58339958030933 216.3191658238559 M153.25294863493863 239.11388578126957 C156.25273355536896 231.84714620790498, 165.4159133656812 227.49437077338789, 175.3865567389273 215.94753802551935 M152.63474673801784 240.2901195173227 C158.4152595176105 232.87815300803766, 163.17419590810624 227.8632350688886, 172.815762504875 217.13906608692417 M158.91838223333505 239.50818454736321 C167.5928653310087 231.94297532739367, 170.6815057381591 226.5556052737618, 179.17589399332957 218.4952158504509 M157.4008023585662 240.810049580051 C166.6501076019721 231.09828060908208, 171.8778902659496 225.28827964431304, 178.52255794781107 214.91096262609292 M163.39453765601246 239.23576116150187 C173.2620191528728 235.69769415970913, 174.76007408179302 227.76424574924417, 186.15795990795033 215.42814906248992 M166.47399665825395 241.40125836057533 C171.44024782130046 234.1138713269218, 175.1051367549776 227.20887630961366, 185.00427771441773 215.2349850510264 M169.38295733039882 241.4710320200253 C178.13392794852746 237.6872339276995, 178.85827045234373 231.11064646793182, 194.59894968920804 214.69495072775348 M171.24487352935282 240.82787172789162 C175.6232308371042 235.7907104635371, 180.0166350617241 230.8946380383715, 192.7594778509573 215.14984652549788 M177.95002743392217 239.56106976927322 C183.5110111881513 231.42247224440837, 191.50140684344547 221.3241490030691, 198.68066617755926 214.46072848324954 M179.97780498913457 240.01143742599587 C185.2206184959378 233.1100281643127, 188.80461072025207 226.71167577768648, 198.24880641272998 216.95802040917158 M185.333800807039 240.11473204625366 C193.32983147452143 233.6661415538069, 195.74009171731709 222.48474886711693, 208.66793305043197 218.6491174753179 M184.25531409289943 240.8825538145524 C191.28820741290022 232.217142943856, 199.17207001119613 222.50924521321357, 206.0999166670076 216.73027319604353 M191.91141015616785 239.34469441708362 C202.5364608605681 230.71643777833083, 209.15893723384357 219.0384765144779, 214.11541773525417 215.2314091002982 M190.7829881369097 240.4854028073344 C199.53466963523664 232.68717069325103, 205.085444028647 225.66063936182283, 212.3517900060618 214.3572932551097 M195.7255958217652 238.73012701877107 C204.98639305072356 233.77822523427565, 210.09149715403916 229.51578522946295, 219.87445432248236 216.11567974519858 M198.55350642646565 239.20292651400618 C204.07833826885417 235.90245925192207, 206.6835931079939 230.86256818566324, 218.49905886019292 215.20131957103442 M207.05211898125899 238.15872749765586 C211.7971956691145 236.1454643552294, 217.64573762132486 225.81989533062202, 226.40439773954452 217.44353330635874 M205.45155347883892 240.4613601785637 C209.84144636599723 235.8977610624472, 216.2201561133069 228.2219391213661, 226.24086087167265 216.55538426281362 M211.60658456207727 242.2158497500776 C216.18822420263453 230.07381818652559, 225.9714003536433 224.46886710357802, 232.17944666386867 217.07922993011837 M211.09814193630135 241.18186092000292 C218.0100575230887 231.45152642669552, 227.20622060905217 224.03388506191982, 231.92516180777275 214.8949413244433 M217.75126415467653 238.47363266304438 C223.66725174781126 231.4063653484164, 231.8596150658394 226.82908444147225, 241.6954664359113 215.29881475348554 M216.89493547915313 239.03213647298816 C222.45497210290597 235.1105421184651, 226.71274644168147 228.46299638161963, 240.5930784737935 215.9294953655877 M225.6064501864848 241.7877426328959 C231.35762265699185 232.0851435379904, 236.69036907812338 222.61541690470904, 245.7813432331004 214.28686042279998 M223.57310299966608 241.2856877065154 C230.44129537433162 231.53233275710943, 238.95554016649206 224.3916091548774, 246.72773288700662 215.46184413024287 M229.45727883493004 238.98650230597195 C237.62818876572905 229.64874330595063, 247.88031507681347 221.5171494287088, 252.005806982864 213.22559583440142 M231.2376415151119 241.27343736458062 C238.05789923575455 232.24776195400858, 245.21478963166666 226.24998890898462, 253.89857518968387 215.03970723740474 M236.96055294046874 239.96001931928052 C244.28971685533452 234.22086262743787, 244.9019389680885 231.2354380794097, 259.08425427565857 214.5840348752979 M239.41169908079084 239.63535880684807 C242.94501709556582 233.0265341448976, 248.8368429314179 229.05757798819857, 258.0057065621255 215.20735492173768 M243.85609618052897 237.95692881916136 C254.01592150443625 232.6532097029214, 259.51390876167596 223.54355959115352, 265.19010253891213 218.01471894182913 M244.58542896397466 239.17971852731378 C250.86968621641142 232.0967029472039, 255.69361253857596 226.15937995024268, 264.4287333966033 215.96485055223755 M253.17357598253867 238.27352220195422 C257.7783096188563 231.494332486306, 259.828457207616 226.14577258687675, 270.36161295005274 215.4428456803349 M251.46031255693518 240.93470489497375 C256.0716563679501 233.83596441618414, 260.61122353122045 230.00398754818136, 271.271090210389 215.61967937290044 M255.23932643695431 242.14287585466712 C260.68279559499166 235.8344837675503, 265.95364634839007 227.34910545744648, 278.9087133495367 214.15539772782316 M258.99348228997246 240.2000568944922 C264.51720935239024 231.56092817403095, 272.5004616197874 222.66888201813535, 277.8043625587827 215.23837724339057 M263.987702471204 240.63159367363977 C268.979185822183 236.58004235173794, 277.0292790558721 227.2771026656877, 285.32435241479226 213.89788523063368 M263.5465758053585 241.00630664486513 C269.00327042270703 233.41850658081486, 274.5497352114647 228.58926354309037, 284.81714120905644 216.30577315770392 M268.9679027627156 237.7289358052119 C278.1087937762419 234.53313663245441, 283.29116344375075 225.64764293730877, 293.4913225732472 213.1634745851062 M270.1300588703648 240.96640814008856 C279.16853678913196 232.93981838005962, 284.107943560408 225.12741780337794, 291.8593450534817 216.77661798483652 M276.9507926519458 239.83594738639155 C278.5012017746213 236.63864742995423, 286.26328065553747 231.98611103108755, 290.7845516544437 222.2745034002537 M278.4475482902918 241.32736598982672 C280.4106792095878 234.7854120534133, 285.48507079785537 232.80372265296748, 294.1820127614444 222.31959943145756 M285.7998087558515 239.16146757371453 C287.9295256178266 237.19498202456688, 286.9137765715381 235.04685598596055, 291.12470411367553 231.56401134732582 M283.59267380380925 241.35019754217666 C287.4165400834702 238.8676766781695, 289.33201432098866 236.31148637107347, 292.1021090417898 230.19729635102146 M291.26089882080646 239.8090635888124 C291.45427529801833 239.74751766069608, 291.94857515429686 238.8406039526328, 293.4942487576716 237.78357206065894 M291.27189872666463 239.9055192694472 C291.8492601046593 239.17613129123575, 292.338096376494 238.52602608263885, 293.23824652026593 237.5395702535914" stroke="#2ea44f" stroke-width="2.4" fill="none"></path><path d="M121.20371418967844 214.88764996752144 C153.0352931631729 216.73227492677296, 191.31561252363025 217.2175188432845, 293.09061791275934 214.08393347486853 M121.02110065333545 217.14963715560734 C167.42061095293613 216.0610464223561, 214.2318289399147 215.31512990080688, 292.65780530882375 215.38672889955342 M292.0638240513702 215.31745035871865 C290.06255166502797 226.73316829279065, 294.5618570801814 237.14608089849352, 293.1622041640182 238.4238679908216 M291.701806792741 215.1823590684682 C292.7628827603211 223.42133787311613, 293.4876519353737 230.06714536733926, 292.2651401968052 241.04910665042698 M293.95962294911345 241.82604332193733 C233.85094401258976 244.2972735315847, 174.83949179115393 244.35671330991264, 117.76286324039101 241.57147691473364 M292.6757951231052 239.77305408008397 C244.48359350928413 239.9629560730023, 199.9612782937785 240.0018532416386, 119.51965131871403 239.88880564458668 M117.40539310947061 239.73078725561498 C122.1069852437377 233.09055030718446, 119.1480371798873 227.87324045225978, 118.6274502851069 215.25271239504218 M119.71307296864688 241.34526955373585 C119.7269155754 235.9901019129902, 118.51339205636084 229.12772487588228, 120.97480954043567 217.03132637031376" stroke="#1a7f37" stroke-width="1.8" fill="none"></path></g><text x="302.3333333333333" y="234" font-family="Marker Felt, Comic Sans MS, sans-serif" font-size="14" font-weight="bold" fill="#1a7f37" text-anchor="start">~11s</text><text x="744" y="214" font-family="Marker Felt, Comic Sans MS, sans-serif" font-size="26" font-weight="bold" fill="#1a7f37" text-anchor="end">−57%</text><g><path d="M119.96740146134442 250.03750032899097 C119.96740146134442 250.03750032899097, 119.96740146134442 250.03750032899097, 119.96740146134442 250.03750032899097 M119.96740146134442 250.03750032899097 C119.96740146134442 250.03750032899097, 119.96740146134442 250.03750032899097, 119.96740146134442 250.03750032899097 M119.01753277249104 258.5172745237957 C122.2348661489567 256.3201070828067, 126.45305430357918 251.26290180010122, 128.11027294049234 249.37711781564715 M120.05942314890648 259.4859553886728 C122.56577336139233 256.60883705614214, 124.91967081812278 254.57890707890977, 127.55561817420728 249.96803960173781 M125.35578475632151 263.2052649021286 C129.11528860036023 259.6610452840085, 130.42378519349248 255.24041412819662, 136.13338886464533 251.33900558538394 M125.03392648946866 262.64667369199344 C128.2671921077665 259.13632539397383, 132.6128743159375 254.0328884792197, 135.78680930108416 250.9691877894455 M133.07987757449067 261.8963868984144 C133.95568663104402 260.8074825693784, 134.82411130572274 259.81128930875127, 136.80224549623145 258.2460944280297 M133.59382452246936 261.82702299849075 C134.58284579521649 260.74789906943664, 135.6489542937969 259.5686006163475, 136.95650598905166 258.1158887909066" stroke="#aeb4ba" stroke-width="0.7" fill="none"></path><path d="M119.44732627919515 250.14105913432041 C123.28998790828837 248.85670116050085, 128.3990400150237 249.18115140619884, 137.2371509659123 248.65484454856013 M119.35899104006543 249.3037534239146 C123.92509131969005 249.61762591938765, 128.91478667016148 250.35349536081588, 136.7739410187975 250.03187155240494 M136.30458762118982 249.697689373304 C135.6598859809923 253.61609283523902, 136.76632850036123 258.91555323665403, 136.96721971754968 262.5126127501908 M136.27164296095322 249.69350147677707 C135.756362708643 254.1633000278956, 136.0457739457943 257.4556330624319, 136.23479082444155 262.13589304176924 M134.89435611744037 261.3686770166351 C130.58933679578757 262.9242605975565, 127.00511472127923 261.9246325477279, 119.85968112698636 261.81963709525587 M135.48458907859106 262.65867500646675 C130.81725854096564 262.6348778991312, 125.96612486476023 262.64789390389694, 119.37725855963161 261.46440714360614 M120.09433166010287 261.8790001562111 C121.15286913419122 256.9490333431822, 120.40944321467897 252.2866236736221, 119.06268423512095 249.52580177385303 M120.08421617307044 261.9073547671067 C119.74490953404633 258.7894604858802, 120.08721598581977 253.95603648101797, 119.48001287040361 250.53974441677587" stroke="#6b7075" stroke-width="1.4" fill="none"></path></g><text x="142" y="261" font-family="Marker Felt, Comic Sans MS, sans-serif" font-size="12" font-weight="normal" fill="#57606a" text-anchor="start">without Marrow</text><g><path d="M269.69916887441906 250.3460666227771 C269.69916887441906 250.3460666227771, 269.69916887441906 250.3460666227771, 269.69916887441906 250.3460666227771 M269.69916887441906 250.3460666227771 C269.69916887441906 250.3460666227771, 269.69916887441906 250.3460666227771, 269.69916887441906 250.3460666227771 M271.3123782886392 257.6799020905372 C272.2958752218345 254.94694888303866, 276.917181914476 251.16342733747584, 278.56558668713717 249.6347393477869 M269.9266818313658 259.37906291775005 C273.54740122083183 255.1031371239992, 275.39475097305785 252.75944383090433, 278.5851770642615 249.6068433812711 M277.0711602276578 260.98732988393124 C279.478946333572 257.71809903744656, 283.8426425415996 252.99696914862923, 285.8589366964557 251.08471591909625 M275.01573830302897 262.45859609560176 C277.1220933445167 258.5446583245104, 279.7869602832454 257.26573975390625, 286.51817094403964 250.08246176749864 M283.2978304084841 262.38993346666473 C284.0168301296474 261.1112084542212, 285.9543021917244 259.14316357665797, 286.1161428066553 258.06428487827094 M283.2476636239017 262.13467729473933 C284.24024873426345 260.8546972359304, 285.6885285430419 259.82595108094876, 286.75690012904647 258.37186147805556" stroke="#2ea44f" stroke-width="0.7" fill="none"></path><path d="M268.45090991946637 249.15284594974742 C274.5480650631902 248.70489369475533, 278.4658573471818 250.5116293809196, 284.6599886103892 251.21609014195747 M269.42389578654183 250.54674633885432 C273.0497727671781 249.84685284617575, 276.81499820473164 250.7578945279285, 286.523116206432 250.26126546873178 M286.56669946872375 249.9776459722578 C285.2130799618576 253.6621643255513, 286.5718164932316 256.00234902805556, 285.01176250141305 261.33853390571375 M285.40631250239755 250.10039459873977 C286.3245250875442 253.41584808815975, 285.98485923528824 256.1394394460038, 285.6109648183401 261.98204351591073 M285.26332400485126 260.93223847171424 C280.73364636199096 262.8686774150999, 278.00169138407034 261.96845918630487, 270.2922400705799 262.0588743483093 M285.86727716560307 261.24654635960013 C283.11484902466316 261.3497442197722, 279.93855496636894 261.4864134367774, 269.8141398532984 261.78110372402443 M270.78411822255225 262.6996735630215 C269.29128437810544 257.47859412605555, 269.3386225824572 254.1672332570359, 270.0420664715114 250.50271363189913 M269.4076043118335 262.32226164749665 C270.3217233123596 258.2074740137353, 269.8303698429231 254.40936799092253, 269.642876001083 249.68419116225428" stroke="#1a7f37" stroke-width="1.4" fill="none"></path></g><text x="292" y="261" font-family="Marker Felt, Comic Sans MS, sans-serif" font-size="12" font-weight="normal" fill="#57606a" text-anchor="start">with Marrow</text><text x="28" y="300" font-family="Marker Felt, Comic Sans MS, sans-serif" font-size="13" font-weight="normal" fill="#57606a" text-anchor="start">Engine accuracy · reproducible offline (cargo run -p marrow-bench)</text><text x="28" y="330" font-family="Marker Felt, Comic Sans MS, sans-serif" font-size="13" font-weight="normal" fill="#24292f" text-anchor="start">Stale-knowledge recall  (~1% false positive)</text><g><path d="M301.02156189053886 313.05735258014107 L679.9396109074604 313.80436220153274 L679.6374845170286 335.3579418152823 L300.1009529207762 334.66218826813014" stroke="none" stroke-width="0" fill="#f0f3f6"></path><path d="M299.40626000779105 314.7391047541848 C399.4835933618662 313.82329202118837, 497.6489242212394 313.8885480404399, 680.0217573407023 314.2997488446914 M299.54558343482256 313.8421532213397 C429.92969132000474 314.0902338941725, 560.6672721103299 314.305647780521, 680.0091059710171 314.01287718738274 M679.3627612261612 313.69170772435723 C681.631668933247 319.89999220574, 678.8055863382685 327.1153199182677, 678.62819341093 334.0289599434454 M679.885972078868 313.44373601908967 C680.5226457427132 319.4198025086078, 679.5827173696748 326.81608895229857, 679.6934970291859 334.36801855900836 M680.4226594797208 333.59412511313167 C552.6900416035103 333.6141537629705, 427.2879093981193 333.8001306581067, 300.19639070613425 333.2745204729694 M680.3477645146498 333.6160209128464 C555.796465656326 333.2380138855006, 432.4803195513782 332.45302447062335, 299.74327878810647 334.46916006853746 M300.2603782867531 334.9811249873269 C301.160709834403 329.4071607358393, 301.49839361440104 325.2434493321151, 298.78778479655955 313.0272424121972 M299.9928875379221 334.71052497138936 C299.60585389177544 330.1130595485578, 300.2965707526382 324.4012368737011, 299.78972411036 314.37614341318255" stroke="#d0d7de" stroke-width="1.2" fill="none"></path></g><g><path d="M298.0684569261968 311.68428444638846 L672.8945116184651 314.1703349329531 L672.2375485800206 335.5075061775744 L300.83069769367575 333.4083714224398" stroke="none" stroke-width="0" fill="#2ea44f"></path><path d="M298.95254644699406 315.3823793291587 C373.12603792450966 313.2698870823776, 448.0611870661145 312.02498179578237, 671.9578608192174 314.1193873564454 M299.92013980176927 314.1489079091588 C397.2576532199378 315.1186564387531, 495.5681054704441 315.36871395558194, 672.4061730676759 313.51281608959357 M671.9653978802263 316.12107640728357 C670.0040459632128 318.61703253798186, 671.7291810750216 329.0654445707798, 671.3283764578401 335.2599964044988 M671.4736108016223 313.0670051086694 C671.745666078478 319.6089949697256, 671.4210366405547 327.8267649363726, 673.1358186792583 335.10346647389235 M672.8681746378018 335.01696149119766 C565.9089643198788 334.36767487526487, 459.3606222357051 336.6839099181766, 300.68379495440473 333.6256456701302 M672.954132155687 333.6650017922879 C577.5424798560467 332.894348717895, 484.2447518612579 332.5889742128092, 299.3438432842467 333.4833240164163 M301.99352674260734 333.1293923996389 C298.781057157889 328.9224556867033, 301.53453547038134 324.2523010477424, 298.01497242227197 312.3337954901159 M300.9079972218722 335.1338969934732 C300.1645285329223 328.1383982785046, 299.7897533735633 323.03159470818935, 299.59554918520155 314.7547188628465" stroke="#1a7f37" stroke-width="1.6" fill="none"></path></g><text x="692" y="330" font-family="Marker Felt, Comic Sans MS, sans-serif" font-size="14" font-weight="bold" fill="#1a7f37" text-anchor="start">98%</text><text x="28" y="364" font-family="Marker Felt, Comic Sans MS, sans-serif" font-size="13" font-weight="normal" fill="#24292f" text-anchor="start">Consolidation precision  (0 false merges)</text><g><path d="M298.8109189997775 349.19452407436296 L680.1214822633647 347.035188443823 L679.8187074722442 368.24604298298607 L301.33457108748627 368.63810226082916" stroke="none" stroke-width="0" fill="#f0f3f6"></path><path d="M299.243252123001 347.0486929110095 C420.22686576870836 346.97148808652923, 540.2441621535426 346.93765573041765, 680.4124118656941 347.663173240439 M300.0095643988419 348.14653723282413 C422.4307895524102 347.4021458147652, 544.82498487732 347.1168784719555, 679.8824199813143 347.6263495209354 M680.7960820839469 347.82604118308745 C679.7047879903313 353.410483950112, 681.4755983256388 362.25096887167746, 679.7633949977532 369.1579322879262 M679.9757994770735 347.8232908973815 C679.4437474073578 354.5091950527525, 680.0996159130741 361.11913413844064, 680.2021819781528 368.5661704169688 M679.535190648963 368.54594438858544 C528.6423170276304 368.4491058768209, 375.56258943042496 367.7656736261474, 300.20267072182173 367.93816446831124 M680.10683179292 368.0694182099149 C563.2506351540737 366.40471039603057, 446.38483751628553 367.2858014818505, 299.9007609038024 367.53587290781667 M300.7544005748729 368.29852816357675 C301.2809467259274 363.4185749489012, 299.3972519574367 358.22439540140584, 300.3815106719746 347.9592565301411 M299.372477923686 367.35253333367905 C299.81236526075435 359.61093574154035, 300.27748793312526 352.44095945390325, 299.8982657742597 348.4988956164691" stroke="#d0d7de" stroke-width="1.2" fill="none"></path></g><g><path d="M298.54808456897734 347.3902291059494 L679.349173283577 347.94357154369357 L677.7419856309891 369.7883934736252 L299.5413653612137 366.8473511457443" stroke="none" stroke-width="0" fill="#2ea44f"></path><path d="M301.0312638895762 348.6078537325895 C375.8875521672976 348.8484191764094, 452.1640785272944 348.4259874935557, 680.4355428157007 346.9594966918409 M300.17473086167513 347.61638392083944 C406.9640477262229 345.07830093024944, 515.1085031179923 346.3529376673672, 680.3081507574385 347.3449323157865 M679.0094429731369 345.6217562913895 C681.4519184136391 356.8433884263039, 679.2068965935707 364.19658794403074, 678.1970337629318 365.8167704820633 M680.6308240532875 347.3078762412071 C680.6716553068161 355.1447690010071, 679.1752636289597 363.3953702569008, 680.0240708947182 368.3261589407921 M679.776567736088 367.4023887056577 C564.6838166058124 369.6680954370011, 450.935372385937 368.6653703190888, 300.5519140377009 368.78275385973336 M680.5834033152503 368.28839044614614 C593.0383770359152 369.4113924564047, 506.1440167447394 370.3567744071455, 299.3134587224883 368.2440732319623 M298.7288017988205 369.19163086414335 C297.9598009371757 361.7522123217583, 298.6343591952324 352.59592366218567, 301.1251328229904 347.2864985704422 M299.969545519352 369.13176463842393 C300.0459649372101 363.27834661006926, 300.2784550952911 358.60035582780836, 298.92443786859513 348.7403549551964" stroke="#1a7f37" stroke-width="1.6" fill="none"></path></g><text x="692" y="364" font-family="Marker Felt, Comic Sans MS, sans-serif" font-size="14" font-weight="bold" fill="#1a7f37" text-anchor="start">100%</text><text x="28" y="398" font-family="Marker Felt, Comic Sans MS, sans-serif" font-size="13" font-weight="normal" fill="#24292f" text-anchor="start">Retrieval payload, under token budget</text><g><path d="M299.2652696449486 380.9596318137791 L678.5097653884103 380.8030895296362 L681.0963600148323 403.42723809131184 L300.82446513835885 400.6209606684134" stroke="none" stroke-width="0" fill="#f0f3f6"></path><path d="M299.07578562589555 381.74133516491025 C417.26548984937483 380.897896078464, 534.7565755576568 380.5790788439479, 679.9229543982296 381.71774883299935 M300.25052513267894 382.000266097516 C402.47539017581335 383.4938845673768, 504.27550929994453 383.6262998621414, 679.9239600207728 381.6374153281207 M679.713277128054 382.0336789385934 C681.6449217196038 389.5707231620368, 680.1491292459418 395.26891800376643, 680.6346882314557 400.939080701985 M680.4349976217642 381.706812786767 C679.7645408620821 388.4323576014932, 680.1227829625107 394.4395153124476, 679.4746189866021 401.825868140342 M680.0188451690677 401.9436585646657 C542.370809736541 400.54837588805583, 404.0252948492314 399.92066586205175, 299.4346310169322 401.5112611329876 M679.5758254967265 401.8460359697134 C597.9016186014302 403.7726208669443, 516.1762085052608 404.2700256814643, 299.5682657998058 401.5376121916987 M298.6221892826468 400.624010558909 C298.5245997805065 394.69355021390476, 298.46884388029144 389.44135795820097, 300.5200647141047 381.96133579665866 M299.4667614928672 401.35957796702587 C299.92476800037093 394.89811050147273, 299.96932977822746 388.02014664344915, 299.80803404951286 381.7074885726992" stroke="#d0d7de" stroke-width="1.2" fill="none"></path></g><g><path d="M299.0277122117579 383.09617376551034 L609.8038349486886 381.716808154434 L612.0464226819574 404.06928076967597 L298.2520330287516 400.2863308690488" stroke="none" stroke-width="0" fill="#2ea44f"></path><path d="M300.248195414907 381.83567207930236 C363.60690866919384 378.7802408283352, 426.03121910091784 379.2256692392725, 613.1518983850356 382.81140447038587 M300.5089412587116 382.62693101191866 C395.3472658636138 382.07163645392814, 490.5635164861729 381.38692429251836, 612.3262236912531 382.72217577931906 M610.0534880660473 379.92243617549536 C612.0997908640652 390.2697443146259, 610.6846121121198 399.32773131728175, 613.8656910680234 401.17354455962777 M611.3880373049526 381.54874737374485 C611.677644535154 386.68054303228854, 611.4094906173646 393.36397557742896, 610.912323110178 401.5488514076918 M610.5225955575039 402.81946084870145 C511.05309998153217 405.11993714810353, 414.30430274777507 403.4609978524539, 300.51667887058704 400.87228037889884 M612.3427373952188 401.3633001017946 C546.9151687591791 402.00995774918323, 483.99961200356387 401.18891236155616, 300.84419157370615 401.4695539541059 M300.26407685503364 400.45386932864784 C301.93854471646245 398.5819689568132, 300.53418292008337 393.73954627662897, 299.43529322370887 382.2392016507685 M299.0310938168317 403.1296322833747 C300.4074013414979 398.4182949416339, 298.84715681701897 394.16911694742737, 300.6533265519887 382.72599104754624" stroke="#1a7f37" stroke-width="1.6" fill="none"></path></g><text x="692" y="398" font-family="Marker Felt, Comic Sans MS, sans-serif" font-size="14" font-weight="bold" fill="#1a7f37" text-anchor="start">−82%</text></svg>
