<?xml version="1.0" encoding="UTF-8"?>
<svg xmlns="http://www.w3.org/2000/svg" width="760" height="332" viewBox="0 0 760 332"><g><path d="M6.402537375595191 5.41802186406079 L753.8755210699361 7.6262297476612675 L752.8181970959904 324.4404875892753 L7.056162977511402 324.94567782367835" stroke="none" stroke-width="0" fill="#ffffff"></path><path d="M5.409751153141556 5.421470626946784 C275.7188147778464 4.68317949826411, 546.90101002589 4.960496655899421, 754.2939347472999 6.822896364745267 M5.852625344128469 5.905611619255616 C261.90626186826 4.143366026446791, 518.5228194645115 3.608784359924898, 754.2441713303355 6.074310866628766 M753.3665539490486 7.452701722585562 C754.3121559141769 107.54668071461242, 753.4527327279003 209.37698410434567, 752.7843030129507 324.7249008030514 M754.0602916684334 6.040144204288681 C752.9091188124221 96.88192506270263, 753.1395684878283 188.46545919527244, 753.5497776938408 325.9363881884733 M754.8436206575242 325.7239500395443 C499.3947055251657 324.43938573137666, 244.68282789599962 324.6861341141744, 5.669604110369976 326.29721451442134 M754.2430126446566 325.70620984278435 C505.36656480748564 324.6827623415381, 255.7497295792518 324.3898574364495, 5.757668055370836 326.2432136641914 M6.157443289345393 326.5866595968943 C8.954962284288214 226.9288990974578, 7.394866382530156 126.64163232745896, 6.344793692960844 6.944587315319127 M6.117339298035643 325.4730099761751 C4.180433533914895 245.79722187994076, 3.5367110875812875 164.70549738560254, 6.403145290017885 5.864031449085732" stroke="#d0d7de" stroke-width="1.5" fill="none"></path></g><text x="28" y="44" font-family="Marker Felt, Comic Sans MS, sans-serif" font-size="24" font-weight="bold" fill="#24292f" text-anchor="start">Benchmarks — measured, not asserted</text><text x="28" y="80" font-family="Marker Felt, Comic Sans MS, sans-serif" font-size="13" font-weight="normal" fill="#57606a" text-anchor="start">Efficiency · same task with vs without Marrow · 5-run A/B</text><g><path d="M25.594880088232458 92.45673906896263 L239.25159789528698 89.88200339768082 L238.18600945081562 186.86220032069832 L25.271680428646505 187.285971195437" stroke="none" stroke-width="0" fill="#f6fef9"></path><path d="M29.887406063074312 88.15566426014986 C71.04763820363836 90.2794962994451, 115.2478954631092 90.50824697112263, 239.0370357904503 90.41669842570737 M29.141340224584194 91.20193410372266 C78.89342818887067 88.74017903683192, 128.83960083267164 88.38854370558157, 239.49298126232415 90.3708748488693 M241.35562002751976 91.13434840645641 C241.72352052048595 129.98169469144196, 241.13386270717533 168.29182383622975, 238.94403794500977 183.65564356651157 M238.91168221039698 88.81197807239369 C240.06513211013004 124.63397741960361, 238.9534013110511 158.10249213622882, 240.7134679625742 185.8120214198716 M239.44669674444273 188.18078059527275 C160.17363202161562 191.4383776206805, 84.05773229833493 188.8264811516041, 28.26534149099214 185.4208572815372 M239.50146190877888 186.55299386473996 C167.6959749831129 184.70252125674006, 98.94048169761818 183.40089931826049, 28.433536309692112 186.60756074796456 M28.11003202293068 187.3557788869366 C30.831887051261962 150.7110766282305, 26.246736302770675 120.8286567410454, 25.764705509878695 88.09966735448688 M28.596289090346545 187.47068011807278 C25.873860842119903 167.8728342597373, 25.223758956920356 147.4675547962077, 29.272219396661967 91.30249626981094" stroke="#1a7f37" stroke-width="2" fill="none"></path></g><text x="134" y="136" font-family="Marker Felt, Comic Sans MS, sans-serif" font-size="38" font-weight="bold" fill="#1a7f37" text-anchor="middle">72%</text><text x="134" y="160" font-family="Marker Felt, Comic Sans MS, sans-serif" font-size="14" font-weight="normal" fill="#24292f" text-anchor="middle">fewer tokens</text><text x="134" y="178" font-family="Marker Felt, Comic Sans MS, sans-serif" font-size="11.5" font-weight="normal" fill="#57606a" text-anchor="middle">134k → 38k</text><g><path d="M272.19441464170814 88.58916989341378 L483.8199249766767 89.59854916110635 L487.56655576452613 187.2133094407618 L275.6600150130689 186.58469584956765" stroke="none" stroke-width="0" fill="#f6fef9"></path><path d="M274.3790411233538 92.06786941107258 C313.9866122585146 91.85237651808558, 357.87054432339187 93.54187754173378, 486.629440898673 88.29464784622621 M272.96516993591 90.23123471315199 C328.68012982422255 90.40255412643482, 382.68687867200543 89.29897452870716, 486.04686983162634 90.04460203513015 M486.6606763936579 91.51019826158881 C483.84602238598467 111.30730329975486, 484.2936684078276 127.79108054861427, 484.0298595763743 185.35161116346717 M486.8581987749785 89.11306698806584 C487.2001441201419 112.2097935486585, 487.6237105211467 131.3754459667951, 485.82378323189914 184.8403870034963 M484.1964340848466 185.25913123120665 C401.5712725690353 188.50760301543326, 323.8302458890927 190.45811086734992, 274.0494709719914 187.52814019804057 M485.57613650048603 185.04331496153452 C420.0064767633959 187.4731180454619, 354.8841731428562 188.4530915671205, 274.3529524651187 185.34283494323404 M276.0291258431971 183.9335769675672 C276.1969676922858 162.28481086716056, 275.01316687574985 139.83126189932227, 275.65240601077676 89.29054620489478 M273.42322446219623 187.4680146742612 C272.87512091867626 149.67036464698612, 272.98410068027675 116.17369614131748, 274.43333025090396 91.2845413852483" stroke="#1a7f37" stroke-width="2" fill="none"></path></g><text x="380" y="136" font-family="Marker Felt, Comic Sans MS, sans-serif" font-size="38" font-weight="bold" fill="#1a7f37" text-anchor="middle">57%</text><text x="380" y="160" font-family="Marker Felt, Comic Sans MS, sans-serif" font-size="14" font-weight="normal" fill="#24292f" text-anchor="middle">faster</text><text x="380" y="178" font-family="Marker Felt, Comic Sans MS, sans-serif" font-size="11.5" font-weight="normal" fill="#57606a" text-anchor="middle">26s → 11s</text><g><path d="M518.7939491951838 90.72160071786493 L734.3882520580664 89.31509492453188 L730.9471020782366 187.5644185608253 L520.0483495974913 185.8834205036983" stroke="none" stroke-width="0" fill="#f6fef9"></path><path d="M518.8706761836332 90.7002401619953 C562.2054207133907 86.70930737992603, 605.7730275836745 89.85955875554492, 734.2218460068958 91.45243166674506 M519.4289168472359 89.26053532258133 C578.4668314595745 92.06492921603773, 636.5341565113391 90.20940535183277, 732.6007584009285 89.718329221391 M731.9657327597961 91.88604811672121 C729.4245242514834 111.83291190806776, 730.9094741084799 131.69033726099877, 729.1156812077388 187.04757876042277 M731.8047153395601 89.41415590373799 C730.8791561301537 118.98560967771337, 732.8380197312422 146.04839979736136, 730.9340985012241 186.86875258712098 M734.2260058252505 187.61731626714055 C690.6487475164548 190.85666281018604, 643.1229250798503 186.80990618309573, 519.8336004529907 184.35558871454396 M731.6508110921932 186.17355325832906 C672.3169785436789 183.52776547738372, 610.8278645880943 184.14941725918058, 520.2723686205452 186.71802633850356 M517.9482196634635 186.5113750481978 C521.5620483333096 154.6585451060906, 523.779597448729 120.43386705759912, 519.5401065116748 90.48142505530268 M521.2501598340459 187.46534923044965 C519.8763809952326 153.66789503423496, 520.7444424036331 123.27983748642727, 519.594441105146 91.26658650068566" stroke="#1a7f37" stroke-width="2" fill="none"></path></g><text x="626" y="136" font-family="Marker Felt, Comic Sans MS, sans-serif" font-size="38" font-weight="bold" fill="#1a7f37" text-anchor="middle">25%</text><text x="626" y="160" font-family="Marker Felt, Comic Sans MS, sans-serif" font-size="14" font-weight="normal" fill="#24292f" text-anchor="middle">cheaper</text><text x="626" y="178" font-family="Marker Felt, Comic Sans MS, sans-serif" font-size="11.5" font-weight="normal" fill="#57606a" text-anchor="middle">per query</text><text x="28" y="222" font-family="Marker Felt, Comic Sans MS, sans-serif" font-size="13" font-weight="normal" fill="#57606a" text-anchor="start">Engine · reproducible offline with  cargo run -p marrow-bench</text><g><path d="M25.590225622989237 231.78104731347412 L242.93486870918423 229.0474610319361 L241.99147258792073 326.37329152133316 L27.1550262728706 328.2732177367434" stroke="none" stroke-width="0" fill="#f6fef9"></path><path d="M25.363425465869142 232.31887496937702 C72.11638515240051 231.70416985864972, 113.15339046593574 230.7009208500341, 239.12158367267782 232.31553023089586 M28.498974937842554 231.41469179801598 C79.64027894238944 233.93203121926092, 133.07204802600947 233.98070482323755, 239.7520325553461 231.74806391147777 M240.40618368890136 230.89284695778042 C239.14053917547315 270.037780774571, 242.92391971369833 304.88439096007494, 241.802254258655 330.61531953606755 M240.3768478562124 230.82286722911522 C239.67925221024825 254.59213871015237, 241.92049341200664 278.2320304418914, 240.8166206558235 327.0956772561185 M237.50373894848158 327.36345895461164 C172.38954069581163 330.5298035682082, 101.30303380591216 331.3032751090623, 26.10663630098499 327.374348846571 M240.24820782585056 329.2957080326854 C177.8413239859428 328.74849395995824, 116.21731334999836 329.1434890228609, 27.62769786395767 329.15988870065956 M29.300970225594938 325.1337596932426 C27.02669346150011 306.44841901753097, 26.455042032562197 284.85470832381395, 28.641710518859327 230.00845585856587 M28.865642808843404 329.4440256799571 C25.974461607683452 305.4481381322257, 26.915176190484317 280.7289682473056, 26.883327939081937 233.12294742418453" stroke="#1a7f37" stroke-width="2" fill="none"></path></g><text x="134" y="278" font-family="Marker Felt, Comic Sans MS, sans-serif" font-size="38" font-weight="bold" fill="#1a7f37" text-anchor="middle">98%</text><text x="134" y="302" font-family="Marker Felt, Comic Sans MS, sans-serif" font-size="14" font-weight="normal" fill="#24292f" text-anchor="middle">stale-knowledge recall</text><text x="134" y="320" font-family="Marker Felt, Comic Sans MS, sans-serif" font-size="11.5" font-weight="normal" fill="#57606a" text-anchor="middle">~1% false positive</text><g><path d="M272.1897601764649 233.91347813792527 L487.50319579057395 234.76400679536164 L485.37201890163124 326.72440064139664 L271.543360857293 327.571942390874" stroke="none" stroke-width="0" fill="#f6fef9"></path><path d="M275.1348949261486 230.95124572029974 C315.0553592072767 233.2770500772902, 361.0558737262184 233.73455142064526, 486.7139887809006 230.19347965141472 M274.9627218491684 233.08390960744532 C332.0668977777413 231.5183741520638, 389.55924306534325 230.8151034895631, 486.3059211246483 231.42179109773863 M485.7112400550395 231.26869681291282 C484.7190410409719 270.5633893828839, 489.53972541435064 308.7836476724595, 486.88807589001954 326.31128713302314 M485.32336442079395 231.12395614478737 C486.3582642202601 261.36795483920724, 487.1348026221022 289.9049842724577, 485.9269359251484 329.1240428397432 M487.5333106888855 329.72164399054554 C413.78718124323126 332.878863362961, 341.0755473966699 332.9349048248082, 271.89076578198427 329.4816317630744 M486.32288241755776 327.78602912947997 C427.5119085662258 327.4430585918801, 372.1610047952364 327.47973191492093, 273.54711401938425 327.8951628959291 M271.22006404586136 327.7115577738732 C274.9357741025239 298.82215325646104, 271.76547260554133 271.45731348209085, 272.5294110197574 231.19933470897377 M273.6925781806931 329.44136023614556 C272.97572168423983 309.44566851947457, 271.67551791384074 287.8351095924154, 275.04443879332393 233.1049925396219" stroke="#1a7f37" stroke-width="2" fill="none"></path></g><text x="380" y="278" font-family="Marker Felt, Comic Sans MS, sans-serif" font-size="38" font-weight="bold" fill="#1a7f37" text-anchor="middle">100%</text><text x="380" y="302" font-family="Marker Felt, Comic Sans MS, sans-serif" font-size="14" font-weight="normal" fill="#24292f" text-anchor="middle">consolidation precision</text><text x="380" y="320" font-family="Marker Felt, Comic Sans MS, sans-serif" font-size="11.5" font-weight="normal" fill="#57606a" text-anchor="middle">0 false merges</text><g><path d="M518.7892947299406 230.04590896237642 L732.0715228719637 234.48055255878717 L734.7525652153417 327.0755097614601 L521.9316954417154 326.87066704500467" stroke="none" stroke-width="0" fill="#f6fef9"></path><path d="M519.6265299864281 229.58361647122246 C563.2741676621529 228.13398093913068, 603.6785225865011 230.0522326344564, 734.3063938891233 233.35126347193358 M518.7865515604942 232.11321021687465 C581.8535994130932 233.18074924166675, 643.4065209046771 231.72553431268872, 732.8598096939505 231.09551828399947 M731.0162964211777 231.64454666804522 C732.8415429064706 251.88899799119682, 732.699531115003 268.282904384844, 731.9738975213841 328.00725472997874 M733.2698809853755 231.42504506045952 C730.0372762302719 268.1437709682621, 729.3491118321978 304.57793810302394, 731.0372511944734 328.1524084233679 M732.2830480292894 326.7999946264794 C655.1848217906509 329.9480887577138, 580.8480609874276 329.286700140554, 517.6748952629836 326.30908027957776 M732.3975570092649 328.9162674262745 C679.8224103465087 330.21365538060195, 628.1046962404745 329.892006963781, 519.4665301748108 329.2703542911986 M519.1391578661278 330.2893558545038 C520.3008547435477 291.19588749539105, 520.5319031785205 252.0599186403677, 522.4171115206555 232.39021355938166 M518.5195135525428 329.438694792334 C519.9769817607962 294.2431989067234, 519.4358596371972 256.5412509375252, 520.2055496475659 233.08703765505925" stroke="#1a7f37" stroke-width="2" fill="none"></path></g><text x="626" y="278" font-family="Marker Felt, Comic Sans MS, sans-serif" font-size="38" font-weight="bold" fill="#1a7f37" text-anchor="middle">82%</text><text x="626" y="302" font-family="Marker Felt, Comic Sans MS, sans-serif" font-size="14" font-weight="normal" fill="#24292f" text-anchor="middle">smaller retrieval payload</text><text x="626" y="320" font-family="Marker Felt, Comic Sans MS, sans-serif" font-size="11.5" font-weight="normal" fill="#57606a" text-anchor="middle">under token budget</text></svg>
