<?xml version="1.0" encoding="UTF-8"?>
<svg xmlns="http://www.w3.org/2000/svg" width="1200" height="628" viewBox="0 0 1200 628"><g><path d="M0 0 L1200 0 L1200 628 L0 628" stroke="none" stroke-width="0" fill="#fbfdfc"></path><path d="M0 0 C244.71349945741258 0, 489.42699891482516 0, 1200 0 M0 0 C383.80628123623524 0, 767.6125624724705 0, 1200 0 M1200 0 C1200 216.7552943391416, 1200 433.5105886782832, 1200 628 M1200 0 C1200 183.02537669288938, 1200 366.05075338577876, 1200 628 M1200 628 C875.8538952108449 628, 551.70779042169 628, 0 628 M1200 628 C892.7883727029764 628, 585.5767454059528 628, 0 628 M0 628 C0 475.85041642374534, 0 323.7008328474907, 0 0 M0 628 C0 396.8969320429005, 0 165.7938640858011, 0 0" stroke="#fbfdfc" stroke-width="1" fill="none"></path></g><text x="72" y="116" font-family="Marker Felt, Comic Sans MS, sans-serif" font-size="22" font-weight="bold" fill="#1a7f37" text-anchor="start">MARROW</text><text x="70" y="196" font-family="Marker Felt, Comic Sans MS, sans-serif" font-size="52" font-weight="bold" fill="#24292f" text-anchor="start">A cure for amnesiac</text><text x="70" y="256" font-family="Marker Felt, Comic Sans MS, sans-serif" font-size="52" font-weight="bold" fill="#24292f" text-anchor="start">AI agents</text><text x="72" y="312" font-family="Marker Felt, Comic Sans MS, sans-serif" font-size="23" font-weight="normal" fill="#24292f" text-anchor="start">and a hive mind, so a swarm of them works as one.</text><text x="72" y="346" font-family="Marker Felt, Comic Sans MS, sans-serif" font-size="19" font-weight="normal" fill="#57606a" text-anchor="start">one shared memory · always up to date · fully auditable</text><g><path d="M69.25314970909938 418.4831729601287 L214.85642828522154 419.0929543550831 L212.83622187221897 459.76592559474113 L70.92142317806942 455.6766841718104" stroke="none" stroke-width="0" fill="#eaf7ee"></path><path d="M72.69326417085024 420.05147911308484 C106.83510511837895 416.0058361447414, 147.6378413402797 418.91454542454386, 213.9532921786953 420.5459388514422 M72.82265898638614 420.6888764722384 C114.25000896796914 418.80016913624956, 153.26175626791792 419.0073665821071, 214.35562397340362 421.03383992609474 M213.02374096929557 419.38995905870513 C213.51213806715577 433.6932738452056, 213.82270956119592 445.1114853662708, 210.7899762416783 456.7541591412366 M214.0228831213929 420.47208932320666 C213.89215703103838 432.3435590033005, 212.70476552918788 444.71302156256667, 213.9216273180487 456.89957248968153 M215.53273902151136 457.1987265272879 C171.4460623840297 457.0951817323789, 132.84355539632523 456.50539709542466, 72.44182250430659 459.57014015760643 M212.10095860802602 457.1682545559467 C168.53719700737605 459.81906635748345, 123.38899701402163 458.17106624412, 72.27455149854512 457.0222075800495 M71.89563820090238 456.11942120572087 C69.02320182106322 452.02823138132374, 69.77069867568036 441.4675785092749, 73.53622309683736 419.31471112189917 M71.26313870772017 456.6696233062413 C71.7375484046713 448.68518507088817, 72.64276500169727 437.77264846770055, 71.49693926041877 418.96419540324524" stroke="#1a7f37" stroke-width="1.6" fill="none"></path></g><text x="84" y="445" font-family="Marker Felt, Comic Sans MS, sans-serif" font-size="16" font-weight="normal" fill="#1a7f37" text-anchor="start">open source</text><g><path d="M221.842607504401 417.57789942124333 L371.50064789884345 420.07067450256267 L372.4821295160035 458.2443371127229 L220.16153614217106 455.9779865559014" stroke="none" stroke-width="0" fill="#eaf7ee"></path><path d="M217.87555399787416 422.34811445131885 C251.77155924185857 424.295562264587, 283.8663453253612 422.81380452086114, 371.1557721577032 417.4177980109852 M220.41112672402198 418.9138755962485 C251.32608992076408 420.325514066757, 282.38714410633264 420.71089744561624, 370.66710317407626 420.25039430194215 M373.0590855777783 421.40783748322434 C371.88837833775625 428.865712320842, 372.5662669220614 445.46391735168805, 373.2960248743996 455.2361071682575 M371.7896732157572 420.88457882642274 C372.8791508124452 435.0195026528327, 370.80029914823 450.86259226019695, 370.84619117292067 457.2064150290236 M370.1248990761781 459.3274744124803 C340.5451766337638 457.20606593126166, 308.720753851144 459.39158114543136, 219.52947144352885 456.2582090231581 M371.9236626470544 457.712761860107 C328.6847615969722 456.83591777099224, 286.71220087325844 456.62632558311924, 221.3144409951693 457.34459951850306 M218.15090249844386 458.42425193893814 C220.86529279814664 448.40679392420105, 222.4326143562575 438.39217305762025, 221.84944306201473 420.9235172855355 M218.82968533436156 458.6909049370144 C218.48722878013783 449.21772240720895, 219.80238446983304 439.55823025150033, 220.49181838718994 420.40593055547214" stroke="#1a7f37" stroke-width="1.6" fill="none"></path></g><text x="232" y="445" font-family="Marker Felt, Comic Sans MS, sans-serif" font-size="16" font-weight="normal" fill="#1a7f37" text-anchor="start">runs locally</text><g><path d="M372.61161540614955 420.54212234733006 L479.46339051645674 420.10767234545966 L478.16414477106366 455.6549988886019 L370.85881463486936 458.81712149076975" stroke="none" stroke-width="0" fill="#eaf7ee"></path><path d="M370.06696524516843 417.203373113597 C414.3385159447197 418.37870471348486, 454.06955084387255 419.0387101307108, 481.61840799709256 420.26815085305174 M371.2997001672144 419.37745439307906 C401.3390987747053 421.0784082014493, 431.81585614716533 419.6915673797538, 480.6977361872961 418.77396556450395 M481.94343177251943 418.09812764304127 C479.80724751053884 434.08233617076564, 479.45319083897 442.54446922483663, 482.1550878569003 460.7090424578113 M478.8507216578773 420.8296819516201 C478.90644478938174 430.72561176776617, 479.4839279240908 441.43116089135174, 480.69735400872946 457.95151517697406 M477.34227256957104 458.31371926821566 C449.34943968834153 458.4918917123264, 424.99152483160145 458.97713012308, 370.2911619466768 458.1043758177079 M480.5259770043308 457.8009857311773 C449.092969012736 456.0222132317454, 416.74161927362013 457.2791262169351, 370.6543436929672 459.2045286975669 M373.36536273878494 456.7840629981578 C371.4098022488604 449.3355647027524, 371.9924202065142 435.1245162692815, 370.6700061927194 417.5580778720132 M371.0598927237814 457.3327744306178 C370.80047483088765 446.6060466438681, 373.1635874834037 438.248611926788, 372.70110636366536 420.56119970204315" stroke="#1a7f37" stroke-width="1.6" fill="none"></path></g><text x="384" y="445" font-family="Marker Felt, Comic Sans MS, sans-serif" font-size="16" font-weight="normal" fill="#1a7f37" text-anchor="start">over MCP</text><g><path d="M901.2662375436973 327.8695536129654 C899.8148535709648 283.68836657395684, 897.9309159268728 236.13672013207196, 897.2648414777115 139.6723048511712 M900.0864993816489 329.31464787734154 C896.6620453756041 272.8378519139243, 896.8751252365579 214.77726293676398, 900.3756238107536 139.07620025847683" stroke="#2ea44f" stroke-width="1.8" fill="none"></path></g><g><path d="M865.2530794902095 120.12182902810542 C865.2530794902095 120.12182902810542, 865.2530794902095 120.12182902810542, 865.2530794902095 120.12182902810542 M865.2530794902095 120.12182902810542 C865.2530794902095 120.12182902810542, 865.2530794902095 120.12182902810542, 865.2530794902095 120.12182902810542 M864.3190466462722 124.34245964114409 C870.8344644935294 122.38882782931994, 870.8570522590859 116.16822034446338, 874.87397435597 115.65636676407385 M864.3829617821327 124.7899827605937 C868.9450486496611 122.2198468553662, 873.3088923268087 118.22249255513766, 876.3580789296966 113.26824512339164 M868.4217458717008 131.79690858880207 C872.6424612392801 124.38325488534711, 879.9067131139979 119.97484198094978, 888.9674778703808 106.66308148486914 M865.366110750236 130.8339603648536 C870.7392307033709 126.02348765486651, 878.2644475723757 115.60642754399863, 886.048551103866 109.54913505001367 M863.4160948261426 135.9954267443667 C875.5584004003415 124.12268203411519, 891.2087759172118 106.52686180440385, 898.0768115188333 99.82609854422483 M864.8580086663173 138.61840581610306 C872.5092917867493 129.0926997779166, 880.5804957167503 119.56459125907318, 896.1007919903251 100.98743792556199 M865.7539234638722 144.72163888416173 C873.0871927626346 134.8125611481902, 884.6239554589974 118.61319926352205, 901.3704017481682 104.05941320253854 M865.7298822373659 142.62759420177818 C875.3228483249595 133.6394356879876, 883.0579355117163 121.83452145950469, 903.2295471480962 102.86701313151364 M865.8197934144079 149.9101594811326 C873.7721491995383 139.79541883205385, 881.309712854844 131.05210081658794, 907.2560914488188 103.08650371075097 M865.4665860616504 149.83803452607452 C879.1048764375606 134.45577109064624, 893.0744449318868 118.62653426753307, 905.2148274363628 103.63135845005932 M868.791252423231 159.00801468733394 C881.7221500107198 137.3776263108793, 895.1258750533557 121.06976490682607, 910.4301783662663 103.13564622091647 M866.142835853402 157.2917724722966 C881.0355083273639 140.0134113753782, 896.6475626239856 121.88571285689518, 908.221973569356 106.08189456450339 M869.7024801778414 159.70289981526548 C879.7945032608131 146.5518995601643, 886.2782437947523 139.0415035457999, 910.5895331590201 110.83049562575785 M866.5868542688705 162.12464788419422 C885.2837603277293 141.04221341526443, 904.0294118208874 118.3041459745591, 911.4137741743352 108.96854589881865 M867.7245834527107 165.94963143675918 C882.9214765823406 147.58574721909145, 896.0861107296984 131.71777157956723, 914.5679535725612 108.06182807732965 M871.3606660512778 163.29274686484928 C882.1336681016418 149.43063835065607, 891.3764428357098 137.0664948313544, 916.5868199655314 111.16148313630964 M877.005005819377 166.51724318520598 C886.3320035132426 155.84220849876488, 895.156074849638 141.0497617862685, 917.7998102653996 112.71579846835458 M873.8995077409115 165.01949757890276 C885.4403513660142 149.541838360288, 900.6663901219134 133.95657935247368, 920.3351495702044 112.07938070094907 M880.2281179363496 167.2418899533286 C886.8241022128823 159.03506924160413, 899.5250460014228 142.55792863345903, 924.3442829250346 116.65510211133258 M878.3724179650313 168.3485744503274 C890.0811897017435 151.22061966164787, 903.2583833472348 138.9242245457624, 922.3744856446039 114.17057843648688 M878.0152175491096 170.42684789318167 C900.646738786808 151.4091182325592, 917.7745602432444 130.5092069980931, 924.573242209976 117.82839389898652 M879.7822374378683 170.24389816242777 C897.9162012106993 148.35241300689358, 913.3607052993286 128.8714744454581, 926.7301168159893 117.12250076689595 M883.1881753161665 171.57077189748784 C900.2608792640668 152.8562328295192, 922.8251583955606 129.06837035029278, 927.9954858657047 115.85144998337083 M884.9292547866817 170.41789313917656 C895.6215436984282 154.74098015602024, 909.1077393391967 141.9341714796131, 930.8611337985918 117.14281837548069 M889.5936709250204 174.14885727874707 C898.4817229189283 162.07644415126768, 911.7814104542391 145.54861719745122, 931.9203845507303 121.53542525720825 M888.7354426677219 173.81264922432376 C899.7924218343526 159.47459253686358, 912.8377918432285 146.6216660569774, 933.8240752196709 120.18770568621387 M888.1910750341806 176.92225892968216 C901.5766603554317 166.20143482275608, 915.4897054813064 149.34668229857175, 935.0821179525528 120.4680150329987 M891.432339708248 175.20934084184208 C908.8332532714359 153.4144697253741, 926.7804173411929 133.66920703224562, 938.1971637354766 122.04300254284537 M893.4766853891281 175.91925300234772 C909.4156589091388 160.0922477495367, 922.3993381888374 146.6648399643115, 937.6472615847291 128.09642210457895 M894.0852866224911 177.7093886750362 C909.9565659687646 159.20994909952785, 922.5348263567423 143.32695003609035, 938.3878928283157 128.70718127046203 M899.3473726483724 180.36349438946638 C904.7699947084187 171.29745248868466, 912.156784767792 159.3246653281094, 938.4238493087024 136.3425843031124 M897.1570720377109 180.36271714787875 C911.1151116174447 162.1501778824052, 925.0381502250776 146.43208382688763, 938.1420893283815 135.50657423147717 M899.1248164994137 182.6551784035382 C908.6052427268822 171.34763718863206, 919.7004236317861 161.449219951195, 934.708369840963 137.83323736087618 M902.4321686101572 180.64891610411973 C913.7671554960581 167.03974417843634, 928.7413362754517 151.6583975300607, 938.6909099209142 139.02543668941792 M915.2600369196568 175.7786545548354 C916.084750584691 167.41582999895482, 920.741144856042 164.28102243092977, 934.59788481103 148.59049575081588 M911.8212642859851 176.38485458528146 C919.3210808668192 167.31910069185457, 925.4952063827174 157.33349069750642, 936.1629592041832 147.49652764847994 M920.9076823356875 167.389004377863 C924.5109641245389 166.17046047167204, 932.7203273694754 159.41310741916521, 940.5824419643843 150.1488856249859 M923.6355504605301 170.71125865711883 C928.9012932333718 162.95267857299214, 931.2225723292609 159.98072645720998, 938.276702892419 152.21814279196758" stroke="#eaf7ee" stroke-width="1.5" fill="none"></path><path d="M932.3572313148469 119.42215582728386 C933.173370313117 130.61253838986158, 935.7274526113957 137.1209568411112, 931.5435016471833 163.07736803889276 M935.4623671401233 119.43357774317265 C934.131229782173 127.15994801968336, 934.8822663307875 136.18594292998313, 933.3550275672168 160.845053973794 M936.8282840568513 160.8090651214123 C923.3548021715603 164.3860987705975, 908.6281964276982 177.14977814907724, 899.8487640678883 182.09032103419304 M934.6038595069141 158.41161510050296 C923.9242945267764 165.8134088560694, 914.464219991895 169.69144239348705, 898.5100295394659 180.83589955866336 M900.8448257744312 179.78495756983756 C888.2539304096264 173.47177127864083, 877.2722741873584 164.04088105898222, 865.9422894280464 163.1436243712902 M899.3051749557256 179.30028783380985 C887.552184702692 172.31872437428098, 876.4524409543227 167.19277773852806, 865.9821793388635 159.06950942575932 M863.4293179314643 158.69651286005973 C862.9665500193149 147.22217944413424, 867.2476159601719 138.23248347938062, 865.2277891915351 123.10270773768426 M864.0462944816858 161.5715685993433 C864.6894290625364 151.23047535568475, 866.3862999617368 140.97914346456528, 864.410832960537 121.40848123133182 M865.5354719918281 120.85916067957878 C879.7205868635805 110.68576950240129, 895.1461845073258 102.14961867216223, 900.5992086708545 102.80175082087517 M866.2915740799218 119.46305505335332 C875.1895599308723 115.12574454253131, 883.9711081052739 110.54614662160688, 898.6787052482366 98.9810376316309 M901.2072332680225 102.3570807158947 C911.8511304041888 104.96205751456084, 926.9715648603727 111.63645342670145, 934.6407270271271 118.84368330836296 M901.348728594184 100.47796985208988 C907.9699432616054 104.11893618406806, 914.5180245492098 110.32968733089123, 936.2118698943347 119.48102628290653" stroke="#1a7f37" stroke-width="1.8" fill="none"></path></g><text x="900" y="145" font-family="Marker Felt, Comic Sans MS, sans-serif" font-size="13" font-weight="normal" fill="#57606a" text-anchor="middle">agent</text><g><path d="M900.328351934488 333.0031425482467 C960.2799759269991 285.68654399107436, 1028.9072208561183 253.74088327536998, 1067.8841906162027 236.5538440852874 M900.1938012566318 331.53085443524833 C943.7100250958918 312.016527887631, 983.5149140606163 290.5098829949119, 1062.8176881076897 235.11827218626576" stroke="#2ea44f" stroke-width="1.8" fill="none"></path></g><g><path d="M1029.631458049327 215.31330573272425 C1029.631458049327 215.31330573272425, 1029.631458049327 215.31330573272425, 1029.631458049327 215.31330573272425 M1029.631458049327 215.31330573272425 C1029.631458049327 215.31330573272425, 1029.631458049327 215.31330573272425, 1029.631458049327 215.31330573272425 M1032.4045617005033 222.7196919633815 C1034.134125130987 218.96913882917173, 1036.0634605588834 215.59452712119986, 1039.381287734786 208.74052512696076 M1029.5308683499497 220.26796739477612 C1035.1042856395609 215.84982821197252, 1037.764391462977 211.22572435037858, 1041.653802765885 209.31359132221033 M1031.5036765308807 225.3518074040977 C1034.8982829442355 215.7071338542439, 1045.6745078268182 209.76594501126598, 1048.8206518656498 201.9249586662616 M1029.2624778972695 226.0525643577544 C1036.9980392821774 219.64615955478837, 1044.9850231200269 208.05751480380326, 1052.1698324224835 203.01961758792058 M1031.7996650921637 232.41568939328846 C1040.410399353886 219.7929570491748, 1055.44917334259 204.22149162787846, 1061.5757051830792 199.00221489644673 M1030.6657703163557 234.18096637219844 C1041.8357350047584 218.83391425011862, 1050.8173233231255 208.5373780093437, 1062.1220837017202 195.63968821591763 M1027.9157573441823 240.2849248836005 C1039.7805301821804 227.57151169434806, 1051.8144049411876 217.00374012287045, 1068.5560119235518 197.74814070283975 M1031.2493119950254 239.1014757329786 C1039.8846404127214 228.31443782852972, 1049.1100989976699 216.6168475596105, 1067.8810718634727 196.91650062471237 M1028.0143599721778 244.71251913856076 C1039.2233053302314 234.57641480296763, 1046.7011121551193 222.05460486543137, 1072.7267218302889 199.16569718852213 M1028.1058318841447 247.35318168799688 C1037.570351070637 234.67849000968354, 1045.9622840427578 224.77720866059272, 1071.2813314165871 198.32503740176134 M1029.3235046613902 249.03585242169692 C1046.1182785140852 231.48339196892235, 1059.5050187644426 219.13867693695934, 1077.1307277044928 202.23280129613033 M1029.7702464345784 252.10798598515584 C1045.5894236232425 234.3121037581882, 1059.7244451518318 218.3142570628539, 1074.8617024278915 200.51367447407594 M1029.5807890680699 254.43138957675865 C1045.6556233205115 243.30962285185979, 1052.5999150263146 227.39178118388145, 1075.7401931734234 202.64000244963688 M1029.5136005682018 255.97531245258023 C1045.161812946231 240.4427450743741, 1054.8058177394173 227.62449721918716, 1077.76685829027 201.39185775000377 M1032.157612935438 255.99584170682778 C1049.2146103143211 245.25416963484216, 1057.9834376634653 231.6181400566093, 1082.9489658933308 202.60751549279195 M1034.7173037938617 259.63326867772685 C1052.0206024628055 240.78511730219898, 1064.7990087427543 222.70806864468236, 1079.889718925598 203.29713605766992 M1038.7985878037825 258.99326197654534 C1055.1271500968116 243.7271491991376, 1067.1491481611579 229.815521447173, 1084.2165185204644 204.33993026934542 M1037.4625399174706 259.4257418096118 C1052.0863736500196 245.0745183794337, 1067.75354267439 228.98235498046733, 1085.5653917557497 205.39987072519938 M1040.138186329354 263.2532402296612 C1054.5834769218595 249.01722687376864, 1067.6744736572932 233.43980094269622, 1085.9118896820846 206.68092120327 M1042.096916360904 262.71059317635985 C1053.96667248059 248.00676035946444, 1061.9918792935773 235.63397455166415, 1086.4651126736107 210.50794516093976 M1044.3765061684019 262.0897413099256 C1057.395010716071 252.40342181547678, 1070.1677531934574 233.38626675605911, 1094.8379200924214 213.99440897787036 M1046.1602280460365 264.92849660609636 C1057.4812198256152 248.80873091010247, 1072.159278479587 233.39925896639474, 1090.970482159036 210.49792653257074 M1047.123210948186 267.75581464131125 C1069.4823202938965 243.49295767073127, 1083.76454951278 221.0621399658348, 1094.394898378735 210.9928180171192 M1047.2783983657525 267.60764800716885 C1065.5665298569356 246.62835590375033, 1083.1098878794678 229.52128005325144, 1094.1871111049106 212.89332324844003 M1052.521766382937 265.9247559071226 C1070.2306783630625 248.98716055884702, 1084.9816405839003 232.9382970560076, 1100.904797197275 216.41823816476642 M1051.7377152999086 268.5949270472569 C1068.5124656995247 252.1097238172444, 1081.742511272574 235.72293267445576, 1097.7188569331095 213.4957466366726 M1059.0130860999143 270.5183645313322 C1072.5923923224898 255.87719461964923, 1084.1063322587147 233.69497660870977, 1101.374919059339 219.47068216567592 M1055.6984772413887 271.03415463470816 C1066.009070299033 261.1284772653381, 1074.7456398312358 247.44449665419538, 1098.881469420555 219.7631684265073 M1061.2597677553686 271.7881053576904 C1070.6807354318298 252.34113307330034, 1089.9977389605199 237.02881607108347, 1097.8387817661296 225.18744196248394 M1060.169229112068 273.59725459764775 C1072.7855003597656 254.29021391644383, 1088.8391198446461 239.22911387775727, 1098.4934761340746 224.73927704495532 M1064.1339749765589 275.3245278101697 C1073.5249159630962 257.6402999978865, 1087.6345547551873 247.37870588536, 1102.5591739449062 230.41844197916296 M1061.2446443048311 273.2436728444233 C1074.4668082829116 261.2200917282663, 1084.1412867716413 248.85055263697217, 1099.5292379665532 231.5788309003642 M1069.3780276516588 271.21017009073813 C1079.1762335363594 257.6122501316535, 1092.1863033649183 244.42128222728115, 1101.6326863098998 235.33385289901784 M1069.0161149734768 273.3232815613779 C1078.5738722956492 263.54128078580993, 1087.273418001296 253.45005231629602, 1101.3734803978464 238.40527216041377 M1077.7832213499478 267.4137507838139 C1086.7450656786634 260.8845790044405, 1090.3177245182114 251.9861710070351, 1100.8972984593797 244.60705872624388 M1079.6005714529088 267.9205708173045 C1088.0123953787686 259.0423986418268, 1093.5946433334755 252.0574746792623, 1101.1788802918481 243.24369381367435 M1090.2166057240986 258.86934803406655 C1094.895449503278 258.753946948798, 1095.239247970977 255.65634568579827, 1100.3966783259827 249.3927377993291 M1091.5369986864948 259.23803585837544 C1093.5859790231302 257.8787548055312, 1094.63403415434 256.5317736154458, 1099.5468905384855 250.08644752953703" stroke="#eaf7ee" stroke-width="1.5" fill="none"></path><path d="M1101.4736795502372 212.76437141001225 C1100.5154324483342 224.27379222884775, 1102.684922976441 232.5530525252223, 1098.0185769158072 255.50510484278203 M1100.569328958041 216.4569355174899 C1100.193077864296 225.9159428216517, 1100.379218067772 234.88453722298146, 1098.5712554278439 255.4495593711734 M1100.6318375664418 256.2099716335535 C1086.0238278156492 265.5852417836059, 1071.7973818204287 274.1052890999336, 1063.4184671937205 272.49935313761233 M1098.024970561511 253.73277661055326 C1087.8678084373046 262.63187787088737, 1074.47608580288 269.2977147620468, 1065.305859212456 274.7994895145297 M1063.8741350709176 277.6434533268213 C1050.30097049266 271.0435227806627, 1040.833968971193 260.4295435390382, 1030.2254467050323 254.29798680841924 M1063.9405191703415 275.67031661719085 C1051.5866908610874 269.3317661791292, 1042.7354337069637 261.053224879801, 1030.4293256069311 255.73646036833526 M1030.021178058792 256.4461641460657 C1032.9041333554276 239.50439738854766, 1028.0133058903702 229.77573182731868, 1027.51949644487 212.97297851145268 M1030.5398522640355 256.56872545927763 C1028.5593003029712 248.23352289125324, 1027.8658582920916 239.0370578110218, 1031.260844590772 216.38932935446502 M1029.777947525192 213.06507674753666 C1038.1765503308168 207.83147458185243, 1046.2436841856334 205.4017086685895, 1062.3239562569834 197.76192590296267 M1028.5296598220953 216.16936055868865 C1044.1815458732785 207.1028933709422, 1054.425350480258 200.38533565792534, 1065.8114024921038 194.679141394794 M1062.9927833138681 194.71278878748416 C1072.9969685485132 201.0611351368059, 1087.445344835178 204.48297064016057, 1096.3055248337455 212.76805163919926 M1063.3084281726458 196.00576683729886 C1073.1085846298367 200.60221419010793, 1084.8442943692291 205.91404045161343, 1098.8337819876738 215.86912891119718" stroke="#1a7f37" stroke-width="1.8" fill="none"></path></g><text x="1064.5448267190434" y="240" font-family="Marker Felt, Comic Sans MS, sans-serif" font-size="13" font-weight="normal" fill="#57606a" text-anchor="middle">agent</text><g><path d="M900.2371092352793 327.1994635844493 C968.7358188771831 371.2624852429996, 1027.3245253892076 410.00300473260717, 1064.9976034973283 428.2431682914338 M899.6568860441316 330.2835494585011 C941.6022264120261 351.1339173027676, 985.5046033066263 377.6134598355412, 1064.595585612979 423.63926347190085" stroke="#2ea44f" stroke-width="1.8" fill="none"></path></g><g><path d="M1029.8904834341336 405.0153311133744 C1029.8904834341336 405.0153311133744, 1029.8904834341336 405.0153311133744, 1029.8904834341336 405.0153311133744 M1029.8904834341336 405.0153311133744 C1029.8904834341336 405.0153311133744, 1029.8904834341336 405.0153311133744, 1029.8904834341336 405.0153311133744 M1030.6550169227676 411.23149925508693 C1035.0783084484028 408.21129507219683, 1035.944747430347 405.0836280726593, 1039.7059490540646 396.19474340957987 M1029.9205087209896 410.9860912323852 C1031.5556404544552 409.6143274409892, 1035.7811807236778 403.88130825185226, 1040.238182385566 397.22988831771 M1030.4662540157497 419.8172548954246 C1034.7451900375554 412.6513856429431, 1037.9427811730006 404.1733466830366, 1049.6423546286267 393.2068036841309 M1029.0394918699922 415.7817170266864 C1035.2291894124262 413.166082380874, 1038.9804274268006 405.8097232985731, 1049.659642508809 392.51006796230433 M1028.3517641258923 424.85591987868696 C1041.5065652622877 411.926408948315, 1056.429388792068 397.8091170043713, 1060.9552456730141 386.2888799246998 M1031.042060734102 422.56349476477055 C1039.766094017051 414.65752801745487, 1046.885663036231 404.0630285720794, 1060.8240222388042 388.0024871823044 M1032.3582380501816 430.35875955907034 C1040.643772802043 420.4513994173074, 1046.428743587801 409.5132640751037, 1063.9101508666433 387.45683603961754 M1029.4493885783743 430.08590594021007 C1038.6171075288755 417.90823096135546, 1048.9896399280449 406.71288334687495, 1067.101125346557 386.9859559543877 M1032.4895733556368 434.0254274720203 C1040.5551082866132 425.16958056343, 1047.9731582810834 415.2692787038234, 1067.6779990374478 389.7554393423246 M1029.825724532328 436.17887752595055 C1041.5489482960463 420.0533588099898, 1055.6983777054447 406.721634140159, 1070.0284822225005 387.52926502949464 M1031.4803446962483 440.72894841231397 C1044.3162383035403 428.43891194938624, 1057.8851088016615 413.42828763804664, 1073.3119238684085 389.44050504737544 M1028.6222448124533 442.18945775426914 C1044.008509378683 425.0433863410047, 1060.0798715771296 407.7299334069305, 1074.1820781121162 389.45600305967974 M1031.7397447839876 443.67042801428306 C1048.9646811919843 429.83417066119654, 1062.6235483448295 412.0768092016599, 1076.1154409845253 389.71476752977 M1031.5209936932226 447.5365256969975 C1045.0646095155148 428.63154854709427, 1061.0609853283845 412.11766433431524, 1079.3445302029033 392.28042785744293 M1032.4712892438545 446.95260065292763 C1052.1566159453803 425.75506792424477, 1071.7941769222095 410.5534971568157, 1079.498506981808 393.17317074473107 M1033.954588362135 447.28433916663573 C1046.4580607034886 436.0056107766725, 1056.3524251031968 423.2818253781343, 1080.9611466533722 394.652756815507 M1036.4728166138777 452.3798294439158 C1059.4070547440667 432.97892790377233, 1074.226836191261 407.6084313749054, 1085.2017555432374 398.384029906813 M1040.1062189197191 448.34253471635196 C1052.506176323872 432.3719586564591, 1068.2174228309511 416.22964784708194, 1085.3641627090033 397.9403285859264 M1041.0167834900665 455.28455834247063 C1057.263969856692 434.6005664613493, 1071.1115176876067 413.10124731590986, 1089.7601432648232 397.6172889712388 M1040.3899435244846 453.0925797388692 C1051.2393766649134 441.93255589565825, 1060.8223861125039 432.32700738009373, 1089.6363865283063 398.155860561424 M1045.3063235554023 456.1726025631464 C1064.5310011264423 438.597539070983, 1075.958427794597 417.03844591662283, 1093.927185771565 399.02568231300836 M1043.9067474219125 455.63306288624176 C1064.265709773938 432.94034588616876, 1081.2232636187364 410.7360288881468, 1090.435435298781 399.1386105544997 M1046.938893405894 458.451406061166 C1069.3793724189375 437.11511894132053, 1087.662576814383 416.6360576154963, 1095.362839659473 402.1541538873444 M1048.7081887705124 456.10795155119246 C1060.037094567058 444.12825922278233, 1068.7896334924594 433.819649284965, 1095.2816171789375 404.6637959578763 M1051.3305086665423 458.6112032115293 C1069.3410466756088 438.76489103180035, 1085.1346022803286 417.26512503797306, 1098.0577386115274 407.3210189088014 M1053.820634757784 457.8877535462213 C1067.8150299848842 439.70194147415145, 1084.0264392767087 420.24524287366427, 1099.382167414256 406.0237554236082 M1058.0036259333563 460.1344379694591 C1065.6508738114503 451.85068383158426, 1079.8426303827193 433.22538547326, 1099.772603107776 409.96505965349337 M1054.5331435422372 459.678936264051 C1066.234762790501 448.6217280915489, 1079.0511518753901 435.79133597720147, 1101.2706580472845 408.9750446653094 M1057.2113788893168 463.6769255495098 C1067.1690654289303 450.19271862997795, 1079.2204145932428 441.2769699718485, 1101.6230668311998 415.2795913359744 M1060.8217003693528 462.305088356736 C1067.7424174998719 452.25369880953565, 1076.9606276933303 442.99450110059536, 1098.9918243235038 416.97250233503405 M1064.801224130434 464.79610990690435 C1071.2388486108664 451.69478747206375, 1085.1228687023502 438.3376838214876, 1098.1433224937705 423.14071959057657 M1064.4128633976402 463.83517721699917 C1072.555614267108 452.80665360158247, 1085.0921867549246 439.7681554287143, 1098.7652105173854 423.09750750461427 M1070.9194724266597 459.55867751552876 C1076.4941188228086 449.8937516363584, 1086.8844506752832 445.0267245890458, 1099.3497676625068 425.8355979527452 M1070.0882949595518 462.59116275622665 C1079.5114407602325 449.5593862376412, 1089.9853201703615 438.69899655380607, 1098.0488157584484 427.58623714699536 M1078.6506984319847 458.08765317016037 C1089.8239950076627 446.11348615138024, 1093.595570751209 436.37595500004005, 1098.64553602039 432.87004163703494 M1082.5241712715786 455.29509320669564 C1087.1330089737316 447.8023847466523, 1097.0595651396068 438.6208935542827, 1100.8436252921738 434.4372799142318 M1090.5260680520787 448.65305733831883 C1095.650835164279 447.10558546231863, 1097.027869100591 442.9228276347059, 1099.868628313417 439.13825662430276 M1091.5301331019655 449.31708041938305 C1094.5631787710654 445.3424734271974, 1097.057583613025 442.37130113367306, 1099.552496181602 441.2041217845296" stroke="#eaf7ee" stroke-width="1.5" fill="none"></path><path d="M1099.6453010665841 407.5065869927406 C1095.632667864508 412.9350460678339, 1097.4175666224426 422.98514820933343, 1099.9488254653877 442.9328416466713 M1097.9314640569157 405.2802932918072 C1099.7900992273753 416.47193762362, 1099.4113430857128 425.38313151597976, 1099.242656569428 445.0540647685528 M1099.8905643569892 446.61087814569476 C1090.4362299709705 450.2758722797703, 1083.6381469546668 450.55228753394596, 1062.4433436005093 464.30838524103166 M1100.1012548970646 444.05393812060356 C1091.6346988590649 450.4503468857053, 1084.4395313553725 452.7039871306065, 1064.3568621664024 463.76307947039606 M1062.358617648361 464.1019490838051 C1048.4431838566502 457.2152742826846, 1040.4908370359838 451.81820601909425, 1029.9637772629746 446.8523492455482 M1064.0310366659141 463.84034540057183 C1053.6363703004392 459.25332050082153, 1043.8335997405613 454.22218453791805, 1030.3316451559551 444.2034113109112 M1032.0682114670763 442.79581543207166 C1031.8968899724969 434.7866153329611, 1030.634169101525 425.9189801752567, 1031.6663769791612 404.2432492852211 M1029.288583327342 446.56588231921194 C1029.1643448243626 429.0365704268217, 1029.280589903403 416.0949721574783, 1030.3660295019636 406.3701774775982 M1029.4755963395128 406.6709928154945 C1039.655890309285 402.3771796613036, 1047.2927636054485 395.6537986650167, 1065.903877124069 387.7221009850502 M1029.4229188452252 404.67566606402397 C1039.1405018663656 398.08004219935316, 1050.3183596756473 393.2245246942439, 1065.1992730169275 385.3772451579571 M1066.6335066406705 382.06849685907366 C1069.5979799737943 386.8687252758951, 1076.9742980909396 393.4380003704638, 1099.8254959213205 408.09241997003556 M1063.923301032064 386.53356382250786 C1076.9023992790248 390.9769796793037, 1087.4257374702051 398.5898810554915, 1100.1108673619694 404.0572315394878" stroke="#1a7f37" stroke-width="1.8" fill="none"></path></g><text x="1064.5448267190434" y="430" font-family="Marker Felt, Comic Sans MS, sans-serif" font-size="13" font-weight="normal" fill="#57606a" text-anchor="middle">agent</text><g><path d="M897.4282499949568 328.71329737186096 C903.8254573410891 373.0190215757354, 898.6636850693136 420.64411859556236, 902.5406151605262 519.9649682506895 M901.3012233130422 329.20235288528147 C904.2318902203884 406.43003373364394, 904.396291351124 481.1617610624387, 898.3494071098099 518.4693814914841" stroke="#2ea44f" stroke-width="1.8" fill="none"></path></g><g><path d="M865.1150712308322 500.2805893696285 C865.1150712308322 500.2805893696285, 865.1150712308322 500.2805893696285, 865.1150712308322 500.2805893696285 M865.1150712308322 500.2805893696285 C865.1150712308322 500.2805893696285, 865.1150712308322 500.2805893696285, 865.1150712308322 500.2805893696285 M865.0624478722351 503.8184868355229 C866.9254915597854 501.8839497431161, 871.7471000979012 499.37118827548767, 875.1227705556877 494.61317208040094 M866.5535375488537 505.80826689080743 C869.1038154847864 502.66919180956444, 871.3770567079704 499.2066594819525, 876.4121065015323 493.428613947514 M864.3943939125105 513.4459352623554 C874.2212183519057 504.05988677697326, 880.9158524898047 494.0662468850314, 886.7417378614764 488.54246241715856 M863.7820682546064 511.0741025712224 C872.288266274196 506.9335287795916, 876.4392556896513 498.47692580708485, 886.6271330650071 486.0543320518464 M867.581543629494 514.949964079244 C877.2315932051794 507.6260917788429, 885.16932609457 495.50265735556826, 895.3003485748409 479.13877782855695 M864.496031621721 518.1998368725012 C875.5576775538503 505.49712763018795, 886.7818728360178 490.94082442840084, 897.6915231877801 482.7285190242953 M865.3662811680731 525.9958271101443 C871.7637879520147 513.3001072974278, 884.429613419753 501.61226424551415, 901.9419702796079 481.219345091554 M865.815027573615 523.4335690230457 C875.8615558554447 512.649254235784, 884.5318118321125 501.55277286606855, 902.5988592995144 481.1092249992216 M865.530349150988 528.9015686810837 C876.8524736548871 520.024358085979, 884.2107668189399 512.745564304302, 903.9948386564987 485.9084143717311 M866.5111795924032 530.5678062395082 C875.5579759738656 521.6514803941795, 884.129769861059 511.04771119837113, 906.9411954403059 485.496725532832 M863.5148652009792 536.4758581180894 C880.0192942440885 522.0858440708306, 893.3720649098894 511.267421783048, 910.858682444216 488.6114416742245 M866.9519236602015 536.3247432385408 C879.8422076182678 518.9004093096304, 894.2231636107924 503.96226626059354, 908.4680162082326 487.1615645208875 M868.8642629117969 538.4726993274114 C885.5246013090823 520.4313852322708, 899.4980439089703 500.8345039811759, 911.4562512075191 488.752765485507 M865.2939492301348 541.4609718170187 C884.8476686629566 520.893018781552, 903.9964154955096 500.6834982111808, 912.6877645274287 488.732230840486 M867.7505279641628 543.4725924746314 C882.9375283402669 529.8434217991366, 898.220327772134 510.42657993039205, 918.7257285401585 487.79263971182854 M871.3574353422998 543.6986425311485 C887.1879778328645 524.2468535651751, 900.6217202878042 509.0058531624273, 918.3102548510195 490.0621912885025 M875.5126078358644 544.9296297868904 C883.2656397783481 530.2621567180757, 898.2984498750752 516.5685694041424, 921.808614006893 490.8366528396618 M874.5154603338593 546.0225604986962 C889.7902493573873 526.7359537932256, 905.7440997400562 507.1151170830669, 920.7845551031393 492.08930974203463 M878.1730611206519 544.9696901704384 C888.3020964423877 535.3173077168284, 899.6738394168941 525.376853331182, 922.173959259454 494.1168896148115 M878.1606511579382 547.5283800165369 C895.1998294838703 528.1626600678346, 912.059085901886 507.86485223901667, 924.573222794894 494.5670088375121 M881.8577623832849 548.6639871117484 C889.6828884753908 540.5149794555105, 903.0755720404762 527.3302855676595, 927.982013862601 496.0201885237502 M880.4748882386713 547.9461524617683 C897.1675210034886 531.0970628700567, 910.103848711882 516.2272304783783, 928.0659508504183 496.5425274520325 M881.7201382754944 548.3102303566246 C903.0531445766434 527.8369358313804, 919.4535833947185 508.71574255801664, 932.6084614100839 497.36930347272806 M885.1035415871643 550.17148797082 C897.5883999420481 536.1348305904414, 913.5567078339809 521.5735711556831, 929.453803722837 497.28808238247086 M885.10481336204 550.4608833915399 C902.7024668099891 542.7709311164758, 910.7161251181018 525.9693771834968, 931.4883604956528 502.27761336799483 M887.669116627552 552.7438129207897 C907.4421922292194 532.3409074496664, 923.8987984903983 512.4807222737955, 934.1231583652756 499.4055779257022 M893.2718462366713 553.8043251227443 C908.1197398620511 540.885568504731, 920.5289472823148 522.6235380715137, 933.1358495681051 506.0226700169147 M892.845490312959 555.5775316085522 C903.9837946688963 540.5569750571129, 917.337918512895 525.7736949786822, 935.4254090859058 503.7501537797154 M895.8406704931385 559.6195594564877 C906.4658029489935 542.8906610230963, 912.8554179026129 531.1640238303363, 935.2850323661431 509.42555442462344 M894.5518520965106 558.2667358309827 C905.5077421629406 546.3441677636577, 912.694463218661 533.6794155057459, 935.7678529828057 510.05954134027144 M900.4340356962012 559.830924879243 C911.6707832382881 544.912507821845, 918.9291846291642 534.859894633219, 935.0930334545269 515.026230077594 M899.3466449023413 559.989914465179 C907.4575430954371 551.1321061304535, 916.4562095823404 540.6246488760112, 936.1667454801096 516.9794169844682 M908.7385976715334 558.3609986554778 C910.0896845791307 552.6290668562218, 917.8602784555209 543.285980665969, 933.3445294849869 520.3911567216311 M907.4381554155 555.9128576662339 C914.0221584337744 547.3684166283822, 920.3658402874711 539.3312519522308, 934.2018315889236 524.0210158487354 M914.4837379259136 554.3247884321107 C924.0633443804094 547.0741189603126, 924.2286946598091 540.8747802203297, 937.7593359932924 526.6962574234299 M917.2133335021404 551.4328484716906 C920.6140426124421 546.5029192923738, 924.6797646213408 539.5021764354912, 935.4739327043916 527.9940988903932 M925.8010927919507 543.999999518175 C929.797241567595 542.5798331768455, 930.6329693029425 539.1232217771544, 934.3061407127433 534.4470083248805 M926.4888299293281 544.9593578559945 C928.6415907825094 542.1007279170021, 932.9278036656417 539.3166675125734, 934.5236642366104 535.9650289151261" stroke="#eaf7ee" stroke-width="1.5" fill="none"></path><path d="M933.2720958638877 500.848802575469 C933.8850765616388 506.59629990682004, 935.2853835494012 518.4172438934445, 937.334247295925 541.7605784505606 M933.9487724367469 499.1036510661244 C933.5622938714117 512.0279324255883, 932.6186413846106 520.8817258089781, 935.3692309919685 539.6585701659321 M934.6044644284934 542.011784657836 C924.0156021769732 545.0750152927787, 917.7176789093107 547.5077984848024, 896.9233932882547 561.1174173444509 M934.432712513575 539.3750996306538 C923.2885593315063 547.2688159005232, 915.3617437282708 552.3102594991661, 898.8630384013056 560.9266694262624 M902.6982735067606 561.9604448407888 C895.3687737318724 558.7870257847064, 883.0592848422823 549.8068684991503, 865.1572811018735 538.0067116826773 M899.5767274424434 560.2103741839528 C891.1412230207475 553.0663623056698, 880.3869390551155 548.0826316791911, 865.6891379859358 540.8703622534871 M863.1704181563168 540.5454667180777 C866.3448198705227 527.0688332773746, 868.7102055936366 511.0622285231948, 864.8684307944089 500.5135200589895 M866.6924876716047 541.5630391791462 C865.2245626267105 526.0396179623901, 866.1504947956711 514.1528865039348, 864.9263876941114 501.35102560073136 M864.6284184347898 498.8769088834524 C875.9504035687097 494.4143722239107, 883.1570163062203 489.7973761445999, 898.538971272111 482.6822760671377 M865.7713511493116 501.3819715693593 C872.1146311404094 497.25719102776407, 881.0265421519936 491.0637137305623, 900.0423168227077 481.07534892112017 M899.3294032484293 480.8242049306631 C914.9823679103076 486.9678028981401, 922.2148310882092 494.28451758392293, 932.400640289852 502.01678830087184 M899.9933471724391 478.86136080771684 C912.3113872091695 486.3517451684995, 924.822353852138 493.0657216593696, 933.6431260172218 500.44533416777847" stroke="#1a7f37" stroke-width="1.8" fill="none"></path></g><text x="900" y="525" font-family="Marker Felt, Comic Sans MS, sans-serif" font-size="13" font-weight="normal" fill="#57606a" text-anchor="middle">agent</text><g><path d="M900.9185470308298 330.4174940225333 C847.7981398069628 362.8658654149904, 798.229181999617 398.4955087777212, 734.7918877774681 424.61768350072305 M901.1060210789124 330.09288979352544 C852.8982463862272 359.13949441462137, 803.3431892940349 387.59739170210554, 736.1779472198876 425.045331751701" stroke="#2ea44f" stroke-width="1.8" fill="none"></path></g><g><path d="M700.7366926717148 405.0891126650098 C700.7366926717148 405.0891126650098, 700.7366926717148 405.0891126650098, 700.7366926717148 405.0891126650098 M700.7366926717148 405.0891126650098 C700.7366926717148 405.0891126650098, 700.7366926717148 405.0891126650098, 700.7366926717148 405.0891126650098 M699.271205808231 411.81276574852274 C701.4683950790081 408.08130733373025, 708.1967512794639 403.29454164298653, 710.8733268162687 397.31437703405015 M700.3846869984357 410.9032981157522 C706.1198840513772 406.25212197977635, 709.2493874208297 402.16284009079897, 710.391073219486 399.0910067370951 M698.7195674534556 416.6178806684135 C703.8295467396354 410.37160031259174, 709.3604771358088 404.22393529717607, 722.9260366805291 394.93080534975894 M702.121678283405 415.9097531548856 C709.3539085905295 410.658815259822, 716.7299455358128 401.5330158926624, 722.6795392074085 393.8512803409613 M699.4962387192988 422.4966924793736 C713.6635354178909 413.8817147714241, 721.4588069605811 403.242951113248, 730.0424851208518 387.9319407715413 M700.2349180955434 424.88886317980445 C708.8483169192209 413.2313362808167, 718.2162510275797 404.77044590890915, 731.7560577809403 386.9978159054133 M698.7713579301484 431.1761597003454 C708.009158135109 421.2705171527912, 714.442337010262 409.1936083530518, 739.0587052787755 386.03453834306305 M702.5777002130396 429.52449714500847 C711.3201720264487 417.3573057010899, 721.1301496380308 406.77152470061185, 737.1815088386749 386.2851782436282 M698.968158590523 433.3209749292743 C707.1468726673451 425.7240217611725, 720.84540900098 414.6667360574251, 740.7087119197338 391.60465444026477 M700.3936682966626 434.499999992193 C713.4018254481891 422.132847109217, 724.53111577266 408.0986345926685, 741.0509423022954 389.80745107529646 M701.6903603209037 442.52074244321483 C714.0405682892213 427.2152468777917, 720.9763541627441 413.95997096209936, 742.4024746642076 390.92564334020074 M701.822577123143 440.75800334216257 C715.6393657959117 426.01614828320265, 728.5432890204038 410.0078570573146, 746.3509879485332 391.21039102122245 M699.9858146837905 449.21823567966703 C722.4815550703647 426.9718648424723, 736.7695731172953 405.535463799819, 747.1940950746971 390.9340284803712 M702.6639384112314 444.92868297616724 C713.9970230766511 433.41463009430026, 723.7821027172223 420.22634920550024, 749.6280324961382 391.5272988626563 M703.4268003286551 449.5358493354624 C718.4157341962095 437.5401744438219, 728.9413955966434 420.77094267160686, 750.6378656847118 393.46479287849877 M705.9573159666488 446.45621093478854 C718.6818080586913 436.2912904441166, 729.2277621240396 423.20786316634184, 751.5442786348699 396.52430996107074 M708.5494327020352 447.0226951689921 C723.1060848626807 434.39228867332633, 741.1367500148074 415.4096764512076, 752.4125061147324 399.2325408116378 M709.3217353921837 450.04585132016757 C725.7808065753874 428.91278619405796, 745.1772608336462 409.0134235831179, 756.6019811414592 395.7815559372701 M714.4142543374405 452.10750619797903 C726.3113047487598 436.0632191866241, 738.3894184103833 426.65859754305376, 761.3848088982688 400.15975529751137 M711.8162743775949 453.01686449377735 C727.9224071334056 435.6173294430053, 743.2272705947604 417.9857514885983, 759.9070927056657 397.3214221527274 M718.8062348553518 457.0986366994776 C732.662547846455 439.7682427261355, 744.5365265201362 424.2410720656303, 762.4338755978208 402.55795977361925 M717.4400626996139 453.00250707642215 C727.266365877223 441.99704489307175, 739.3814674492118 431.2616971077367, 762.8935000462394 400.2897093886925 M716.8984167892788 454.11231969121053 C738.57572165128 434.78852333170084, 759.2352652689509 417.3221422741035, 769.5950577758884 402.8824276774616 M718.6959280480002 456.9782894295748 C736.879818857434 437.85451139113457, 753.5186207898997 416.0077221446648, 766.5669648819303 403.4103434264154 M725.6761517017214 458.25382861067783 C737.2243493200793 441.1995515018182, 752.7269465883409 425.2937805910989, 770.4038979659812 408.28689202676105 M725.1146321415035 457.1431373344852 C732.8616170232061 445.67550400092443, 746.2542391921119 433.38096740295504, 767.9490649024979 403.8400846273689 M728.2810411551797 457.77218689537943 C735.4362655739093 450.00292181905735, 750.3631171448549 435.4820684041713, 773.2961296726182 411.6235454194631 M727.6988116988741 458.5741015724033 C741.6539983872426 442.5961054299295, 755.7168993871393 425.6631756178549, 769.9771937687113 411.26852793324844 M727.154877683163 460.21487756303827 C745.0436370877078 445.1217561100635, 752.3745202862655 430.3507027711263, 768.6879725162801 413.86949213262244 M730.5669194098714 462.08106750480215 C740.8163572103931 449.9979798471138, 752.5529804404528 436.9190062054722, 772.2848562573013 416.6445549648587 M736.4638809061526 464.4090048907087 C744.7473119421344 454.0734932107533, 751.7800946324028 440.9253704840778, 772.4397780594671 422.85500560373885 M734.6774600512264 465.687916752486 C746.904366692644 449.37241862000553, 762.9129883033278 432.94325498549426, 770.7653140870178 423.60459150344946 M739.2426385026101 461.8160039949996 C749.7614789780912 453.2246800536529, 760.8168661393115 439.0131484984549, 772.8242068936698 425.9993996900896 M740.6729314576511 463.48723677581376 C750.3223229544337 451.6930199949446, 761.6403385126127 439.6866941044719, 769.4397630056017 428.30847875004804 M750.7138110640267 453.7051887331883 C756.8052402559315 446.80070124308, 763.5695074393296 439.76223934916266, 770.8701696103788 436.46573824895205 M752.2995293768862 457.11386877581276 C758.2972522634813 450.3694033119304, 763.5072824835484 444.37209322524257, 770.5012737607932 434.29418290568174 M761.4731511760067 448.8902067371584 C764.0508731362895 447.8492725976319, 768.1852946706725 445.11880762586264, 769.1406867562537 439.29902506458524 M761.8445604008746 450.14490033173337 C765.326844916943 446.4822474459341, 767.5648658412481 445.8052989306012, 769.8918659358029 440.2692010848499" stroke="#eaf7ee" stroke-width="1.5" fill="none"></path><path d="M766.8988906611913 404.19101815819744 C772.1374852587694 410.25755374580626, 766.7532004763597 423.8493395775557, 768.3196691264624 444.1883152544499 M769.9660808165783 406.12700884044176 C768.614488515448 417.5839272275568, 770.3059396835083 429.58032010197644, 771.4958054145092 444.26307556331165 M769.3183644999975 447.4126911699772 C763.9949743829758 448.76564578894306, 751.7972108639545 453.35479691881466, 737.8034429760003 467.9264494478703 M768.7641701300854 444.6962611407042 C758.1424198039479 454.0872849153413, 746.283956101169 458.716531867726, 736.569214636209 464.89025938212876 M736.6379293651604 463.41894059777263 C728.3261603768193 459.95877728672843, 717.53132618803 456.19553097920635, 700.3507849407727 445.56107411980634 M735.1224182189727 466.58040296733384 C726.0860757410561 461.18791662736226, 717.5802783696697 456.2515913373081, 701.0466308159166 444.3373131960631 M700.6726248455577 441.8951180040837 C700.7927497685486 437.351051221788, 700.3862420857483 428.6054768711329, 698.0704846096569 406.78379083275803 M700.8963920158678 446.56019603908067 C701.2847804290586 433.0426654979587, 699.8203996879392 422.2108008503914, 699.4867458862597 406.3318737238646 M699.7812405300671 407.48282495141035 C712.2449168281348 397.5600773033619, 719.0212690069923 395.0494661410272, 737.5740654201531 387.6424511492253 M702.1197834533983 404.8882770746947 C712.0169636447289 399.23433985617504, 725.591131088891 390.90290276688086, 734.885360628488 383.5734526842833 M738.4252998561883 383.17991300225265 C747.6785526165455 393.0668805203852, 754.2389576249276 397.1310347973821, 771.3757846583837 405.9411566317082 M736.0633933128142 384.3891577929259 C741.432171909039 388.83502317453946, 749.0025637735198 393.85007478009186, 770.3753846724743 403.6334367960692" stroke="#1a7f37" stroke-width="1.8" fill="none"></path></g><text x="735.4551732809567" y="430.00000000000006" font-family="Marker Felt, Comic Sans MS, sans-serif" font-size="13" font-weight="normal" fill="#57606a" text-anchor="middle">agent</text><g><path d="M897.8574922965453 330.17783809337334 C848.8844030844829 305.0109520049728, 793.6328669841815 275.15508910624646, 738.3221916663784 232.01774149876965 M901.0060277243695 330.61303193918434 C865.1936294389502 313.03626282339536, 830.4314112325029 291.94063277845686, 734.6370828742606 234.15560205930177" stroke="#2ea44f" stroke-width="1.8" fill="none"></path></g><g><path d="M701.1337263158986 214.63237770413673 C701.1337263158986 214.63237770413673, 701.1337263158986 214.63237770413673, 701.1337263158986 214.63237770413673 M701.1337263158986 214.63237770413673 C701.1337263158986 214.63237770413673, 701.1337263158986 214.63237770413673, 701.1337263158986 214.63237770413673 M702.7193169185376 220.176495985491 C702.6164519703851 217.3530455916, 708.2309447259505 212.99720502102807, 710.7432362511602 210.62503331166786 M700.8951896223283 221.48778066466542 C702.9823282045827 217.40367190782626, 707.4287048275345 215.10271111419632, 711.0493931117502 207.68285085064454 M703.5640941687112 225.27927739843997 C707.820109950862 216.15185397752944, 716.8331533440773 208.50576303662348, 724.5418067318737 205.2991804458822 M701.3806414865142 226.23485506251725 C707.7904924154077 219.37902905275124, 718.8354769998061 209.07338462925264, 720.9634165821016 202.428260793599 M703.2424050413954 234.02345304302625 C707.5317699310436 224.59073411780858, 721.168461721121 209.51533069255566, 735.3039748411734 195.8145550384941 M701.4052758016574 232.35792165063077 C713.517836892735 218.09184861955472, 723.7846391387033 205.67577845675544, 733.1399455484111 196.75656411049985 M702.6957878665344 241.84594361451497 C710.0260285964193 229.16791717833453, 716.9238047728892 222.76000264598477, 735.2069115102347 194.82976375809503 M700.259726026775 237.90487659093964 C709.8940444470649 227.12328492086533, 721.209097815452 213.42791245035352, 737.1956296101268 195.4411636515577 M703.5813802333593 242.4751229212106 C708.4632500486001 235.02574190871076, 721.9554890491405 226.75853984755082, 741.5419383572794 196.3903458327668 M702.2515692042231 246.36693548862348 C717.2614921716325 227.64027270887536, 733.8890258796312 210.47385339409587, 742.4800423385955 199.60762794172933 M703.9852086151388 254.05507809230875 C713.7992928486625 242.82751045056565, 720.718093929907 227.13538090696352, 744.4656200585098 198.72929633014547 M700.8125837603955 250.68071476975274 C712.3558771478661 236.8279291388992, 726.9827676043259 219.74948973615986, 745.1533128631444 200.74866884552586 M702.2827786590854 258.2985137756682 C716.4510374455342 244.22237351081048, 721.5842350435091 231.83974655082332, 747.0512921161856 205.00474279920377 M701.609339795629 256.33113587906126 C715.5453713698906 240.18899230411012, 731.4866090008271 223.53079232773035, 747.4876536391582 203.01181820879498 M703.222425867458 261.0885575202618 C722.9394292407834 238.17188824125796, 738.3362007553734 219.37423408200164, 754.3814740615567 203.11697820869185 M704.6765497653086 257.90323066239694 C722.2343360774938 239.55723799211145, 736.3234147074245 220.75228584413244, 753.4097736510118 203.7664607971618 M712.1056107425167 261.0052118750624 C718.027306373994 248.0096452452549, 730.0245417238614 234.12731289181534, 754.1918104258731 205.96317052735955 M708.2473636248185 259.55859346560754 C718.5402986243502 248.70904987675846, 729.1340363550087 235.73661219005862, 757.1948193830802 207.4085438762513 M716.0869187865205 263.2253543890426 C729.3939757836546 247.5906687145962, 741.8312914031007 226.32125175125714, 758.3150117113945 211.6920723041797 M714.1033688295431 262.4853811345408 C727.1271429558543 244.35413595221175, 740.4356225730311 229.8972402254949, 759.3603157907482 208.76528679191117 M714.1301195307198 263.86802803095253 C733.7604870761744 245.53997460690297, 750.267392854962 221.55604187832262, 761.0050905073514 208.18518234745682 M715.9806493638578 262.79360343482165 C734.4194059821618 245.68970288087385, 748.4013357092387 225.43422916183948, 761.8404024163714 209.52634264932098 M722.5960484773738 265.4038603497649 C736.5029517339613 247.2295621559898, 755.0216001512279 225.01799331415887, 764.3010073160037 213.88500320616365 M719.6076676831466 266.074542212298 C729.4892529017313 252.58051955495952, 740.6825106630648 240.56507653594164, 767.7994792153344 211.82205579432843 M723.9668432157135 271.53622515378413 C737.9692763431518 249.57703991276804, 754.9616689502042 227.7059195104861, 768.3509066686014 211.8762028490501 M723.4795008297658 267.03191307214917 C736.9348634218192 253.42818139907854, 750.5019921594628 237.61147822928885, 770.4064426720122 215.4546234925585 M727.4095892479988 267.2294999919832 C743.7641846752349 255.77070640612385, 757.3016781364391 234.76080636447227, 771.8318219804323 221.95916256575734 M726.6714862591001 270.260122860223 C743.6804728940497 249.83121645200183, 758.6987569972795 230.46494921532116, 772.5043906548179 220.32164383052736 M730.3005561054792 271.19022783311186 C743.7337734944125 253.0913191474118, 757.9999200266452 242.142904885391, 772.6102658407276 223.80288116458985 M732.013457955524 273.07543134214455 C742.9128869943708 258.049251785391, 755.6366297746149 241.7733904295362, 769.7212127061074 225.51901991341447 M737.269138319405 273.7218266459201 C743.8102231505333 262.8916608634402, 750.483296197409 259.6022825829895, 767.5058758387182 229.773232453852 M734.7836874034127 272.92066078353866 C746.7639793882577 259.0288089777856, 759.0105797448311 245.3885013685545, 769.4832358682368 232.51921734639913 M741.5781505659787 269.25104149804434 C747.8734315529081 263.6479866348655, 756.3090807380439 257.76039593672726, 771.3353555346445 235.5876748220711 M742.539178732094 271.8416480489167 C749.3494274464703 264.53476674878124, 756.5372454482169 255.35166586599232, 770.1091656545715 236.57597381488372 M751.06323737645 264.9750403582343 C755.5609764471724 263.4028731940113, 758.7190181664241 253.5026037114513, 768.1003564017757 245.32467039844266 M751.5050784259424 265.0843404039034 C756.8998150888309 259.7253386554554, 763.2541535200666 251.53146133896246, 769.6479679915054 246.08371824493875 M761.1676089133402 259.2119701846128 C764.4432246477529 256.5328815101665, 770.0415197343315 252.3992915124191, 772.7268007563498 248.78015035344012 M763.3072803350618 260.8911681068873 C764.0461133435574 257.8593487321707, 766.3317613894919 255.24869238708044, 769.9587051611837 249.23767609124727" stroke="#eaf7ee" stroke-width="1.5" fill="none"></path><path d="M771.4705121775381 212.5332337409258 C768.5347206749432 225.31880758479238, 769.1658441223614 227.88143526166678, 770.2499176760429 258.01605205833914 M770.5282159154527 214.95036661475896 C771.4115098785273 228.13992202952505, 769.3380647014491 240.0789143949747, 768.967206556093 253.867580960691 M768.5770912905448 257.8135976821184 C761.4791733080215 257.45627628510726, 749.7815695376416 264.2017953528268, 736.828319382789 273.33548155128955 M770.8404544656389 255.01742265075444 C761.909310225708 257.5972414133151, 756.2474016536614 264.2142917194416, 735.6202175901554 273.85384933799503 M735.1224119426034 276.27743635475633 C726.4683737408093 272.5305287887502, 717.1881942528208 267.5841934592623, 700.0891154987149 258.1154365569353 M735.2129357145451 274.75043175071477 C728.135755180408 270.0009584322105, 718.6784444032671 265.1120384785811, 700.9489503649406 256.004264138639 M702.7196582538419 254.6447692900896 C698.5055063856177 244.63326916620136, 701.727105296903 228.7487252190709, 702.2173651439481 218.05406160652637 M699.645123079174 256.557352899015 C701.8898249504499 245.04571303352714, 701.2351312992505 235.26871519684792, 701.791930797451 216.31272184699773 M699.4788893443875 214.68874101936817 C713.7242568066029 212.10578238281298, 720.0703484268074 205.30155613745438, 734.7539862872385 197.60262623131274 M699.8130424765282 216.59458258002996 C709.535919637816 210.21148868458593, 720.8441402842805 203.7420918031993, 734.2732311533116 194.27155644744636 M735.6660231829904 196.93562107384204 C744.2795640418265 198.87447065947433, 750.1679108806892 206.08606452768524, 768.4957557459586 214.86552496254444 M736.6782661722325 194.91695477813482 C745.2259865582269 199.20978866373517, 751.5840068744958 206.52591538396993, 771.6524700467698 215.0215394243598" stroke="#1a7f37" stroke-width="1.8" fill="none"></path></g><text x="735.4551732809566" y="240" font-family="Marker Felt, Comic Sans MS, sans-serif" font-size="13" font-weight="normal" fill="#57606a" text-anchor="middle">agent</text><g><path d="M980.5734723201629 286.15388734973965 L980.3705964318152 373.93188092149796 L901.0239616271108 424.05170226730405 L822.0458078862492 377.9209563676268 L822.0104845644299 283.22888882793484 L900.8926132436842 238.93388587869703" stroke="none" stroke-width="0" fill="#2ea44f" fill-rule="evenodd"></path><path d="M976.8755189357933 282.24607044421134 C982.3860547887544 302.601973503083, 980.0304301964503 320.65017354376613, 977.4971095143493 374.2448879238218 M978.9174146287751 283.79306636769326 C978.8987502037074 315.72487300988286, 981.0387600897338 347.89269974026826, 979.5866691403698 374.9775955589488 M977.9340387402709 375.655552386865 C954.0419017333467 391.2424399025148, 929.5226934508046 405.9419036303987, 902.4273679915816 424.6803216334432 M979.7915787034344 376.5671142490581 C957.1665060980788 388.64218685080687, 936.5862769161753 401.76243547269536, 901.1873930929229 422.65198847968134 M899.1174557868392 419.9082865115255 C874.3332987289165 406.8933572011151, 851.060158989984 392.92027788051297, 821.5229375192288 377.64546992741526 M899.154419660382 423.39142629820856 C880.4838865336401 412.0352788519728, 862.3093977737682 401.53107623557185, 821.1273700896044 376.41007452327756 M818.8637424775724 373.2416141267866 C822.6659533446867 358.71666715741156, 822.4881062334616 339.5535606268793, 820.5253061243657 283.3804084893316 M819.661640614583 377.3825857670978 C820.7283948974673 343.32592522781346, 820.0877283232276 311.8442435169593, 819.0449204328794 285.28269475419074 M821.2737618395452 286.486235916242 C846.9158647143109 266.61533421693747, 872.7209078671561 255.13003705280278, 902.3270153108984 240.55607237778605 M821.5968743685025 284.6511212201789 C842.267460350951 273.25058673026257, 863.5351602681881 259.9470893917813, 900.4507069645449 238.07588554937394 M902.6994303766638 235.8037119384855 C929.7734810274297 255.61838648251245, 955.8820375801023 270.81313855859435, 981.6341600595649 285.81175602637234 M899.5660962639377 237.03275653440505 C924.0120072467363 253.3738884651392, 948.3277521558216 267.69446450726235, 980.4964850657295 282.70212859828024" stroke="#1a7f37" stroke-width="2.5" fill="none"></path></g><text x="900" y="326" font-family="Marker Felt, Comic Sans MS, sans-serif" font-size="20" font-weight="bold" fill="#ffffff" text-anchor="middle">shared</text><text x="900" y="352" font-family="Marker Felt, Comic Sans MS, sans-serif" font-size="20" font-weight="bold" fill="#ffffff" text-anchor="middle">brain</text></svg>
