<?xml version="1.0" encoding="UTF-8"?>
<svg xmlns="http://www.w3.org/2000/svg" width="1040" height="470" viewBox="0 0 1040 470"><g><path d="M6.029094529601787 7.855509706555868 L1033.553722419631 4.206740663473626 L1035.1087001129038 463.90649351812556 L5.57871429993946 465.4272354922543" stroke="none" stroke-width="0" fill="#fff"></path><path d="M5.416849909295603 6.284782241667074 C313.37003460987376 5.392435012849167, 619.7581305861144 5.530765469605944, 1033.3359610281184 6.692659274186725 M6.286003626080958 5.7359088003381595 C338.0137149971699 2.1624344443784067, 670.8794090873902 2.2306115690734343, 1034.2943020798955 6.021506189014487 M1034.4097202914288 6.656656534080713 C1033.3483622264132 167.26043405147183, 1033.0164548950356 327.37178933734043, 1034.5329420218754 464.7177082357617 M1033.9645560177407 6.290699098983177 C1034.634607359936 184.642263540771, 1035.3353853904719 363.0856192798113, 1034.3258220574075 464.0528570928223 M1033.642216176716 463.3419094818449 C683.313361077165 460.8902540281589, 333.871667628985 460.7401885068538, 6.285438542996293 464.4851702499925 M1033.6736615378281 464.36788595917574 C807.9434424344099 459.67068806409446, 581.9025190019719 459.89463935691873, 5.780886110177248 464.3909019376105 M6.862342410378968 463.3192465589667 C7.315763554309087 332.4729569244591, 8.385650532584565 199.81917051642208, 5.367461555959284 5.3917681758713 M6.045476921278643 464.24347623659196 C4.626007653910165 302.03947678143595, 4.418512227894071 139.68848359032125, 6.191008355687406 6.07156551734988" stroke="#d0d7de" stroke-width="1.5" fill="none"></path></g><text x="36" y="50" font-family="Marker Felt, Comic Sans MS, sans-serif" font-size="24" font-weight="bold" fill="#24292f" text-anchor="start">How the hive mind works</text><g><path d="M390.0538997463218 127.81138796048646 C515.7891657992044 171.33808279534443, 640.8542972328224 221.53656289931592, 727.8294454320315 254.8032497370465 M389.67469578745033 129.79482845646115 C481.1814787238449 169.46919444620843, 573.2441210142371 202.22388353660617, 731.0617208285657 255.3769812082087" stroke="#2ea44f" stroke-width="1.8" fill="none"></path></g><g><path d="M325.0725188275778 110.3295403099836 C325.0725188275778 110.3295403099836, 325.0725188275778 110.3295403099836, 325.0725188275778 110.3295403099836 M325.0725188275778 110.3295403099836 C325.0725188275778 110.3295403099836, 325.0725188275778 110.3295403099836, 325.0725188275778 110.3295403099836 M326.0443233533508 114.10584420442372 C328.99705723353253 113.12871630157356, 333.6157118632903 105.2727164685106, 334.168447463691 106.01920673640349 M325.4742835732854 116.11562066666572 C329.9016790402808 112.46068174283499, 334.1455828621584 106.85800711286866, 336.6641214826253 104.2997747173337 M328.1285646774878 123.69893990770993 C332.74282094925366 117.57152462455885, 338.5945941880036 109.69052626184234, 349.56843907369824 98.33268600873149 M324.4462357143012 120.99755792773408 C329.263296565057 117.547991247956, 336.77789084463154 109.80385683431962, 347.45019215189444 97.43552361739299 M326.29932584109036 128.31110847197965 C332.132722806482 115.57916741375568, 342.88715942825775 103.39879578318617, 355.96851436020773 89.46541169821187 M324.72522295367224 128.79062991185606 C335.04856862197636 117.12608583795577, 346.7951146511838 103.7247593264765, 357.2922552062195 90.75978953321366 M323.94875640740406 133.15411328730957 C337.94820515765736 119.15476819302943, 348.2426931956955 105.48878671522095, 363.8177957446259 90.88637540719846 M326.18748708247927 132.9225298424423 C332.97537011475674 125.1889659415974, 340.71866727904165 114.9187991871404, 362.4392701508422 91.07743787390554 M323.84073400893504 141.98505507621124 C334.5590492486881 129.55441168959322, 342.43387063238936 120.46155521400063, 367.87294297994004 95.17821963525726 M324.42516806233 141.20124650352776 C334.9543521866466 127.6339730735838, 345.9897628837743 116.55211341968203, 366.1661004741013 93.18362029430806 M328.4432378406894 149.2475579986963 C336.0057266367674 133.82375721156703, 347.1690948665074 120.56522128068316, 371.31308543961813 93.19444115900882 M326.45179257358205 146.19306946039754 C341.5670324507347 128.61744159935864, 358.14024099319715 109.47335648402904, 369.52798944106644 96.82549507006519 M326.42853963118284 152.17022923249914 C338.80829339834713 139.84764646908562, 346.897875639921 130.51740956349616, 370.6475998856854 100.44081767391032 M327.21808998635277 152.55542363980948 C340.2441063067847 136.85265455951406, 355.893329622312 118.5256809189599, 371.7839628616143 98.81802873940757 M327.45368975840245 156.09157065218574 C340.1842491672306 141.83914811470913, 351.5647361202039 128.40811589157036, 377.46477367165744 97.13619073269606 M329.90810347648073 154.09615600910297 C346.57948274488797 135.2634423083737, 360.63104706063257 118.28730377086521, 376.16111729336217 99.33915404159293 M336.7561769599019 157.35082463138164 C343.58035632786465 143.8838617921233, 355.76729805586615 134.13978466422992, 377.93199571354995 103.31092532560046 M334.5504747356212 155.898756378427 C347.8589100321965 135.5159224990086, 364.79718998420697 116.93548612459512, 379.8704360126772 100.76260449712913 M340.5268276516967 155.32991866032123 C349.6540419220855 143.9782079087834, 365.03775871810274 122.40640230917325, 385.29594746088793 106.90536946058069 M338.90696829014126 158.0986770182894 C347.3907491036484 142.5951295604582, 359.96350038305104 132.69905762779914, 383.622604985686 104.99074898799677 M338.4418198123025 160.8160536667388 C359.1849482165023 141.04319885034727, 376.9519948186185 117.04364043099645, 384.6630890126681 105.09476584242552 M340.02011038515815 158.48029598044792 C357.83283688029627 138.2057030533366, 374.7811016780818 116.40548483242912, 387.9241239842368 105.51387843675806 M345.16287395374457 163.10016359609153 C359.7745505545739 143.15992600903104, 380.36324132007366 117.49223943386983, 388.2195549434156 108.1612593540921 M345.2290049555486 160.30975167813313 C358.9584708712729 142.0163231841148, 375.09783445660617 124.71914891648848, 390.3128274119564 106.5165882878936 M350.11773923751934 162.30182709066833 C363.63292634517825 148.77525803300904, 376.6183195921747 126.81040732687092, 392.0116404191459 108.81880873581488 M348.9654447419107 162.8942295651574 C359.66417877294816 150.6384497118408, 369.39783972448265 140.22531435521623, 393.6539954202118 108.93706518691127 M351.7200893006521 164.24127497092624 C363.23876099742756 151.97867363302976, 378.3767891034369 131.16610265078202, 395.1656970234223 116.08519406644203 M352.48943211662123 164.1883446172512 C368.1145340965243 143.7900628044023, 386.61640560816636 126.15379750937151, 394.3758747341678 114.57346946168266 M353.1500083716583 164.76430191459968 C364.98406635936175 153.02490836278184, 375.07841470434636 145.1198483106796, 393.88526819221283 122.30512306009408 M355.6852901997973 166.3534280111724 C371.4825224582621 149.6831178949585, 385.38947991697773 133.02247822420964, 394.982439087644 121.84141641910176 M357.19812321256325 171.59543561714582 C366.7640722493777 160.35001135652834, 373.94632451252517 153.45874842648482, 394.11039475004264 126.5693343497282 M358.42141980131566 169.34507128515162 C372.71362749197186 151.98631956507623, 386.6693420816799 136.07204219364306, 394.7283197592672 128.42745462864917 M365.98244340880643 166.13459098951682 C369.6989956025304 157.67989934001864, 380.4240321692941 153.13629024209564, 395.5783961709083 130.26596126513317 M365.28276471071746 165.94415553666443 C374.1264311439512 158.69517891980823, 383.4277072905884 148.85988368337283, 395.1952118333855 131.57480470038712 M375.9834307894321 162.89501176261535 C378.01525489249684 157.19226212465134, 381.628423573227 151.07723763061423, 392.3877073753446 141.70724889448894 M375.12150611739844 160.92916802688694 C381.2604444871817 155.37101145159073, 383.91812418783803 150.73669914287322, 393.87133599713513 138.94445134651897 M385.4592832985674 153.48995284358756 C387.9508093721436 153.2337532664152, 393.6029042546251 147.75798599982903, 396.60615255014574 144.25442000929604 M386.6764962086794 155.77433685962828 C389.62386967113906 151.76587438281442, 391.8174397790138 149.15762832494855, 394.6076634361555 146.18639858750964" stroke="#eaf7ee" stroke-width="1.5" fill="none"></path><path d="M395.07049200925377 111.22913554403931 C392.1530571646928 120.72468356508762, 396.350283242011 125.02556090895087, 394.68905622753647 152.94251626823097 M395.77602442735207 108.98448956711218 C395.4520537908129 122.37312428234145, 395.80410217297594 133.37095804465935, 393.28820900255215 149.64611905021593 M394.16629798206833 148.879249275662 C386.8305273586535 152.530565592011, 376.05735492653355 160.7479297151021, 358.4291081568226 169.479837984778 M393.87359897428524 150.00544457836077 C381.48195659699394 155.89270124757263, 371.31195036591646 163.3880029356626, 360.05157634662464 169.64182791812345 M361.89601208176464 168.39919886086136 C352.29376237860066 163.4767474298948, 340.295843523501 159.8330646613264, 327.1324083389774 152.97357392404228 M358.9243007604964 168.92200992209837 C349.4122198496827 163.6847560280331, 340.35634823793043 159.05751489897747, 326.40110673467296 150.31383254332468 M325.9544529499546 147.888990403153 C323.03753049113453 141.17528014350682, 328.0442801509112 132.62624368909746, 323.7974863531128 112.95439425203949 M323.9936607078709 151.48667278094217 C326.0951300426446 142.34220697311684, 326.8905382766448 131.7398167992942, 325.66453811983246 111.4102255771868 M326.9417126657501 111.90273156855255 C334.3379316253664 104.62424380114118, 345.4656268843544 98.37302006749252, 361.7808790644631 92.81332069728523 M325.04613551954407 110.49830705625936 C333.1056532136431 105.06652626479791, 342.46059074685985 102.26136562871562, 358.63064308511093 88.77236138982698 M362.06589059438556 92.60488158557564 C368.05277315041707 93.30715944261128, 378.988032575207 101.65716988795275, 396.14088062438515 107.95797655079514 M361.3822165285237 90.97404836816713 C366.8515989200079 95.08581243375477, 373.6367000397028 100.14235551016566, 396.1273538433887 109.00673107011244" stroke="#1a7f37" stroke-width="1.8" fill="none"></path></g><text x="360" y="135" font-family="Marker Felt, Comic Sans MS, sans-serif" font-size="13" font-weight="normal" fill="#57606a" text-anchor="middle">agent</text><text x="300" y="124" font-family="Marker Felt, Comic Sans MS, sans-serif" font-size="18" font-weight="bold" fill="#24292f" text-anchor="end">Joins warm</text><text x="300" y="146" font-family="Marker Felt, Comic Sans MS, sans-serif" font-size="13.5" font-weight="normal" fill="#57606a" text-anchor="end">already knows what other sessions did</text><g><path d="M388.52930182840765 256.2579199376215 C493.3202612487964 258.0276962861378, 601.2815264921321 260.97860107240706, 727.8956310949754 252.93607297475214 M389.4815045382268 254.1794376188161 C515.9360739317244 265.1552385793138, 644.8567847637281 264.1604902905495, 730.9842926278561 254.20262603643565" stroke="#2ea44f" stroke-width="1.8" fill="none"></path></g><g><path d="M325.29472439881835 235.07392204092008 C325.29472439881835 235.07392204092008, 325.29472439881835 235.07392204092008, 325.29472439881835 235.07392204092008 M325.29472439881835 235.07392204092008 C325.29472439881835 235.07392204092008, 325.29472439881835 235.07392204092008, 325.29472439881835 235.07392204092008 M324.23920053383284 242.66157361641942 C327.62088458953997 239.9352071235214, 329.2390685439135 234.52481990912358, 334.40685807594883 228.79712341745108 M325.80739981424944 241.90903860577797 C326.40229701596127 238.6946270192157, 329.58267369028755 234.62722943876605, 335.29384245009015 227.36984759313708 M327.1353503425368 246.90902986740588 C330.69385326667754 238.36359938210342, 339.56434547608353 229.36054351340323, 344.27715099766147 224.6053179983248 M324.2165555867129 245.76737149143486 C331.650638211131 241.19288244003232, 339.2605626325177 232.73872464206818, 345.0352546914969 222.0287231287186 M323.0052842688835 255.66972683738172 C333.02282776578915 242.73884774316812, 343.5917759888621 232.01009460568875, 355.36620284250597 217.94539309877624 M325.01636080398174 252.3451525652334 C332.8516172726899 244.8902679103346, 339.65742534702434 237.4340318600662, 356.0546918577201 217.9986465007784 M328.0929513422627 258.2470662321397 C339.9301737289109 248.09386271275855, 350.2782787327544 234.1819385259947, 359.4006665874467 215.68417957076872 M324.47942815235297 258.86916609829893 C333.07452353930853 249.80600815207276, 341.91739720663367 239.97886095007297, 361.6464358749063 216.21345453081722 M328.0156158289122 266.3646395754065 C335.7909437066408 253.90941237345618, 343.6137029751859 247.26966436169755, 363.1191346346359 220.7548358410241 M326.0169366929861 265.1240692881863 C338.9001119798268 248.0496344339089, 355.5696312082765 233.47972309027426, 364.9709236276294 217.46131663188504 M324.40364095704115 269.9057377752407 C335.68968882859747 258.19142467357636, 346.93441773181644 248.53642612275414, 367.7123261162733 221.60039636237815 M325.31390663651234 271.3403515292822 C341.5171376158056 254.35207198655664, 356.92640999611444 233.95074225116633, 368.87021091801125 220.8576610556458 M328.43192988783983 276.48056070425525 C342.01290639254916 261.47164540038386, 350.5204050824377 250.27536111367652, 370.9787639815777 222.7221428731121 M326.07939031404374 276.04279399302766 C343.3068441956248 255.58024937714828, 359.0859121742576 236.5878810084833, 373.2423995526924 221.6747961517088 M327.72713057052704 276.0122651007313 C349.2819502870431 257.5458312616069, 365.2106023497247 236.2344355820403, 374.1683340257773 222.73739481672987 M329.172427032221 276.917767529032 C341.06581912596096 267.11671311193044, 349.1324144016715 255.4827192122794, 377.103946371823 225.68095078740612 M334.55513574235005 279.5494645686186 C347.8499191329742 267.87746910304435, 362.94482842382763 247.0627949962859, 378.794021006072 226.1731710210673 M334.0082930732132 279.90698266507303 C349.8755782067252 260.96541589891154, 366.8988075776167 242.28777945914925, 379.6201493650247 228.2151860269017 M335.288878073537 282.305181676421 C352.31538013320716 264.6709031661705, 368.61893448073135 243.3050885678334, 382.8830544676899 226.8069471796284 M337.24504683967047 283.5276917059828 C347.68613819050375 271.44738982171305, 355.63171058385035 261.24639681433996, 383.57504349744755 227.8094026125277 M339.2518891962877 283.7146383769742 C356.8224372100309 272.8931167025059, 364.33614101157804 256.8547296909454, 389.7886448598498 231.4603175306943 M340.84583788371447 284.21172915342515 C355.2245849153649 269.39896878632334, 368.41080456072126 251.46579448724555, 387.4018868257323 229.26325264389337 M344.9694455308304 288.7760134887824 C365.9023141512717 263.91525708045015, 384.4823277852053 245.80078360592205, 389.7214245067704 233.5662044375464 M343.5488027329952 286.9275191872323 C353.5043579172619 274.3525404603987, 364.15555600799667 263.71280737841045, 391.9333514690194 232.4925991581082 M348.9803044013839 289.8441043751267 C364.5436106408419 266.0097913007759, 384.6714838486455 244.74485274128642, 395.28088857868005 234.73606796868864 M347.8975510066535 287.25498734451355 C359.16093206049453 273.2082497044232, 371.85976098679197 259.72135301391734, 395.1517145799591 236.3779757100043 M351.3681450071668 288.1975365242883 C362.90859517534636 282.3614459001458, 374.14624555641785 265.356093888601, 393.64289509181634 241.5724058978478 M351.99135638632976 290.23402009987825 C361.70120625235154 280.07977886484935, 372.31147704711236 267.2708602615411, 396.5951083447109 238.85833637213656 M355.2930093934075 291.60597312977137 C367.8795434191093 275.47828925145313, 378.79276143309085 264.7922171889304, 397.3714010243887 247.46241538308243 M356.23534758717426 293.21292444565864 C361.8967628470072 283.89791217680016, 371.98040761304486 273.1540928263629, 395.38800609890615 246.00596741389165 M357.80303856730563 296.12377676941156 C371.85693803891206 280.82696552696234, 386.0843574295052 262.68580163181304, 395.94990328758723 254.14520254700543 M358.37099447380854 294.9233395710185 C369.5325533993475 279.7155754703771, 383.07069423218087 266.2900910037543, 393.9914132986567 251.8749468817106 M367.365913469042 289.65721898559894 C372.8857028125465 278.2603384241403, 386.9175591970288 268.8910530178307, 393.3765255226498 255.8072495383435 M366.22629903133526 293.32869644217607 C375.1214907967288 279.82860741297907, 386.2639284248763 266.0677758848556, 395.0167043176224 258.87786166064825 M376.77605982682604 288.55052818639217 C380.9782980236946 277.63130545643213, 384.8751289141998 270.6178129505292, 396.2560493617761 265.1025283099325 M377.8417502203857 286.4915157035181 C380.474135997605 279.16465067764045, 387.2633516383925 272.4034759071794, 396.53640370792476 265.08717125236853 M385.728773504033 278.31091325290106 C390.73538842524215 278.441109930946, 392.25317728247364 273.6769710065634, 396.0904749363497 269.03957684428593 M386.64942899616733 279.07217407214995 C389.0173998738127 276.13965527062504, 391.064959001516 273.7365417967068, 394.5922879995615 270.4579511381422" stroke="#eaf7ee" stroke-width="1.5" fill="none"></path><path d="M393.356387180829 234.67496265284717 C394.77546536735593 244.46962027810514, 392.61213666013776 250.43067309074104, 396.49866424276826 275.53101952187717 M393.303026082547 235.8813874805346 C393.8742613187 247.94774913880974, 393.69671937729566 261.9451496535912, 393.9176475727871 274.2753428602591 M393.4713543482065 274.2550991307944 C385.0340702461638 283.3641400495921, 374.6919039736749 287.6249769973014, 357.51492978818715 296.1758055817336 M395.8201155388668 275.3065334940329 C388.29834791639274 278.6830106424496, 381.2225436693753 281.87737266815753, 359.16189161594957 293.67019350174814 M360.47521449811757 296.07903863303363 C349.9181555003759 290.8681738674196, 339.3062935203114 286.09575454513754, 326.8870932370484 274.36828870885074 M359.0091609125957 295.20641190651804 C351.9859451117295 290.60209199136904, 342.090180469737 286.0494026365023, 326.30953131188306 273.8765990519896 M327.873546770221 275.4667884837836 C328.09323981963695 263.4103361722082, 324.501339411369 247.95149242691696, 327.68518685401085 233.1452731024474 M325.8205960797206 276.4840073371306 C325.46235928144904 258.3106483677402, 324.0168491622493 243.78778015915304, 324.82564897407445 236.39227069262415 M326.65825842917565 234.28327788226306 C335.76808053466016 227.8608617067318, 346.5356741993906 223.55939322635342, 359.1370548773557 217.77598483674228 M325.8835658537284 234.09796846751124 C337.5462683787575 227.07590846930336, 348.54347471072776 222.1097157060046, 361.0567717021331 214.42683366779238 M359.4790687132627 215.12585790269077 C364.7264058423352 219.25682218577114, 374.89179521391776 224.4768347201809, 393.44085351898667 237.94957186095417 M358.95865983422846 216.46885804180056 C370.5019187040094 220.49120577514333, 379.24404004764335 224.7590574668364, 394.3246213817909 235.30807728413492" stroke="#1a7f37" stroke-width="1.8" fill="none"></path></g><text x="360" y="260" font-family="Marker Felt, Comic Sans MS, sans-serif" font-size="13" font-weight="normal" fill="#57606a" text-anchor="middle">agent</text><text x="300" y="249" font-family="Marker Felt, Comic Sans MS, sans-serif" font-size="18" font-weight="bold" fill="#24292f" text-anchor="end">Claims its work</text><text x="300" y="271" font-family="Marker Felt, Comic Sans MS, sans-serif" font-size="13.5" font-weight="normal" fill="#57606a" text-anchor="end">so two sessions never touch the same file</text><g><path d="M389.7847619683417 380.94124933287054 C482.2929918276116 353.58858721829023, 577.4486559391439 318.1950110143818, 731.5154769000738 253.01403609244937 M389.55523021568234 380.8277590024037 C456.71728296181413 359.60941020618304, 528.0443199477018 333.6825100413452, 730.2265244409043 255.11935116257126" stroke="#2ea44f" stroke-width="1.8" fill="none"></path></g><g><path d="M325.5169299700588 359.81830377185656 C325.5169299700588 359.81830377185656, 325.5169299700588 359.81830377185656, 325.5169299700588 359.81830377185656 M325.5169299700588 359.81830377185656 C325.5169299700588 359.81830377185656, 325.5169299700588 359.81830377185656, 325.5169299700588 359.81830377185656 M323.1835563951788 365.52260902955425 C328.6957343361566 363.75268228906, 334.02246192504793 359.00935317948466, 334.19855236411576 352.31145788775166 M324.30550070308726 366.89629607669303 C328.25956122470836 362.08550723969364, 332.10163768256746 360.01683341445363, 335.7724959906239 353.74425306105394 M326.14213600758575 370.1191198271018 C330.6136109652137 364.4369923003666, 332.46353705490463 358.9585448814045, 345.64192195061514 350.1232404076954 M326.9868754591245 370.53718505513564 C333.47884155502555 364.64779643951346, 341.35708671330997 355.28461234188865, 346.2763762600898 348.8672130598215 M326.3673017256671 376.273635622561 C333.26414617898035 368.4118929482189, 343.4514596111964 359.360398916554, 354.7638913248042 340.4253744993406 M325.96355768328175 378.144965638388 C336.41574907928134 364.741113885791, 347.4989846607072 353.0767871984168, 357.8171285092207 342.2375034683431 M325.58108724813087 384.09472875719246 C334.3970571540921 370.17859699683197, 345.226082062952 355.5291742995318, 361.6395964592579 339.7272741541161 M325.11531019323616 385.57051193437826 C334.5429386191003 374.809370346926, 341.79192547690246 365.0726125765021, 361.5096606279607 340.59476160750603 M326.19049764888933 390.74422407460173 C331.02283816459357 379.4846828512414, 344.79353531798245 369.2980433033168, 364.36532628933173 346.3314520467909 M324.60870532364225 389.04689207284486 C336.3069799943104 377.82369458899626, 344.47547579459973 366.12413035039117, 366.7757467811575 344.739012969462 M327.0201031023833 395.80920797156233 C334.3149202873103 383.3445696944626, 345.4596364096421 371.5017548155132, 370.11156679292844 344.0063515657474 M324.83207972843303 395.7329240179441 C341.87681305360456 378.27696447379884, 355.8801632325413 359.8967632128534, 371.21243239495607 344.88982704122634 M324.4353201444968 400.7908921760113 C343.4138839399927 387.91900761791663, 352.14526780676243 369.07988339476157, 370.6538690484795 345.7581776525365 M327.9406906417347 399.5301643462458 C338.5122366193449 388.1970669285646, 347.9610602467504 376.4218913633757, 374.04477721478 348.28627314423267 M328.00057138265174 401.932959549277 C344.94916268378194 385.0067944694111, 362.40937248633236 366.1874555919959, 377.52795340888775 347.58388932054095 M331.43675058796134 402.7393790489611 C346.5343543819752 385.1680271912297, 361.0069910055932 368.07305626726384, 375.7028344792744 351.26803795299656 M331.69803549580774 402.5028140860783 C351.8567956144468 384.8033534027513, 370.2449293183149 364.4748950080353, 380.31210532758456 354.2807071363114 M332.8100523818148 404.6699185319418 C350.115446512354 383.61810724817116, 370.70262316050264 364.2922467396576, 380.0259217463627 351.9130579764515 M336.70698752436783 408.525735112298 C347.72877217103616 395.5528357451899, 361.43354736481587 385.34292808629334, 386.4701614744919 352.7085248986761 M336.23918441819023 408.20199681345343 C353.19342314851235 387.614375822759, 371.6739497485269 369.5686332880482, 383.52748200920917 353.6280562370586 M340.71801760926337 411.8585135069869 C356.33961492188877 392.4402717184535, 374.4286537589844 374.2068240544812, 388.25814167804094 358.58057879918596 M342.32762441126124 409.1884527461797 C349.88669727876083 397.28724120609405, 361.9185457462732 386.67243029381365, 386.22359063823717 356.7673364312515 M344.7760171079163 408.4518633814732 C364.16283311703916 390.9745428646283, 380.47425083447183 368.7122848493656, 390.5672350411348 359.7258591012235 M344.8686005104419 410.5452866963314 C358.78572900760565 396.1799643237298, 370.0816472542262 381.69148930830033, 389.8978164970919 359.2233196085456 M347.18681053625784 412.14109123980774 C360.3920342753151 401.5207705982481, 372.8555466094449 385.0868556488181, 393.20619576720463 359.8986176213396 M349.1735982424057 412.3704547040924 C362.95182588585817 396.13288176309925, 378.9789512180064 379.15449226382486, 394.30549276869687 360.06417665287455 M350.360141684691 412.90850765787314 C363.30245598774775 401.9930584362399, 379.5134192644154 384.5869120500822, 398.1200931602104 367.05961772925366 M350.83722162704777 414.0344051627281 C363.46085602923864 402.66249455414, 375.0158202413018 387.51592903367725, 395.81434195525406 366.14320328259055 M352.0920694441471 417.69293476472023 C371.4310795078473 398.3775485829542, 383.1631671908258 384.910464510011, 395.51359288555506 371.864998125848 M354.4414640035417 416.31771129992205 C365.35210095023456 406.94995197664855, 373.6163531772785 395.91549606780507, 396.4496321391587 372.41580882845875 M358.407953922048 420.65211792167725 C369.6019427037528 403.75666699589135, 383.5266680970979 388.81834943413145, 397.7894118251318 375.72107074428266 M358.3205691463014 420.50160785688536 C369.3514793067231 406.34265220697387, 379.47204638268187 395.4059606451615, 396.2545068380462 378.322439134772 M363.4054425582682 418.42513740145836 C371.84279572393945 410.8784541500442, 383.2769406652257 397.475878657353, 397.83071390338176 380.59382823133114 M364.8258923809436 416.958527767465 C373.86807821758225 407.8853922370693, 380.9471460663256 399.9914106392627, 395.4942558308498 382.4262090406867 M377.56868886421995 408.20604461016893 C384.34473479185596 403.7802635441298, 388.2811330574182 396.1491020125865, 393.46833231921704 389.2525173055989 M377.56199432337286 412.05386338014915 C382.4680705928516 403.2166936203291, 390.1619372385282 397.5896576497016, 395.5454123897238 388.9846007384409 M385.2197873838061 403.78125413815724 C389.46829980005174 404.08503346121836, 390.53373953469827 399.6948136638577, 395.59436546461586 393.69851915664015 M385.89589363080927 404.90590322915233 C389.4891725450893 402.89461350906345, 391.5491830382489 400.5134675449285, 394.51332364173066 394.6786866669308" stroke="#eaf7ee" stroke-width="1.5" fill="none"></path><path d="M391.64228235240427 358.12078976165503 C397.397873570019 368.21455699112266, 394.87399007826446 375.8357852725312, 392.30827225800004 398.11952277552336 M393.8300277377419 359.77828539395705 C393.49646884658705 373.52237399527803, 395.7893365816153 387.5193412625231, 394.547086143022 398.9045666703023 M392.77641071434465 399.6309489859268 C383.23761313367413 407.1584840226319, 373.3264530208163 413.46279379495945, 362.60075141955167 422.8717731786892 M394.76663210344833 400.6076224097051 C384.586536005516 405.47332003732646, 376.6767305122831 411.3667424006524, 361.2722068852745 420.69855908537284 M359.0544169144705 417.7588784052059 C348.14254862215114 412.25960030494446, 338.91674351712174 406.3584444289487, 326.6417781351194 401.7630034936592 M359.09402106469497 421.4908138909377 C350.95967037377625 415.55865843924636, 343.22401270154353 411.0805208585685, 326.21795588909316 400.43936556065455 M323.79264059048745 397.0445865644142 C327.14894914813937 393.64539220090955, 326.9583986718267 385.27674116473645, 325.5728873549089 359.3361519528553 M324.6475314515703 401.48134189331904 C326.02958852025347 385.2790897623636, 325.34316004785376 371.8357435190119, 323.98675982831645 361.3743158080615 M326.3748041926012 362.6638241959736 C336.59822944395387 351.09747961232245, 347.0057215144268 348.7457663852143, 362.4932306902483 342.73864897619933 M326.7209961879127 360.6976298787631 C335.05868031359626 356.0852906738088, 343.7699522140446 349.9580657832936, 360.4829003191553 340.0813059457578 M362.8922468321398 337.6468342198059 C374.32824176452885 349.206484928931, 384.6519643131796 355.29649955240905, 396.7408264135882 361.9411671711132 M359.5351031399332 338.963667715434 C370.552238488011 346.9358296010732, 381.2513800555839 353.4149899080484, 395.52188892019313 358.6094234981574" stroke="#1a7f37" stroke-width="1.8" fill="none"></path></g><text x="360" y="385" font-family="Marker Felt, Comic Sans MS, sans-serif" font-size="13" font-weight="normal" fill="#57606a" text-anchor="middle">agent</text><text x="300" y="374" font-family="Marker Felt, Comic Sans MS, sans-serif" font-size="18" font-weight="bold" fill="#24292f" text-anchor="end">Senses the swarm</text><text x="300" y="396" font-family="Marker Felt, Comic Sans MS, sans-serif" font-size="13.5" font-weight="normal" fill="#57606a" text-anchor="end">a live pheromone trail, every turn</text><g><path d="M880.5734723201629 211.15388734973968 L880.3705964318152 298.93188092149796 L801.0239616271108 349.05170226730405 L722.0458078862492 302.9209563676268 L722.0104845644299 208.22888882793487 L800.8926132436842 163.93388587869703" stroke="none" stroke-width="0" fill="#2ea44f" fill-rule="evenodd"></path><path d="M876.8755189357933 207.24607044421137 C882.3860547887544 227.601973503083, 880.0304301964503 245.65017354376613, 877.4971095143493 299.2448879238218 M878.9174146287751 208.79306636769326 C878.8987502037074 240.72487300988286, 881.0387600897338 272.89269974026826, 879.5866691403698 299.9775955589488 M877.9340387402709 300.655552386865 C854.0419017333467 316.2424399025148, 829.5226934508046 330.9419036303987, 802.4273679915816 349.6803216334432 M879.7915787034344 301.5671142490581 C857.1665060980788 313.64218685080687, 836.5862769161753 326.76243547269536, 801.1873930929229 347.65198847968134 M799.1174557868392 344.9082865115255 C774.3332987289165 331.8933572011151, 751.060158989984 317.92027788051297, 721.5229375192288 302.64546992741526 M799.154419660382 348.39142629820856 C780.4838865336401 337.0352788519728, 762.3093977737682 326.53107623557185, 721.1273700896044 301.41007452327756 M718.8637424775724 298.2416141267866 C722.6659533446867 283.71666715741156, 722.4881062334616 264.5535606268793, 720.5253061243657 208.38040848933161 M719.661640614583 302.3825857670978 C720.7283948974673 268.32592522781346, 720.0877283232276 236.84424351695924, 719.0449204328794 210.28269475419074 M721.2737618395452 211.486235916242 C746.9158647143109 191.61533421693747, 772.7209078671561 180.13003705280278, 802.3270153108984 165.55607237778605 M721.5968743685025 209.6511212201789 C742.267460350951 198.2505867302625, 763.5351602681881 184.94708939178128, 800.4507069645449 163.07588554937394 M802.6994303766638 160.8037119384855 C829.7734810274297 180.61838648251245, 855.8820375801023 195.8131385585944, 881.6341600595649 210.8117560263723 M799.5660962639377 162.03275653440505 C824.0120072467363 178.3738884651392, 848.3277521558216 192.69446450726232, 880.4964850657295 207.70212859828024" stroke="#1a7f37" stroke-width="2.5" fill="none"></path></g><text x="800" y="251" font-family="Marker Felt, Comic Sans MS, sans-serif" font-size="20" font-weight="bold" fill="#fff" text-anchor="middle">shared</text><text x="800" y="277" font-family="Marker Felt, Comic Sans MS, sans-serif" font-size="20" font-weight="bold" fill="#fff" text-anchor="middle">brain</text><text x="800" y="375" font-family="Marker Felt, Comic Sans MS, sans-serif" font-size="14" font-weight="normal" fill="#57606a" text-anchor="middle">plain files · tamper-evident log · runs locally</text></svg>
