<?xml version="1.0" encoding="UTF-8"?>
<svg xmlns="http://www.w3.org/2000/svg" width="1040" height="420" viewBox="0 0 1040 420"><g><path d="M4.6257306194646635 4.236887077907375 L1035.4563431629683 5.69283234754874 L1035.6609803944466 415.8484823412079 L6.237367427333121 413.5910382805096" stroke="none" stroke-width="0" fill="#fff"></path><path d="M6.4684704641633655 6.589804467837237 C311.87791893810953 9.727540807375092, 617.0727932538997 9.80629804862246, 1033.5789021885898 6.065899176366325 M5.923202175371534 5.654154591014006 C342.021464919846 5.691190714224433, 677.4948673405146 5.819509088978778, 1034.2189413765007 6.104872541243104 M1034.0233592011948 6.478867399557758 C1034.9103535945335 152.0785999735384, 1034.4659872882746 299.8900610362467, 1033.431601941014 414.84593259853796 M1033.5184039408819 5.75360216657474 C1035.5919660673103 108.05929107017265, 1036.5308495621114 210.44822161534285, 1033.4731171742908 413.75181000435845 M1033.6007567717404 414.7138759578679 C717.0188978078774 412.2687050317837, 400.85025398854197 411.84209602969764, 6.66660137131173 413.27899144146556 M1033.8826400785927 414.1084552667751 C819.4714832523533 410.970379230993, 604.4036579039828 410.55783478729467, 6.2088814874121425 413.6552010213758 M5.600575044481276 414.5094887265551 C5.929160855167571 303.89714464140127, 6.184799155110631 195.02852649559176, 6.9960406549920835 4.980217002145903 M6.274683892123993 414.3687171366475 C6.700199874414078 287.04826165860595, 6.730675708691355 159.41681229023683, 5.459434631283597 5.527436676512204" stroke="#d0d7de" stroke-width="1.5" fill="none"></path></g><text x="36" y="50" font-family="Marker Felt, Comic Sans MS, sans-serif" font-size="26" font-weight="bold" fill="#24292f" text-anchor="start">Every new session starts from zero</text><g><path d="M38.8786967497319 87.57080630846322 L328.79131582789125 92.00632813759148 L331.06552967838945 298.1831055361778 L38.28733683638275 300.8364290315658" stroke="none" stroke-width="0" fill="#fbfbfc"></path><path d="M38.500455841061765 88.83629589249213 C96.99673764859831 87.61284391656012, 154.24352212496495 86.89887094812124, 331.7000906896939 91.23579421591081 M40.0567006029332 90.83344338824912 C115.86045768237814 92.609297626591, 193.42441386009236 92.9148134111818, 330.27180722522945 90.2713562516773 M330.7544827319345 88.45631640998522 C330.72697302422597 142.6440558220963, 333.29249178818566 194.9122742937464, 330.2122589333594 301.7213065917501 M331.10435012966394 89.50804180809078 C333.3503941635522 132.37164493362934, 332.20106480368025 176.27997767132345, 329.0362095900017 298.83352697258573 M329.11636984720406 299.32769758661 C257.41084309991714 302.33872335719, 185.62662761740765 304.8264945537856, 41.584757987475925 298.72896545044466 M329.1282504902883 299.54726710691017 C234.67926567927125 301.8765181841006, 140.3192420150342 301.021448720244, 40.85764815576619 300.13180298983985 M42.273155040811915 298.9557862319466 C39.270601859626346 244.5865259961108, 37.78998650801442 191.2880246019918, 42.19551130020954 90.47209241474752 M40.808595131587765 301.230036072968 C39.996082294658734 238.87447086825026, 39.400229339362134 176.78704411311475, 39.16184011580783 91.19222135966223" stroke="#6b7075" stroke-width="1.8" fill="none"></path></g><text x="60" y="126" font-family="Marker Felt, Comic Sans MS, sans-serif" font-size="18" font-weight="bold" fill="#24292f" text-anchor="start">Session 1</text><text x="310" y="126" font-family="Marker Felt, Comic Sans MS, sans-serif" font-size="13" font-weight="normal" fill="#57606a" text-anchor="end">9:02 am</text><g><path d="M63.185105711221695 147.03778638243676 L312.1864666044712 146.52946442961692 L312.5774820387363 227.63549184203148 L62.826706701517104 225.9591889321804" stroke="none" stroke-width="0" fill="#fff"></path><path d="M59.6314085614138 144.58433840557439 C110.56601238496167 150.1758159989996, 161.63052301967898 146.517181880324, 307.6378506211455 148.31279251321942 M59.399000630030045 147.22554978015415 C120.37905228993459 145.38889883760825, 179.74497830138333 146.5776848022958, 309.4626827956873 145.45707062050582 M310.1618037164211 148.42719536423684 C307.25731083989143 170.25792562663554, 308.451033564806 199.2531151175499, 309.5462922036648 225.8709631025791 M309.8885300666094 144.43484530150891 C310.9856291252375 164.86416891217232, 312.11513952791694 186.01062814295292, 308.7300886183977 225.3076986759901 M312.0697403544306 225.4731671202602 C243.6491699561475 228.4872385994243, 174.24935151825252 228.08775369127113, 61.429041505641784 228.47511403447263 M310.9109755343822 226.89900256462641 C241.1309720264579 228.61191925392316, 172.45805237671837 228.42385650651352, 58.91353907793253 226.3336180811866 M60.61100224852562 228.48953858017921 C58.72859319329262 209.8953571230173, 58.771791015863414 192.35508801937104, 59.606416028738025 148.90812321305276 M59.261931899189946 227.5147057980299 C60.25909458220005 199.9719044804573, 62.14970727980137 175.8983872205019, 60.35554733574391 147.02544369399547" stroke="#aeb4ba" stroke-width="1.5" fill="none"></path></g><text x="74" y="178" font-family="Marker Felt, Comic Sans MS, sans-serif" font-size="15" font-weight="normal" fill="#24292f" text-anchor="start">"wait, what is this</text><text x="74" y="202" font-family="Marker Felt, Comic Sans MS, sans-serif" font-size="15" font-weight="normal" fill="#24292f" text-anchor="start">project again?"</text><text x="60" y="258" font-family="Marker Felt, Comic Sans MS, sans-serif" font-size="14" font-weight="normal" fill="#57606a" text-anchor="start">you paste the context.</text><text x="60" y="280" font-family="Marker Felt, Comic Sans MS, sans-serif" font-size="16" font-weight="bold" fill="#b35900" text-anchor="start">again.</text><g><path d="M369.43826233297585 89.56107507795096 L657.4550877705217 91.74177085012198 L658.6207062378526 298.5108073815703 L372.3831157818437 300.181905375421" stroke="none" stroke-width="0" fill="#fbfbfc"></path><path d="M371.500430454749 91.9482171899895 C428.76221046479776 89.16200640874682, 485.7579230999533 89.60997151749497, 658.7669649195919 89.54783202121443 M370.4255830705776 90.06131105099884 C453.5638549098375 88.054338368788, 534.8492716801231 87.76172821490907, 660.712391900306 90.01182606890308 M660.1815580425794 88.76617414664696 C655.8166790323013 145.3676554961284, 659.2373707175808 202.70745132499522, 659.4585929778125 298.1729807890001 M660.2358384395519 89.7562652107877 C660.6336441780696 146.9077360448391, 660.7500428982404 203.80334182843126, 660.7759934533356 300.50574996344767 M658.1218619296054 301.2034903821467 C581.8478262665562 304.20324283625337, 506.86880135654354 301.9205548317142, 371.4130461166346 300.40518086725956 M659.187649587051 300.4463029425469 C572.6223010390283 298.4072317254675, 484.0756737533789 299.367032706992, 370.79354860768825 299.12579051978645 M368.90877872108257 301.0809717759288 C369.06869009283514 226.93978692814773, 370.3922120240192 152.57744266932238, 370.4540916002794 91.45387548633002 M369.84149844211703 301.22783863062403 C371.272625739545 246.911503957667, 371.3025740658162 192.12826828415302, 370.9435008210771 91.17741901288298" stroke="#6b7075" stroke-width="1.8" fill="none"></path></g><text x="390" y="126" font-family="Marker Felt, Comic Sans MS, sans-serif" font-size="18" font-weight="bold" fill="#24292f" text-anchor="start">Session 2</text><text x="640" y="126" font-family="Marker Felt, Comic Sans MS, sans-serif" font-size="13" font-weight="normal" fill="#57606a" text-anchor="end">11:18 am</text><g><path d="M387.4246092349291 142.9123792618513 L640.6593488246202 146.22711324393748 L639.7833981066942 228.01000823676586 L391.10759692490103 225.21116189658642" stroke="none" stroke-width="0" fill="#fff"></path><path d="M388.13829252679426 148.4569928857602 C437.53611253112706 145.15388298563292, 488.2876763470016 142.94123167633478, 639.2141572151836 146.21219493032672 M389.8580592643644 146.26466373282597 C454.98460587293243 147.00179679886188, 521.8404200847627 147.44624032237232, 640.0109717955435 145.13409628118936 M639.4205305069685 148.82810187637807 C636.5045545345545 170.4265231475234, 638.8047346836329 202.62821895480155, 638.5711686104536 227.6799952059984 M638.764814402163 144.7560068115592 C638.8958167627454 170.55964120924472, 638.4629775121808 198.59764908105134, 640.9810915723443 227.47128863185645 M640.8321172995783 227.80751194426887 C568.4641945546857 225.5867103394051, 496.8265347021943 229.7035058543135, 391.2153533424965 225.33463564895504 M640.9848951988616 225.40458585011396 C575.7313952540064 224.75736312238723, 514.235110762609 224.21460111006397, 388.8337699005303 225.08167809722616 M392.65803565680983 224.8391898661852 C387.89687963306903 203.7052023604512, 391.5681840497256 181.95359095335007, 387.3532965630293 143.7783939868212 M391.21066296249626 227.51186265796423 C391.1103977349401 203.42430129647255, 390.6106975224614 181.85500012785195, 389.4607322469354 147.00629181712867" stroke="#aeb4ba" stroke-width="1.5" fill="none"></path></g><text x="404" y="178" font-family="Marker Felt, Comic Sans MS, sans-serif" font-size="15" font-weight="normal" fill="#24292f" text-anchor="start">"wait, what is this</text><text x="404" y="202" font-family="Marker Felt, Comic Sans MS, sans-serif" font-size="15" font-weight="normal" fill="#24292f" text-anchor="start">project again?"</text><text x="390" y="258" font-family="Marker Felt, Comic Sans MS, sans-serif" font-size="14" font-weight="normal" fill="#57606a" text-anchor="start">you paste the context.</text><text x="390" y="280" font-family="Marker Felt, Comic Sans MS, sans-serif" font-size="16" font-weight="bold" fill="#b35900" text-anchor="start">again.</text><g><path d="M699.9978279162199 91.55134384743869 L991.718859713152 91.47721356265247 L991.7758827973157 298.8385092269629 L700.8788947273046 299.5273817192763" stroke="none" stroke-width="0" fill="#fbfbfc"></path><path d="M700.3006178684362 90.86035128748689 C756.3278960809972 94.91095610093353, 817.2723240749416 92.32107208686872, 990.0336263494899 92.05965702651804 M700.794465538222 89.28917871374854 C789.1673585372969 89.589070550985, 878.3740231001539 88.69833445863634, 989.0530829753825 89.75229588612883 M989.6086333532241 89.07603188330872 C991.0467379203766 148.0912551701605, 990.3760889269761 210.50262835624403, 988.7049270222657 299.57116858625017 M989.3673267494399 90.00448861348464 C987.916894192587 161.4438271560489, 989.2990209928005 233.79996278553907, 990.0425205166695 299.70471615430955 M991.3271412120067 298.87949597768335 C910.4845966331952 301.8679751153167, 828.1109750956795 303.2144023096427, 701.2413342457932 302.0813962840744 M989.2470486838139 299.2454451781836 C908.4654427987854 301.02763670683436, 827.8321054917237 301.70241453374, 700.7294490596104 300.2196716497331 M700.4909160013532 298.25964371991097 C698.8667783260439 251.29304786018466, 702.994437540024 202.81337433665297, 698.7126719003493 92.43565855791253 M698.8744017526462 301.22564118828006 C702.5491691844312 254.94853704708376, 703.2049187922703 207.46949245519127, 700.2519047263464 91.16261666610372" stroke="#6b7075" stroke-width="1.8" fill="none"></path></g><text x="720" y="126" font-family="Marker Felt, Comic Sans MS, sans-serif" font-size="18" font-weight="bold" fill="#24292f" text-anchor="start">Session 3</text><text x="970" y="126" font-family="Marker Felt, Comic Sans MS, sans-serif" font-size="13" font-weight="normal" fill="#57606a" text-anchor="end">2:40 pm</text><g><path d="M718.0641127586365 145.18697214126587 L969.1322310447692 145.92476205825807 L966.9893141746521 228.38452463150026 L719.3884871482849 224.46313486099243" stroke="none" stroke-width="0" fill="#fff"></path><path d="M721.8716340921748 147.103189765946 C769.7326702772924 146.66502197226623, 820.1712872743242 145.89835347234558, 970.7904638092218 144.11159734743404 M720.3171178986987 145.30377768549775 C789.5901594559302 142.0816227601155, 861.3226330681422 144.39495264244886, 970.5592607953997 144.81112194187287 M968.6792572975158 142.8290083885193 C972.1517982292175 176.99512066841126, 969.1584358024597 206.0033227920532, 967.5960450172424 223.08902730941773 M970.8410987377167 145.0771683216095 C970.0060044002532 176.25511350631714, 968.0108154964447 207.98467001914977, 970.0320945262908 226.43487858772278 M969.594494244726 224.91539916827756 C893.279219153224 227.9126396793859, 819.4037178861361 226.09280041735587, 721.0016651793512 227.42061486343746 M971.058814863341 226.5233979356015 C912.945047281555 227.43587899085136, 856.0121691484995 229.15164651361442, 718.754000723128 226.4429669132657 M718.305069065094 227.58884115219115 C717.0651660728455 197.51504759788514, 717.9645770835876 165.1520938873291, 721.5001770973206 145.0486647605896 M719.9593940258026 227.50901951789857 C719.40170088768 206.8766981124878, 719.7116877651215 187.81161303520201, 718.5659171581268 146.98713994026184" stroke="#aeb4ba" stroke-width="1.5" fill="none"></path></g><text x="734" y="178" font-family="Marker Felt, Comic Sans MS, sans-serif" font-size="15" font-weight="normal" fill="#24292f" text-anchor="start">"wait, what is this</text><text x="734" y="202" font-family="Marker Felt, Comic Sans MS, sans-serif" font-size="15" font-weight="normal" fill="#24292f" text-anchor="start">project again?"</text><text x="720" y="258" font-family="Marker Felt, Comic Sans MS, sans-serif" font-size="14" font-weight="normal" fill="#57606a" text-anchor="start">you paste the context.</text><text x="720" y="280" font-family="Marker Felt, Comic Sans MS, sans-serif" font-size="16" font-weight="bold" fill="#b35900" text-anchor="start">again.</text><text x="40" y="350" font-family="Marker Felt, Comic Sans MS, sans-serif" font-size="15" font-weight="normal" fill="#57606a" text-anchor="start">CLAUDE.md and HANDOFF.md help, but they drift out of date, and you keep asking the agent to update them.</text></svg>
